<?xml version="1.0" encoding="utf-8"?>
<!-- Generator: Adobe Illustrator 26.0.0, SVG Export Plug-In . SVG Version: 6.00 Build 0)  -->
<svg version="1.1" xmlns="http://www.w3.org/2000/svg" xmlns:xlink="http://www.w3.org/1999/xlink" x="0px" y="0px"
	 viewBox="0 0 1080 1080" style="enable-background:new 0 0 1080 1080;" xml:space="preserve">
<style type="text/css">
	.st0{display:none;}
	.st1{fill:#583019;}
	.st2{fill:#F5CECE;}
	.st3{fill:#FFE578;}
	.st4{fill:#FE891E;}
	.st5{fill:#FFF9B1;}
	.st6{fill:#FFFFFF;}
</style>
<g id="Capa_1" class="st0">
	
		<image style="display:inline;overflow:visible;" width="3472" height="3472" xlink:href="328A8C26.png"  transform="matrix(0.144 0 0 0.144 290 290)">
	</image>
</g>
<g id="Capa_3">
	<g>
		<path class="st1" d="M657.8,388.4c-0.3,8-3.4,17.7-9.3,22.1c-6.1,4.6-13.9,9.6-26.6,4.9c-24.8,7.9-31,1.8-38-6.4
			c-6.5-7.6-12-22.9-5.8-33.2c-10.1-12.8-6.3-24.5-1-31.9c5-7.1,17.9-14.9,31.8-11.7c11.1-12.2,24-8.8,31.8-6
			c8.3,2.9,16.4,11.5,16.4,23.1c0,1.5,8.9,2.4,10.5,19.4C667.8,382.6,657.8,387.6,657.8,388.4z"/>
		<path class="st2" d="M625.8,392.8c0.5,0,0.8,0.6,0.6,1c-14.8,26.8-32.9,11.7-35.7,7.5c-0.7-1.1-15.3-19.6,9.5-34
			c0.5-0.3,0.4-1.1-0.2-1.2c-1.4-0.3-3.6-0.5-6.4,1c-1.6,0.8-4.5,3-5.7,3.8c-0.3,0.2-0.7,0.2-0.9-0.1c-7.9-8.4-4.3-18.8-0.8-22.1
			c3.4-3.2,12.1-11.3,24.6-2.5c1.8,1.3,7-16.5,23.5-11.3c4,1.3,12.7,5.8,12.1,17.6c0,0.9-0.7,1.7-1.6,1.8c-4.4,0.5-5.9,0.7-8,2.3
			c-5.2,3.9-3.9,6.1-3.2,7c0.2,0.2,0.4,0.3,0.7,0.2c4.9-1.3,3.5-3.9,13.7-3.9c4.4,0,6.5,1.5,8.2,4.2c0,0.1,0.1,0.1,0.1,0.2
			c1.4,3.6,0.5,8,0.5,8c-1.2,8.3-6.5,9.3-9,9.8c-0.7,0.1-1.1,0.8-0.9,1.5c1.5,4.5,0.7,12.6-2.3,16.3c-2.9,3.5-4.6,6.7-15,6.5
			c-0.9,0-1.5-1.1-0.9-1.8c1.9-2.7,1.7-3.5,2.3-5.9c0.4-1.6,0.9-5.7,1.1-7.3c0-0.4,0.3-0.7,0.6-1c3.4-2.6,4.5-8.3,4.8-9.4
			c0.9-3.9-3.8-11.5-5.5-9.5c-2.6,1.4,3.4,6.2-2.4,13c-6.1,7.2-14.9-3.2-15.7-0.1c-0.6-0.2-2.3,2.6,3.7,6.9
			C619.6,392.4,622.7,392.7,625.8,392.8z"/>
	</g>
	<path class="st1" d="M796.6,331.3c-1.3-5.4-0.9-12.5,2.2-16.6c3.3-4.2,7.6-9,17-8.1c15.2-9.8,20.6-6.8,26.7-2.6
		c5.8,3.9,12.2,13.3,10,21.3c9.1,6.8,8.7,15.3,6.5,21.3c-2.1,5.7-9.4,13.3-19.3,13.7c-5.3,10.2-14.6,10.3-20.3,9.8
		c-6.1-0.5-13.1-4.7-15.2-12.6c-0.3-1-6.4,0-10.6-11.2C791,337,796.8,331.9,796.6,331.3z"/>
	<path class="st3" d="M817.4,322.5c-0.3,0.1-0.7-0.2-0.6-0.6c5.1-20.8,20-13.8,22.7-11.5c0.7,0.6,13.8,10.4-0.2,24.6
		c-0.3,0.3-0.1,0.8,0.3,0.8c1,0,2.5-0.4,4.1-1.8c0.9-0.9,2.5-2.8,3.1-3.6c0.1-0.2,0.4-0.2,0.6-0.1c6.9,4.2,6.3,11.9,4.6,14.7
		c-1.7,2.8-6.1,9.8-16.1,6.2c-1.4-0.5-1.7,12.4-13.7,11.9c-2.9-0.1-9.6-1.6-11.3-9.6c-0.1-0.6,0.2-1.3,0.8-1.5c2.8-1.1,3.9-1.5,5-3
		c2.8-3.6,1.5-4.8,0.9-5.3c-0.1-0.1-0.4-0.1-0.5,0c-3.1,1.7-1.6,3.3-8.5,5.1c-2.9,0.8-4.7,0.1-6.3-1.4c0,0-0.1-0.1-0.1-0.1
		c-1.6-2.2-1.8-5.3-1.8-5.3c-0.7-5.8,2.7-7.5,4.3-8.2c0.5-0.2,0.6-0.8,0.3-1.2c-1.8-2.7-2.7-8.4-1.4-11.4c1.3-2.9,1.9-5.4,8.9-7.1
		c0.6-0.2,1.2,0.5,1,1.1c-0.8,2.2-0.5,2.6-0.5,4.4c0,1.1,0.4,4,0.6,5.1c0,0.3-0.1,0.5-0.2,0.8c-1.8,2.4-1.5,6.4-1.5,7.2
		c0.1,2.8,4.6,7,5.4,5.4c1.5-1.4-3.4-3.6-0.8-9.2c2.8-5.9,10.6-0.6,10.6-2.8c0.5,0.1,1.1-2.1-3.7-4
		C821.6,321.7,819.5,322,817.4,322.5z"/>
	<path class="st1" d="M159.1,698c-21.1,0-39.5-7.4-51.8-20.8c-9.2-10-19.7-28.5-17.2-59.7c1.6-21.7,8.9-43.5,20.7-62.3
		c-4.1-8.4-6.7-17.3-7.6-25.8c-0.6-5.8,1.2-11.4,5.2-15.9c6-6.8,15.3-9.2,22-9.2c9.8,0,16,4.7,19,10.1c17-11.8,36.1-18.7,56.2-20.4
		c2.5-0.2,5.1-0.3,7.5-0.3c22.9,0,35.2,9,41.6,16.6c5.9,7,12.2,19.3,8.8,38.3c-5.5,31.8-38.1,55.8-76,55.8c0,0,0,0,0,0
		c-8.6,0-17.1-1.3-25.5-3.7c-1.2,5.9-1.7,11.8-1.5,17.3c0.7,23.1,11.2,23.1,16.7,23.1c3.6,0,7.6-0.6,12-1.9
		c9.9-2.9,24.2-11.3,31.6-25.6c3.2-6.3,9.8-10.3,17.2-10.3c8.5,0,17.7,5.1,21.8,12.2c3.2,5.5,3.4,12,0.6,17.5
		c-18.5,36.3-45.3,56.4-84.2,63.2C170.5,697.5,164.7,698,159.1,698z"/>
	<path class="st4" d="M247.2,545.9c-5.7,33-53.4,55.7-95.8,32.8c-5.2,13.2-7.8,27.4-7.3,40.1c1.2,36.8,24.7,43.7,49.8,36.5
		c12.3-3.6,31.5-14.2,41.7-33.9c1.9-3.8,11.6,1.7,10.2,4.3c-15.2,29.8-36.3,48.2-72.3,54.5c-37,6.4-70.9-11.1-66.9-61.3
		c1.7-22.1,10-44.4,23.7-62.8c-6.2-9.3-9.7-19.4-10.7-28.4c-0.7-6,14.2-9.2,15.7-4.5c1.4,4.5,2.8,11.6,7.4,18.5
		c17.1-17.1,38.9-29,64.3-31.1C236.8,508.3,251.2,523,247.2,545.9z M161.3,559.9c19.2,9.4,48.6,4,51-17.7c0.5-5.7-4-9.6-11.4-8.8
		C183.9,535,171.3,545.4,161.3,559.9z"/>
	<path class="st1" d="M259.7,684c-15.1,0-23.4-6.4-27.7-11.9c-7.1-8.9-8.8-21.4-5.2-37.3c5-22.3,12.1-47.1,18.4-69l2.3-7.9l3.2-3.1
		c2-2,4.4-3.5,7-4.8c-3.4-6.4-4.5-14-3-21.7l0-0.1c4-19.2,19.4-33.6,38.2-35.8c1.6-0.2,3.2-0.3,4.8-0.3c9.8,0,18.3,3.7,24,10.5
		c5.8,6.9,8.1,16.3,6.3,26.3c-1.9,11-7.6,20.4-16,27c0.5,0.6,0.9,1.3,1.4,2l3.6,6.1l-1.9,6.8c-2.4,8.7-4.8,16.9-7,24.3
		c2.7-1.4,5.8-2.2,9.1-2.2c8.4,0,17.9,5.2,22,12.1c3.3,5.4,3.6,11.8,0.8,17.3c-17.4,34.7-41,55.6-68,60.4
		C267.6,683.6,263.5,684,259.7,684z M297.5,636.8"/>
	<path class="st4" d="M242.9,638.5c5.2-23.1,12.6-48.5,19.2-71.8c5.9-5.7,32.7-7.5,37-0.3c-7.8,28.1-15.2,50.3-17.5,63.3
		c-1.4,9.1-0.2,13.7,2.8,13.3c8.3-0.9,22.5-14.1,30.6-32.4c1.4-3.5,11.4,2,10.2,4.3c-10.9,21.7-29.2,46.8-56.2,51.6
		C243.7,671.1,238.4,658.2,242.9,638.5z M270.9,531.6c2.4-11.4,11.4-21.3,24-22.8c12.3-1.4,18.7,6.4,16.8,17.2
		c-1.9,11.1-10.7,21-24.7,22.9C276.1,550.5,268.8,542.3,270.9,531.6z"/>
	<path class="st1" d="M354.5,671.1c-19.1,0-29.5-8.2-34.9-15.2c-13.8-17.7-10.8-45-4.1-75c-3-3.5-5.5-8.8-5.3-17.1
		c0.2-9,4.2-25.5,17.4-29.8l0.3-0.1c0.4-1.2,0.7-2.3,1.1-3.5c5.2-17.2,10.1-33.4,13-41.9l0.9-2.5l1.6-2.1
		c8.3-11,26.9-12.1,34.5-12.1c24.2,0,30.6,11.6,32.2,18.5l1.1,4.4l-1.4,4.4c-2.8,8.9-5.3,17.5-8.1,27l2.2,1.5
		c6.7,4.6,10.3,12.4,10.1,21.9c-0.2,9.4-4.2,21.3-12.8,26.7l-3,1.9l-11.1,1.5c-2.3,8.1-4.5,15.7-6.1,22.4c-0.6,2.6-1.1,4.9-1.5,6.9
		c4.1-4.2,8.1-10.2,11.7-18c3.1-6.6,9.7-10.7,17.2-10.7c8.3,0,17.3,4.9,21.6,11.7c3.4,5.3,3.8,11.7,1.3,17.2
		c-10.9,23.8-29.6,56-66.9,61.1C361.6,670.9,357.9,671.1,354.5,671.1z"/>
	<path class="st4" d="M335,570.2L329,571c-5-1.9-1.4-19.6,3.6-21.2l8.1-1.1c6.2-20.4,13.3-44.4,16.8-54.8c4.7-6.3,35.3-8.6,37.5,0.3
		c-5.2,16.7-9.5,31.6-14.2,49l14.7-2c5.7,3.9,2.1,18.3-2.1,21l-18.3,2.5c-3.3,11.7-6.9,23.5-9.2,33.5c-4.7,20.2-5.9,34.5,3.8,33.8
		c8.3-0.7,24-5.4,37.5-34c1.7-3.5,11.4,1.7,10.2,4.3c-13.5,29.6-29.6,48.3-54.1,51.6C316.9,660.2,322.9,618.9,335,570.2z"/>
	<path class="st1" d="M438.4,727.8c-13.6,0-25.1-4.7-32.5-13.1c-6.8-7.8-9.7-18.3-8.1-29.7c1.8-12.5,6.9-22.2,13.9-29.8
		c-3.5-2.2-6.1-4.8-8-7.2c-7.8-10.1-9.2-24.6-4.4-43.2c5.8-22.2,12.3-45.5,18.4-65.7l0.9-3l1.9-2.4c8.7-11.1,28.4-12,34.2-12
		c12.4,0,19.9,3.2,24.4,7.3l0.3-1.1l2.7-3c9-10.2,26-11.2,32.9-11.2c20.6,0,28.2,8.3,30.9,15.3l2,5.1l-1.4,5.3
		c-2.4,8.8-4.5,16.5-6.4,23.5c2.2-0.8,4.6-1.3,7.1-1.3c7.1,0,16.8,3.9,21.6,11.5c3.4,5.4,3.9,12,1.2,17.7l-0.1,0.2l-0.1,0.2
		c-16.2,31.5-30.2,52.2-55.5,67.1c-5.8,18.1-11.3,33-20.2,44.5c-10.8,14-25.3,21.5-46.9,24.4C444.2,727.6,441.3,727.8,438.4,727.8z"
		/>
	<path class="st4" d="M414.2,687.3c3.8-26.9,29.6-35.8,55.7-44.3c3.3-8.5,6.4-17.6,9.5-27.6c-13,19.9-28,26.6-40.6,28.3
		c-27.3,3.7-28.5-15.7-23.5-34.7c5.5-21,11.9-44,18.3-65.1c5-6.3,33-8.2,35.6-1.1c-5.7,19.8-10.2,38.6-14.9,58.3
		c-2.6,10.7-4.3,19.9,2.6,17.5c8.8-2.8,19.2-21.2,24-35.5c5-15.3,10-32.4,13.8-47.3c6.4-7.2,33.4-7.6,36.1-0.9
		c-11.4,41.5-16.1,59.4-25.4,94c16.8-9.3,25.6-23,39.8-49.9c1.4-3,11.4,1.5,10,4.5c-18,35.2-31.3,51.3-54.5,63.4
		c-12.8,41.3-20.6,59-55.5,63.8C425.6,713.5,411.8,704.8,414.2,687.3z M461.6,675.2c1.4-4.2,2.6-9.1,3.8-13.9
		c-7.6,3.1-13.5,7.2-17.3,11.5c-5.9,6.7-7.4,17.2,1.9,15C453.8,686.8,458.5,683.1,461.6,675.2z"/>
	<path class="st1" d="M538.1,713.6c-24.4,0-27.2-14.9-27.5-19.4l-0.2-2.5l0.6-2.4c14.7-60.5,29.3-115.6,44.5-168.6l0.2-0.6l0.2-0.6
		c5.6-15.1,29.7-16.2,36.9-16.2c8.7,0,14.9,1.7,19.5,4.2c8.3-5.1,18.4-9.3,30.1-9.9c0.8,0,1.6-0.1,2.3-0.1c14,0,25.6,6.9,32,19
		c4.1,7.7,5.8,16.9,5.6,26.7c1.5-0.3,3-0.5,4.6-0.5c8.1,0,17.1,4.8,21.5,11.3c3.4,5.2,4.1,11.7,1.7,17.2l-0.1,0.2l-0.1,0.2
		c-16.8,36-43.1,45.1-60.8,46.7c-13.6,12.2-31.2,19.2-48.6,19.2c-2.1,0-4.1-0.1-6.1-0.3c-1.7,6.8-3.4,14-5.3,21.8
		c-2.6,10.9-5.3,22.1-8.4,34.5l-0.7,2.6l-1.4,2.3C569.2,713.4,539.3,713.6,538.1,713.6z"/>
	<path class="st4" d="M651.4,588.7c15.2-1.6,26.8-13.3,33.4-28.3c1.4-3.5,11.4,1.5,10.2,4.3c-14.2,30.4-36.3,37.6-52.9,37.5
		c-15.9,17.2-41.3,24-59.5,14.9c-5.5,20.7-10.7,44-17.8,72.5c-4.3,6.7-37.2,10.9-37.7,3.5c11.6-47.7,26.3-105.2,44.3-167.9
		c1.7-4.5,31.1-9.4,35.8-0.6c-0.7,2.2-3.3,9.2-4.3,11.6c10.7-10.4,23.5-21.3,40.3-22.2C674.4,512.4,669.9,561.5,651.4,588.7z
		 M599.2,554.6c-4.3,14.2-7.1,26.1-11.4,41.1c6.4,5.2,17.3,5.4,23,0.9c-5.5-7,2.4-19.6,8.8-18.8c8.5-20.9,8.5-34.6,0.9-35.2
		C616,542.2,607.5,546.4,599.2,554.6z"/>
	<path class="st1" d="M816.7,675.8c-24.4,0-27.2-14.9-27.5-19.4l-0.2-2.5l0.6-2.4c14.7-60.5,29.3-115.6,44.5-168.6l0.2-0.6l0.2-0.6
		c5.6-15.1,29.7-16.2,36.9-16.2c8.6,0,14.9,1.7,19.4,4.2c8.7-5.4,18.6-9.2,30.2-9.8c0.8,0,1.6-0.1,2.3-0.1c14,0,25.6,6.9,32,19
		c4.1,7.7,5.8,16.9,5.6,26.7c1.5-0.3,3-0.5,4.6-0.5c8.1,0,17.1,4.8,21.5,11.3c3.4,5.2,4.1,11.7,1.7,17.2l-0.1,0.2l-0.1,0.2
		c-16.8,36-43.1,45.1-60.8,46.7c-13.6,12.2-31.2,19.2-48.6,19.2c-2.1,0-4.1-0.1-6.1-0.3c-1.7,6.8-3.4,14-5.3,21.8
		c-2.6,10.8-5.3,22.1-8.4,34.5l-0.7,2.6l-1.4,2.3C847.9,675.6,818,675.8,816.7,675.8z"/>
	<path class="st4" d="M930,550.9c15.2-1.6,26.8-13.3,33.4-28.3c1.4-3.5,11.4,1.5,10.2,4.3c-14.2,30.4-36.3,37.6-52.9,37.5
		c-15.9,17.2-41.3,24-59.5,14.9c-5.5,20.7-10.7,44-17.8,72.5c-4.3,6.7-37.2,10.9-37.7,3.5c11.6-47.7,26.3-105.2,44.3-167.9
		c1.7-4.5,31.1-9.4,35.8-0.6c-0.7,2.2-3.3,9.2-4.3,11.6c10.7-10.4,23.5-21.3,40.3-22.2C953,474.6,948.5,523.7,930,550.9z
		 M877.9,516.8c-4.3,14.2-7.1,26.1-11.4,41.1c6.4,5.2,17.3,5.4,23,0.9c-5.5-7,2.4-19.6,8.8-18.8c8.5-20.9,8.5-34.6,0.9-35.2
		C894.7,504.4,886.2,508.6,877.9,516.8z"/>
	<g>
		<path class="st1" d="M706.6,467.9c-8-4.1-18.3-11.2-21.9-13c-3.9-2-18.5-9.7-27.1-13.2c-3-1.2,12.1-3.9,27.6,4.2
			C704.5,456.1,708.1,468.7,706.6,467.9z"/>
		<path class="st1" d="M758.9,454.1c2.5-14.2,4.4-34.9,6.4-49.2c2.3-16.2,3-29.3,6.6-45.2c0.8-3.5-12.7,9.1-17.3,41.5
			C749.8,435.5,758.3,457.6,758.9,454.1z"/>
		<path class="st1" d="M784.8,450.7c6.6-25,15.8-33.8,24.3-43.9c13.3-15.9,13-12.3,21.8-21.8c1.8-1.9-14.6-7-30.6,15.8
			c0,0-17.1,22.7-17.3,49.4C783.1,451.5,784.7,451.2,784.8,450.7z"/>
		<path class="st1" d="M724.4,461.1c-3.8-10.8-0.5-16.4-13.8-49c-12.9-31.6-16.2-27.9-21.8-41.6c-0.6-1.4,16.6,3.3,30.5,38.6
			C733.2,445,726.8,468.1,724.4,461.1z"/>
	</g>
	<g>
		<path class="st5" d="M692.7,522.5c-2-13.8,10.6-33.9,21.5-39.4c10.6-5.4,35.1-3.8,43,6.7c20.9-24.8,44.1-12.5,53-4.4
			c9.2,8.3,22.7,28.6,1.1,53.7c10,7.9,11.1,31.9,6.4,42.7c-4.7,10.8-16.1,24-34.8,22c-7.6,10-18.4,17.8-29.1,18.9
			c-10.6,1.1-28.4-3-35-12.2c-7.9,3.4-20.7,2.6-26.3-2.1c-5-4.3-8-17.6-5.4-25c-7.4-4.1-10.6-21.8-9.7-32.5
			C678.4,541.4,682.8,526,692.7,522.5z"/>
		<path class="st1" d="M701.3,479c16.9-11.3,34.4-13.5,52.6-3.3c3.5,1.9,5.1-0.3,7.3-1.6c28.4-17.5,64.1-2.2,69.8,29.9
			c2,10.9,0.1,21.4-5.6,30.9c-1.7,2.8-2.1,4.9-0.7,8.1c12.8,30.7-3.6,63-35.9,71.1c-2.6,0.6-4.5,1.8-6.4,3.7
			c-17,16.7-41.2,18.4-60.2,4.3c-2.8-2-5-2.2-8.1-1.4c-14.8,3.6-28.9-4.2-34.5-19.1c-0.1-4-0.6-8.1-0.2-12c0.3-2.9-0.6-4.7-2.3-6.8
			c-15-18.7-13.5-43.3,3.6-60.2c1.5-1.5,3.2-2.7,3.1-5.2C683.4,501.7,690,489.3,701.3,479z M797.2,484c-0.8-0.3-1.7-0.5-2.5-0.8
			c-11-3.7-20.6-0.6-29.2,6.4c-2.9,2.4-4,4.6-1.9,8.7c4.4,8.2,4.6,17.1,2.6,26.3c-1.1,5.2-3.7,4-6.7,2.3c-3-1.6-0.6-3.8-0.2-5.6
			c3.1-14.7-4.5-27.8-14.8-33.5c-12.5-7-28.3-3.5-37.9,7.5c-13.4,15.3-9.1,39.3,9.5,51c3.7,2.3,2.5,4,1.4,6.6
			c-1.7,3.7-3.7,1-5.1,0.1c-7.4-4.3-13.2-10.2-16.7-18.1c-1.6-3.5-2.9-3.3-5.4-0.8c-12.6,12.5-11,32.8,3.8,44.5
			c3,2.4,3.9,4.1,1.9,7.8c-3.7,6.9-2.3,13.3,2.7,17.4c5.1,4.2,11.6,4.3,17.7-0.5c3.8-3,5.8-3.2,9,1c10.1,13.1,27.2,16.3,40.7,8
			c12.8-7.8,16.8-23.9,9.5-39c-1.5-3.2-0.8-4.4,1.7-6.1c3.4-2.3,4.1,0.7,5.1,2.5c4.7,8.7,5.4,17.9,3.7,27.4
			c-0.2,5.3,3.3,1.6,4.2,1.3c22.3-7.9,31.2-34.6,17.9-54.4c-3.3-4.9-3-7.3,0.9-11.6c14.6-15.9,8.1-41-12-48.3L797.2,484z"/>
	</g>
	<path class="st6" d="M784.6,481.6c-0.4-0.2,1.3,0,1.7,0c23.7,2,28.6,18.4,30.2,26.3c0.8,3.9,1.1,18.5-10.4,28.5
		c-0.2,0.2-0.1,0.4,0.1,0.7c8.7,15.1,9.3,26.2,7.1,36.8c-1.6,7.6-15,25.8-25.6,25.8c-1.5,0-1.3,0.1-0.9-0.2
		c9.7-8.6,25.3-29,17.5-60.3c-0.5-1.9-1.3-0.4-0.5-2C813.4,517,805.7,491.1,784.6,481.6z"/>
</g>
</svg>
