<?xml version="1.0" encoding="utf-8"?>
<!-- Generator: Adobe Illustrator 26.0.0, SVG Export Plug-In . SVG Version: 6.00 Build 0)  -->
<svg version="1.1" id="Capa_1" xmlns="http://www.w3.org/2000/svg" xmlns:xlink="http://www.w3.org/1999/xlink" x="0px" y="0px"
	 viewBox="0 0 1080 1080" style="enable-background:new 0 0 1080 1080;" xml:space="preserve">
<style type="text/css">
	.st0{fill:#EDC4DE;}
	.st1{fill:#FFFFFF;}
	.st2{fill:#0B0A0C;}
	.st3{fill:#FCFCFC;}
	.st4{fill:none;}
	.st5{font-family:'CenturyGothic-Bold';}
	.st6{font-size:30px;}
</style>
<g>
	<path class="st0" d="M565.8,674.9c-64.1,0.1-118.4-42-133.3-104.7c-3.5-14.9-9.7-25-22.8-34.3c-63-44.5-63.8-134.6-2.1-181.4
		c10.8-8.2,17.9-16.7,22.7-29.5c35.4-94.5,152.3-123.7,227.3-56.4c11.9,10.7,22.9,15,38.6,15.4c65.5,1.8,118.5,52,124.5,115.9
		c6.1,65.3-37.4,127.3-100.4,140.5c-14.4,3-16.5,9.8-18.7,22.2C689.4,628.3,632.5,674.8,565.8,674.9z M621,451.2
		c4.1,5,8.3,10,12.3,15.1c36.9,47.2,107.1,41.3,135-11.7c16.2-30.8,14.6-61.8-4.8-90.5c-19.5-28.8-47.6-42-82.2-37.1
		c-17.8,2.5-29.9-0.7-41.9-16.1c-25-32.3-60.7-42.1-99.5-33.4c-38.2,8.6-64.1,34-73.2,72.1c-4.1,17.2-12.2,26.1-26.8,34.1
		c-24.7,13.5-36.3,36.1-35,64.4c1.3,28.3,14.7,50.2,41,60.4c18.3,7.2,23.8,17.6,24.9,36.5c2.8,46.9,40.9,83.8,86.8,87.4
		c47.3,3.7,90.9-27.6,101.8-73.7c3.2-13.5,3.8-25.1-11-35.5C625.2,507,617.3,481.5,621,451.2z"/>
	<path class="st0" d="M343.1,594.9c10,1.1,16.7,2.5,19,10.7c2.2,8.1,1.8,16.9-5.9,20.8c-64.2,33-86.7,96.7-115.6,155.8
		c-3.7,7.6-5.9,16.9-16.5,17.8c-15.9,1.3-25-7.6-19.5-21.6c26.4-67.6,56.3-133.5,119.8-175.7C330.7,598.5,338.5,596.8,343.1,594.9z"
		/>
	<path class="st0" d="M375.4,717.6c-1.8,3.3-3.9,8-6.6,12.2c-13.2,20.2-26.8,40-39.8,60.3c-6.9,10.8-16.7,12.9-26.6,7.8
		c-9.8-5.1-10.9-14.7-5.5-24.5c13.3-24.1,28.2-47.1,45.5-68.4c5.8-7.1,13.4-10.7,22.9-5.8C372.3,702.7,374.9,708.6,375.4,717.6z"/>
</g>
<g>
	<path d="M179.8,588.3c-11.2,0-22.4-2.5-33.4-7.5c-13.1-5.9-23.6-15.1-31.2-27.3c-7.4-11.8-11.2-24.4-11.2-37.5
		c0-15.2,4.8-29.2,14.1-41.6c8.1-10.7,18.6-18.9,31.5-24.5c9.8-4.3,20.1-6.5,30.6-6.5c10,0,19.8,2.2,29,6.6c2.2,1,3.4,1.4,3.9,1.6
		c0.5-0.1,1.2-0.2,2.5-0.5c1.4-0.3,3.1-0.5,4.7-0.5c4.3,0,10.4,1.4,15.8,7.9c7.1,8.5,10.7,19.2,10.7,31.6c0,13.2-6.4,20.2-11.7,23.8
		c-4.3,2.9-9.2,4.3-14.5,4.3c-5,0-9.4-1.2-13-3.7c-3.2-2.2-6-5.6-8.6-10.4c-2.9-5.4-4.5-7.6-5.2-8.5c-1-1.3-2.2-2.4-3.7-3.5
		c-4-2.8-7.9-4.1-12.1-4.1c-3.8,0-5.5,1.4-6.6,2.9c-2,2.5-3.1,6.3-3.1,11.2c0,8.3,2,15.6,6.2,22.5c5,8.2,11.8,12,21.2,12
		c3.6,0,7.3-0.6,10.9-1.8c3.2-1.1,5.6-2.4,7.1-3.8l0.1-0.1c2.7-2.5,6.9-5.9,12.3-5.9c5.2,0,9.8,2.4,13.2,6.8c2.8,3.6,4.3,8.1,4.3,13
		c0,4.9-1.4,10.2-4.1,15.8c-2.7,5.5-6,9.9-10,13.2l-0.1,0.1c-2.6,2.1-6.3,3.6-12,4.7l-0.1,0c-0.6,0.1-2.5,0.6-6.4,2.4
		C201.2,585.9,190.7,588.3,179.8,588.3z"/>
	<path class="st1" d="M180.4,453.5c8.6,0,16.8,1.9,24.8,5.6c3.7,1.8,6.4,2.6,7.8,2.6c1.1,0,2.8-0.3,5.1-0.8c0.8-0.2,1.6-0.3,2.5-0.3
		c3,0,5.7,1.4,8,4.2c5.6,6.8,8.4,15.2,8.4,25.3c0,7.1-2.4,12.3-7.3,15.6c-2.6,1.8-5.6,2.6-8.9,2.6c-3,0-5.4-0.6-7.3-1.9
		c-1.9-1.3-3.7-3.6-5.4-6.9c-2.5-4.6-4.6-8-6.2-10s-3.5-3.9-5.8-5.5c-5.7-4-11.6-6-17.8-6c-6,0-10.8,2.2-14.4,6.5
		c-3.5,4.4-5.3,10.2-5.3,17.5c0,10.1,2.5,19.3,7.6,27.7c6.9,11.2,16.8,16.8,29.7,16.8c4.7,0,9.4-0.8,14.1-2.4s8.3-3.6,10.9-6.2
		c2.2-2.1,4-3.2,5.4-3.2c2.1,0,3.8,1,5.3,2.9c1.5,1.9,2.2,4.2,2.2,6.9c0,3.4-1,7.2-3.1,11.4c-2.1,4.2-4.5,7.5-7.4,9.9
		c-1.2,1-3.8,1.9-7.6,2.6c-2.2,0.4-5.2,1.5-8.9,3.3c-8.7,4.2-17.7,6.2-27.1,6.2c-9.8,0-19.5-2.2-29.3-6.6
		c-11.3-5.1-20.2-12.9-26.8-23.5c-6.4-10.3-9.7-21-9.7-32.2c0-13,4-24.9,12.1-35.6c7-9.3,16.2-16.4,27.5-21.4
		C162.3,455.4,171.2,453.5,180.4,453.5z"/>
	<path d="M272.3,587.7c-10.9,0-19.1-1.1-25-3.4c-12.3-4.7-13.6-13.8-13.6-17.5c0-4.4,1.8-10.7,10.4-15.9c0.4-0.2,0.5-0.4,0.5-0.4
		c0.7-4.2,1.5-14.7,1.5-40.8c0-19.2-1.3-24.3-1.7-25.4c-0.1-0.2-0.6-0.7-1.8-1.4l-0.2-0.1c-3.4-2.3-5.7-4.2-7.2-6.2
		c-2.2-2.8-3.3-6.3-3.3-10.2c0-6,3-11.2,8.4-14.5c3.5-2.2,8.7-3.9,16.2-5.3c7.9-1.6,16-2.4,24.1-2.4c7.3,0,14.3,0.7,20.8,1.9
		c18.1,3.6,20,15.1,20,19.9c0,5.4-2.1,8.7-3.9,10.6c-1.6,1.7-4,3.4-8.2,5.5c-0.1,0.3-0.4,1-0.6,2.1c-0.5,2.7-1.1,9.2-1.1,24.9
		c0,26.3,0.8,35.6,1.3,38.9c0.3,0.1,0.6,0.3,1,0.5c7.3,3.4,11.5,9.4,11.5,16.7c0,4.5-1.8,15.3-18.3,19.4
		C294.6,586.6,284.2,587.7,272.3,587.7z"/>
	<path class="st1" d="M280.5,454.1c6.7,0,13,0.6,18.9,1.8c8,1.6,12,5,12,10.1c0,1.7-0.4,3-1.2,3.8c-0.8,0.9-2.8,2.1-6,3.7
		c-2.7,1.3-4.5,4.3-5.3,8.9c-0.9,4.6-1.3,13.5-1.3,26.7c0,22.4,0.6,36.2,1.7,41.6c0.4,1.7,1,3,1.9,3.9c0.8,0.9,2.3,1.9,4.4,2.9
		c3.9,1.8,5.8,4.3,5.8,7.6c0,4.7-3.6,7.9-10.7,9.7c-7.7,1.9-17.2,2.8-28.4,2.8c-19.1,0-28.7-3.6-28.7-10.9c0-2.6,1.9-5.1,5.6-7.4
		c2.9-1.8,4.6-4.2,5.1-7.2c1.1-6.7,1.7-20.9,1.7-42.5c0-15-0.8-24.6-2.3-28.8c-0.8-2.4-2.8-4.6-5.9-6.5c-2.4-1.6-4-2.9-4.8-4
		c-0.8-1.1-1.2-2.4-1.2-4c0-2.5,1.2-4.5,3.6-6c2.4-1.5,6.7-2.8,12.9-4C265.6,454.8,273,454.1,280.5,454.1z"/>
	<path d="M378.3,587.8c-15.8,0-27.4-1.4-35.6-4.1c-14.1-4.7-15.6-15-15.6-19.1c0-5.9,2.8-10.8,7.8-14l0.3-0.2l0.3-0.1
		c1-0.5,2-1,7-2.6c0.2-1.1,0.6-3,0.9-6c0.4-4.3,0.9-11.6,1.3-21.6c0.3-8,0.5-15.2,0.6-21.5c-2,2.3-3.8,4.1-5.5,5.5
		c-4.8,3.7-9.7,5.5-14.8,5.5c-6.1,0-11.4-2.4-15.4-7c-3.6-4.2-5.5-9.6-5.5-15.6c0-4.8,1-10,3.1-15.5c2-5.2,4.6-10.1,7.9-14.5
		c6.4-8.6,13.5-13,21.2-13c1.9,0,3.9,0.2,6.2,0.8c2.8,0.6,5.1,1,6.8,1.2c1.6,0.2,3.6,0.3,5.8,0.3H401c4.1-0.2,7.8-0.7,11.1-1.6
		l0.2,0c2.6-0.7,5-1,7.2-1c8.4,0,15.9,5.1,22.3,15.2c5.5,8.6,8.3,17.7,8.3,27.1c0,10.4-4.7,16.2-8.6,19.1c-4.1,3.1-9,4.7-14.5,4.7
		c-5.3,0-10.1-1.6-14.1-4.6c-1.9-1.4-3.7-3.2-5.4-5.5v41c0,4.2,0.4,6,0.6,6.6c0.1,0.1,0.4,0.2,0.8,0.4c4.6,2,7.7,3.9,9.8,6.1
		c2,2.1,4.5,5.9,4.5,11.9c0,5-2,14.1-15.2,18.8C401.1,586.6,391.4,587.8,378.3,587.8z"/>
	<path class="st1" d="M354.9,456h46.3c5-0.2,9.5-0.8,13.6-2c1.8-0.5,3.3-0.7,4.7-0.7c4.7,0,9.4,3.5,13.8,10.5s6.7,14.3,6.7,21.7
		c0,5.1-1.6,8.8-4.7,11.2c-2.3,1.8-5.2,2.6-8.4,2.6c-3.1,0-5.8-0.9-8.1-2.6c-2.3-1.7-4.5-4.6-6.8-8.6c-1.9-3.6-3.5-6-4.6-7.1
		c-1.1-1.1-2.5-1.7-4-1.7c-2.2,0-3.7,0.9-4.7,2.7c-0.9,1.8-1.4,4.8-1.4,9v49.2c0,5,0.5,8.7,1.6,11s3,4,6,5.3
		c3.2,1.3,5.3,2.6,6.5,3.8c1.1,1.2,1.7,2.9,1.7,5c0,4.2-2.9,7.4-8.6,9.4c-5.7,2-14.5,3.1-26.3,3.1c-14.5,0-25.3-1.2-32.3-3.6
		c-5.9-2-8.9-5.2-8.9-9.7c0-2.4,1.1-4.3,3.2-5.6c0.5-0.3,2.6-1,6.2-2.1c2.2-0.6,3.8-1.9,4.6-3.7c0.8-1.8,1.5-5.3,2.1-10.5
		c0.5-4.6,0.9-12,1.3-22.2c0.4-10.2,0.6-19.1,0.6-26.6c0-5.3-0.4-9-1.2-11.2c-0.8-2.2-2.2-3.3-4-3.3c-2.3,0-4.5,1.6-6.7,4.9
		c-3.9,6-7.1,9.9-9.7,11.9c-3,2.3-5.9,3.4-8.7,3.4c-3.2,0-5.8-1.2-7.8-3.6c-2.1-2.4-3.1-5.4-3.1-9.1c0-3.6,0.8-7.6,2.5-12
		c1.6-4.4,3.8-8.4,6.6-12.1c4.5-6,8.8-9,13.2-9c1.2,0,2.5,0.2,4,0.5c3.2,0.6,5.8,1.1,7.8,1.3C349.9,455.8,352.3,456,354.9,456z"/>
	<path d="M511,587.7c-10.3,0-20.3-1-29.5-3c-16.9-3.7-18.8-14.6-18.8-19.2c0-3.8,1.3-13,13.3-17.2c0.3-0.1,0.6-0.2,0.8-0.3
		c0.6-2.3,1.6-8.3,1.6-23.4c0-4.8-0.6-6.9-0.8-7.6c-0.3-0.7-1.3-2.9-4.7-7.5c-6.3-8.2-12.9-15.7-19.5-22.2c-2.7-2.6-4.5-3.5-5.3-3.8
		c-6.3-2.3-8.6-3.6-10.2-5c-3.8-3.3-6-8-6-13.2c0-4,1.6-13.8,16.1-18.1c6.9-2,17.5-3,32.5-3c12.2,0,21.5,0.7,28.2,2
		c4.6,0.9,8.5,2.8,11.5,5.6c0.8,0.7,1.5,1.5,2.1,2.3c2-2.6,5-5,9.8-6.8c5.7-2.1,13.4-3.1,23.6-3.1c14.8,0,19.9,1,22.7,1.8
		c3.9,1.2,7.3,3.5,9.8,6.8c2.6,3.4,4,7.3,4,11.4c0,5.3-2,10-5.8,13.1c-2.9,2.4-6.8,4-12.2,5c-1.8,0.4-3.2,1-4.4,1.9
		c-1.1,0.9-4.3,3.7-12.3,12.3c-9.8,10.6-12.5,15.1-13.2,16.5c-0.7,1.5-2,5.3-2,13.9c0,6.5,0.3,12.5,0.7,18c0.1,1.4,0.3,2.4,0.4,2.9
		c0.3,0.2,0.6,0.4,1.1,0.6c10.3,5.3,11.8,13.1,11.8,17.2c0,4.9-2,13.8-15.6,18.4C533.7,586.5,524,587.7,511,587.7z M525.3,479.7
		 M522,475c0.2,0.4,0.5,0.8,0.8,1.2c0.1-0.1,0.2-0.2,0.2-0.3c-0.3-0.3-0.6-0.7-0.9-1.1C522.1,474.9,522,475,522,475z"/>
	<path class="st1" d="M480.5,454.1c11.5,0,20.2,0.6,26.3,1.8c2.8,0.5,5,1.6,6.6,3.1c1.7,1.6,2.5,3.3,2.5,5.3c0,1.5-0.6,3.1-1.9,4.7
		c-1.9,2.4-2.8,4.1-2.8,5.2c0,2.1,1.7,5.5,5,10.1c2.2,3,4.2,4.5,6.2,4.5c1.2,0,2.4-0.5,3.6-1.4c1.2-0.9,2.7-2.5,4.6-4.9
		c2.3-2.9,3.4-5.2,3.4-6.9c0-1.1-0.1-1.8-0.4-2.4s-1.2-1.8-2.9-3.8c-1.2-1.3-1.8-3.2-1.8-5.4c0-6.6,9-9.9,26.9-9.9
		c10.1,0,16.7,0.5,19.8,1.4c1.9,0.6,3.5,1.7,4.8,3.3c1.3,1.6,1.9,3.4,1.9,5.3c0,2.4-0.7,4.2-2.2,5.4c-1.5,1.2-4,2.2-7.6,2.8
		c-3.3,0.6-6.2,1.9-8.7,3.8c-2.5,1.9-7,6.4-13.5,13.4c-8,8.6-12.9,15-14.9,19c-2,4.1-2.9,10.2-2.9,18.2c0,6.8,0.3,13.1,0.8,18.9
		c0.3,3.6,0.8,6.1,1.7,7.4c0.8,1.4,2.5,2.7,5.1,4.1c4.3,2.2,6.4,5,6.4,8.3c0,8-11.8,12-35.3,12c-9.7,0-18.8-0.9-27.4-2.8
		c-7.3-1.6-10.9-4.7-10.9-9.4c0-3.6,2.2-6.2,6.7-7.8c3.3-1.2,5.4-2.7,6.2-4.5c1.9-4,2.8-13.6,2.8-28.7c0-4.7-0.5-8.3-1.4-10.9
		c-0.9-2.6-3-6-6.2-10.2c-6.6-8.6-13.4-16.4-20.5-23.3c-3-3-6-5-8.8-6.1c-4-1.5-6.4-2.5-7.2-3.3c-1.6-1.4-2.5-3.3-2.5-5.6
		c0-3.9,3-6.8,8.9-8.5C456.7,455,466.6,454.1,480.5,454.1z"/>
	<path d="M620.6,587.7c-10.5,0-42.5,0-42.5-21.2c0-5.6,2.4-9.1,4.3-11.1c1.6-1.6,3.9-3.1,7.7-5.1c0.1-2.1,0.3-6.6,0.4-15.8v-46.2
		c0-2.6-0.1-4.4-0.2-5.5c-0.1,0-0.5-0.1-0.5-0.1c-13.7-3.9-15.1-13.6-15.1-17.5c0-6.1,2.8-11.3,8-14.5c3.9-2.5,8.8-3.7,15-3.7
		c1.5,0,5,0.1,10.6,0.3h5.1c12.4-0.1,15.7-0.2,16.6-0.2c0.9,0,4.3-0.3,17.4-1.5c3.7-0.4,7.2-0.6,10.3-0.6c11.2,0,21.4,2.4,30.3,7
		c16.3,8.5,25,22.7,25,41.2c0,15.1-5.9,27.4-17.5,36.6c-10.4,8.1-23,12.3-37.5,12.3c-2.4,0-5.1-0.1-8.1-0.3l0.3,6.9
		c0,0.5,0.1,0.9,0.1,1.1c0.4,0.2,0.9,0.6,1.7,1l0.1,0.1c9.1,4.9,11,11.1,11,15.5c0,4.7-2,13.3-15.1,18
		C641.1,586.5,632.2,587.7,620.6,587.7z M650.1,502.1c0.6-0.2,1-0.5,1.3-0.7c1.3-1.1,2.1-4,2.1-7.9c0-4.3-0.9-7.2-2.7-8.6
		c-0.2-0.1-0.4-0.3-0.6-0.4V502.1z"/>
	<path class="st1" d="M600.5,534.5v-46.2c0-6-0.4-9.8-1.2-11.4c-0.8-1.6-3-2.9-6.7-3.9c-5.3-1.5-7.9-4.2-7.9-7.9
		c0-2.6,1.1-4.7,3.3-6.1c2.2-1.4,5.4-2.1,9.7-2.1c1.4,0,4.9,0.1,10.5,0.3h5.3c9.7-0.1,15.4-0.1,17.1-0.2c1.7-0.1,7.6-0.6,17.9-1.5
		c3.4-0.4,6.5-0.5,9.3-0.5c9.6,0,18.2,2,25.7,5.9c13.1,6.8,19.6,17.6,19.6,32.3c0,12-4.6,21.5-13.7,28.7c-8.6,6.7-19,10.1-31.3,10.1
		c-3.1,0-6.9-0.2-11.4-0.6c-2.4-0.2-3.9-0.3-4.5-0.3c-1.7,0-2.5,1-2.5,2.9v0.5l0.6,14.4c0.1,2.8,0.6,4.9,1.5,6.3
		c0.9,1.4,2.8,2.8,5.6,4.3c3.8,2.1,5.7,4.3,5.7,6.7c0,3.7-2.8,6.5-8.4,8.5s-13.6,3-23.9,3c-21.7,0-32.5-3.7-32.5-11.2
		c0-1.8,0.5-3.1,1.4-4c0.9-0.9,3.1-2.3,6.6-4c2.1-1.1,3.3-2.7,3.7-4.7C600.1,551.8,600.4,545.4,600.5,534.5z M640.1,477.1V507
		c0,2.3,0.5,3.7,1.5,4.1c1.7,0.8,3.8,1.2,6.4,1.2c3.9,0,7.1-1.1,9.8-3.3c3.8-3.1,5.7-8.3,5.7-15.6c0-7.6-2.2-13.1-6.7-16.5
		c-2.8-2.2-6.2-3.3-10.2-3.3C642.3,473.7,640.1,474.9,640.1,477.1z"/>
	<path d="M774.2,588.3c-11.5,0-22.7-2.4-33.2-7.2c-13-5.9-23.3-15-30.7-27c-7.1-11.5-10.7-24.3-10.7-38.2c0-16.1,4.7-30.5,13.8-42.9
		c8.2-11,19.2-19.2,32.9-24.3c9-3.4,19.1-5.2,30-5.2c17.2,0,32.6,5,45.5,15c8.8,6.9,16,15.7,21.4,26.5c5.3,10.8,8,21.7,8,32.6
		c0,16.2-5.4,30.8-16,43.5c-8.9,10.7-20.7,18.4-34.9,23C791.8,586.9,783,588.3,774.2,588.3z M775.8,537.9c1,1.6,2.2,2.8,3.6,3.7
		c1.5,1,2.5,1,2.8,1c1.6,0,2.3-0.4,3-1.3c1.2-1.5,1.8-3.8,1.8-6.9c0-6.1-1-13-3.1-20.3c-2-7.2-4.6-13.4-7.7-18.4
		c-1.5-2.4-3.2-4.3-5-5.6c-1.2-0.9-2.4-1.4-3.4-1.4c-1,0-1.9,0.3-3.1,2.1l-0.1,0.1c-1.1,1.6-1.6,3.6-1.6,6.1c0,5.6,1.2,12.3,3.6,20
		C769.1,524.9,772.1,531.9,775.8,537.9z"/>
	<path class="st1" d="M776.4,453.5c15.1,0,28.2,4.3,39.5,12.9c7.6,5.9,13.8,13.6,18.5,23c4.6,9.4,6.9,18.8,6.9,28.1
		c0,13.8-4.6,26.2-13.7,37.1c-7.7,9.3-17.8,15.9-30.3,20c-7.7,2.5-15.4,3.7-23.1,3.7c-10.1,0-19.8-2.1-29.1-6.3
		c-11.2-5.1-20-12.8-26.3-23.1c-6.2-10-9.2-20.9-9.2-33c0-13.9,4-26.2,11.9-36.9c7-9.5,16.5-16.5,28.4-20.9
		C757.9,455,766.7,453.5,776.4,453.5z M768.1,478.7c-4.9,0-8.8,2.2-11.7,6.6c-2.2,3.3-3.3,7.2-3.3,11.7c0,6.6,1.3,14.3,4,23
		c2.7,8.7,6.1,16.4,10.2,23.2c1.8,2.9,4.1,5.2,6.7,6.9c2.7,1.7,5.4,2.5,8.1,2.5c4.5,0,8-1.7,10.8-5s4.1-7.7,4.1-13.2
		c0-7.1-1.1-14.7-3.4-22.9c-2.3-8.2-5.2-15.2-8.9-21c-2.2-3.6-4.8-6.4-7.7-8.4C774,479.9,771.1,478.8,768.1,478.7z"/>
	<path d="M883.8,587.7c-10.5,0-42.5,0-42.5-21.2c0-5.6,2.4-9.1,4.3-11.1c1.6-1.6,3.9-3.1,7.7-5.1c0.1-2.1,0.3-6.6,0.4-15.8v-46.2
		c0-2.6-0.1-4.4-0.2-5.5c-0.1,0-0.5-0.1-0.5-0.1c-13.7-3.9-15.1-13.6-15.1-17.5c0-6.1,2.8-11.3,8-14.5c3.9-2.5,8.8-3.7,15-3.7
		c1.5,0,5,0.1,10.6,0.3h5.1c12.4-0.1,15.7-0.2,16.6-0.2c0.9,0,4.3-0.3,17.4-1.5c3.7-0.4,7.2-0.6,10.3-0.6c11.2,0,21.4,2.4,30.3,7
		c16.3,8.5,25,22.7,25,41.2c0,15.1-5.9,27.4-17.5,36.6c-10.4,8.1-23,12.3-37.5,12.3c-2.4,0-5.1-0.1-8.1-0.3l0.3,6.9
		c0,0.5,0.1,0.9,0.1,1.1c0.4,0.2,0.9,0.6,1.7,1l0.1,0.1c9.1,4.9,11,11.1,11,15.5c0,4.7-2,13.3-15.1,18
		C904.3,586.5,895.4,587.7,883.8,587.7z M913.3,502.1c0.6-0.2,1-0.5,1.3-0.7c1.3-1.1,2.1-4,2.1-7.9c0-4.3-0.9-7.2-2.7-8.6
		c-0.2-0.1-0.4-0.3-0.6-0.4V502.1z"/>
	<path class="st1" d="M863.7,534.5v-46.2c0-6-0.4-9.8-1.2-11.4c-0.8-1.6-3-2.9-6.7-3.9c-5.3-1.5-7.9-4.2-7.9-7.9
		c0-2.6,1.1-4.7,3.3-6.1c2.2-1.4,5.4-2.1,9.7-2.1c1.4,0,4.9,0.1,10.5,0.3h5.3c9.7-0.1,15.4-0.1,17.1-0.2s7.6-0.6,17.9-1.5
		c3.4-0.4,6.5-0.5,9.3-0.5c9.6,0,18.2,2,25.7,5.9c13.1,6.8,19.6,17.6,19.6,32.3c0,12-4.6,21.5-13.7,28.7c-8.6,6.7-19,10.1-31.3,10.1
		c-3.1,0-6.9-0.2-11.4-0.6c-2.4-0.2-3.9-0.3-4.5-0.3c-1.7,0-2.5,1-2.5,2.9v0.5l0.6,14.4c0.1,2.8,0.6,4.9,1.5,6.3
		c0.9,1.4,2.8,2.8,5.6,4.3c3.8,2.1,5.7,4.3,5.7,6.7c0,3.7-2.8,6.5-8.4,8.5s-13.6,3-23.9,3c-21.7,0-32.5-3.7-32.5-11.2
		c0-1.8,0.5-3.1,1.4-4c0.9-0.9,3.1-2.3,6.6-4c2.1-1.1,3.3-2.7,3.7-4.7C863.3,551.8,863.6,545.4,863.7,534.5z M903.3,477.1V507
		c0,2.3,0.5,3.7,1.5,4.1c1.7,0.8,3.8,1.2,6.4,1.2c3.9,0,7.1-1.1,9.8-3.3c3.8-3.1,5.7-8.3,5.7-15.6c0-7.6-2.2-13.1-6.7-16.5
		c-2.8-2.2-6.2-3.3-10.2-3.3C905.5,473.7,903.3,474.9,903.3,477.1z"/>
</g>
<g>
	<path class="st2" d="M771.6,429c-12.4,0-22.8-8.1-25.7-20.2c-0.7-2.9-1.9-4.8-4.4-6.6c-12.1-8.6-12.3-25.9-0.4-35
		c2.1-1.6,3.4-3.2,4.4-5.7c6.8-18.2,29.4-23.8,43.8-10.9c2.3,2.1,4.4,2.9,7.4,3c12.6,0.3,22.8,10,24,22.3
		c1.2,12.6-7.2,24.5-19.4,27.1c-2.8,0.6-3.2,1.9-3.6,4.3C795.5,420,784.5,429,771.6,429z M782.3,385.9c0.8,1,1.6,1.9,2.4,2.9
		c7.1,9.1,20.7,8,26-2.3c3.1-5.9,2.8-11.9-0.9-17.4c-3.8-5.6-9.2-8.1-15.8-7.1c-3.4,0.5-5.8-0.1-8.1-3.1c-4.8-6.2-11.7-8.1-19.2-6.4
		c-7.4,1.7-12.4,6.5-14.1,13.9c-0.8,3.3-2.4,5-5.2,6.6c-4.8,2.6-7,7-6.7,12.4c0.3,5.5,2.8,9.7,7.9,11.6c3.5,1.4,4.6,3.4,4.8,7
		c0.5,9,7.9,16.2,16.7,16.8c9.1,0.7,17.5-5.3,19.6-14.2c0.6-2.6,0.7-4.8-2.1-6.8C783.1,396.6,781.6,391.7,782.3,385.9z"/>
	<path class="st2" d="M728.7,413.6c1.9,0.2,3.2,0.5,3.7,2.1c0.4,1.6,0.3,3.3-1.1,4c-12.4,6.4-16.7,18.6-22.3,30
		c-0.7,1.5-1.1,3.3-3.2,3.4c-3.1,0.3-4.8-1.5-3.8-4.2c5.1-13,10.8-25.7,23.1-33.9C726.3,414.3,727.8,413.9,728.7,413.6z"/>
	<path class="st2" d="M734.9,437.2c-0.3,0.6-0.7,1.5-1.3,2.3c-2.5,3.9-5.2,7.7-7.7,11.6c-1.3,2.1-3.2,2.5-5.1,1.5
		c-1.9-1-2.1-2.8-1.1-4.7c2.6-4.6,5.4-9.1,8.8-13.2c1.1-1.4,2.6-2.1,4.4-1.1C734.3,434.4,734.8,435.5,734.9,437.2z"/>
	<path class="st3" d="M782.3,385.9c-0.7,5.8,0.8,10.8,5.3,13.9c2.8,2,2.7,4.2,2.1,6.8c-2.1,8.9-10.5,14.9-19.6,14.2
		c-8.9-0.7-16.2-7.8-16.7-16.8c-0.2-3.6-1.3-5.7-4.8-7c-5.1-2-7.6-6.2-7.9-11.6c-0.3-5.5,2-9.8,6.7-12.4c2.8-1.5,4.4-3.3,5.2-6.6
		c1.8-7.4,6.7-12.3,14.1-13.9c7.5-1.7,14.4,0.2,19.2,6.4c2.3,3,4.6,3.6,8.1,3.1c6.7-0.9,12.1,1.6,15.8,7.1
		c3.7,5.5,4.1,11.5,0.9,17.4c-5.4,10.2-18.9,11.4-26,2.3C783.9,387.8,783.1,386.9,782.3,385.9z"/>
</g>
<rect x="688.3" y="602.4" class="st4" width="306.2" height="22.6"/>
<text transform="matrix(1 0 0 1 688.2992 624.4536)" class="st5 st6">GOURMET POPCORN</text>
</svg>
