<?xml version="1.0" encoding="utf-8"?>
<!-- Generator: Adobe Illustrator 26.0.0, SVG Export Plug-In . SVG Version: 6.00 Build 0)  -->
<svg version="1.1" id="Capa_1" xmlns="http://www.w3.org/2000/svg" xmlns:xlink="http://www.w3.org/1999/xlink" x="0px" y="0px"
	 viewBox="0 0 1080 1080" style="enable-background:new 0 0 1080 1080;" xml:space="preserve">
<style type="text/css">
	.st0{fill:#FCFCCC;}
	.st1{fill:#3D1A15;}
	.st2{fill:#FE891E;}
</style>
<g>
	<path class="st0" d="M769.9,0.1c32.2,0,64.3,0,96.5,0c-0.7,11.5-6.9,20-15,27.2c-10.9,9.7-22.5,11-34.1,4.5
		c-7.2-4.1-13.1-9.4-16.2-17.3c-0.6-1.6-1.9-3.1-3.8-2.4c-2,0.8-1.4,2.6-1.1,4.3c0.5,3.6,3.6,5.8,4.8,9c-5.8,2.2-11.3,1.6-16.6-0.7
		C775.2,20.7,766.4,9,769.9,0.1z"/>
	<path class="st1" d="M769.9,0.1c-3.5,8.9,5.3,20.7,14.5,24.6c5.3,2.3,10.8,2.9,16.6,0.7c-1.1-3.2-4.3-5.4-4.8-9
		c-0.3-1.7-0.9-3.6,1.1-4.3c1.9-0.7,3.2,0.8,3.8,2.4c3.1,8,9,13.3,16.2,17.3c11.6,6.6,23.2,5.2,34.1-4.5c8.1-7.2,14.3-15.8,15-27.2
		c2.5,0,4.9,0,7.4,0C871,20.8,857,37.7,838.9,41.6c-9.4,2-18.3,1-25.9-5.6c-4.1-3.5-7.9-5-14-3.3c-18.4,5.2-38.5-12.8-35.6-29.4
		c0.2-1,0-2.1,0-3.2C765.6,0.1,767.7,0.1,769.9,0.1z"/>
	<rect x="0.6" y="0.7" class="st2" width="1079.3" height="1079.3"/>
</g>
<g>
	<path class="st1" d="M0,68c3.4,2.8,5.1,6.5,5.3,10.7c0.1,3,1.4,4.4,3.9,5.9c14.2,8.3,18.7,30.9,7,41.5C9.9,132,4,137.6,0,145.2
		c0-6.4,0-12.9,0-19.3c6.5,0,10.7-4,14-8.9c3.8-5.6,2.2-11.5-0.7-16.9c-2.8-5.3-6.9-9-13.3-9.2C0,83.3,0,75.6,0,68z"/>
	<path class="st0" d="M0,91c6.4,0.2,10.6,3.9,13.3,9.2c2.8,5.4,4.4,11.3,0.7,16.9c-3.3,4.9-7.5,8.8-14,8.9C0,114.2,0,102.6,0,91z"/>
</g>
<g>
	<path class="st1" d="M746.9,1079.2c4.5-4,9.9-5.3,15.7-5.3c2.6,0,4-0.8,4.7-3.2c0.4-1.1,0.9-2.3,1.6-3.3
		c4.3-6.9,9.7-12.5,18.5-12.1c9.2,0.4,15.1,6.2,19,13.8c1.7,3.2,3.4,4.9,6.8,5.6c2.9,0.6,5.3,2.2,7.2,4.6c-6.4,0-12.9,0-19.3,0
		c-0.1-7.3-3.3-12.8-8.6-14.7c-10.2-3.6-18.5,2.8-18.9,14.7C764.7,1079.2,755.8,1079.2,746.9,1079.2z"/>
	<path class="st0" d="M773.6,1079.2c0.4-11.9,8.8-18.3,18.9-14.7c5.3,1.9,8.5,7.3,8.6,14.7C792,1079.2,782.8,1079.2,773.6,1079.2z"
		/>
</g>
<g>
	<path class="st0" d="M1078.7,265.7c0,13.5,0,27,0,40.4c-8.7-5.1-11.4-12.6-7.7-21.6c0.2-0.4,0.3-0.9,0.5-1.3
		c0.6-1.2,0.8-2.4-0.6-3.2c-1.8-1.1-2.6,0.5-3.2,1.6c-1.4,2.4-2.2,5.1-2,7.9c0.3,4.1-1.9,5.1-5.4,4.6c-1.5-0.2-3-0.4-4.5-0.8
		c-5.9-1.6-7.2-5.9-3.1-10.4c1.8-1.9,3.5-3.9,4.6-6.2c0.6-1.1,0.8-2.4-0.6-3.2c-1.2-0.8-2.1,0.1-2.8,0.8c-0.8,0.7-1.5,1.5-2,2.4
		c-7.2,13.4-25.2,14.6-34,2.2c-4.6-6.4-1.5-19.9,5.4-23.7c1.9-1,5.1-2,3.5-4.6c-1.5-2.3-3.7,0.4-5.4,1.3c-3.2,1.8-5.5,0.9-6.1-2.6
		c-0.6-3.4-0.5-6.7,1.1-9.9c1-2,1.7-3.3,4.2-0.9c4,3.7,8.7,6.1,14.5,3.9c-2.4-3.3-2.4-3.6-6.9-3.3c-2.9,0.2-4.6-0.8-5.6-3.4
		c-1-2.5-2.4-5-3.2-7.6c-3.7-11.5,3.9-22.5,15.8-22.9c2.4-0.1,5.2-0.5,7.1,1.2c1.5,1.4-1.1,3.3-0.6,5.1c0,0.1-0.1,0.3-0.1,0.5
		c0.1,1.4,0.1,2.9,1.8,3.3c1.8,0.4,2.8-0.6,3.5-2.2c0.8-1.8,1.4-3.7,2.5-5.4c7-10.3,17.3-14.4,29.2-15.5c0,23.3,0,46.6,0,69.9
		c-8.3-0.9-15.1-5.2-21.8-9.6c-7.1-4.7-7.9-13.5-12.7-20.4C1041.3,248.6,1062.7,263.3,1078.7,265.7z"/>
	<path class="st1" d="M1078.7,192.2c-11.9,1-22.2,5.1-29.2,15.5c-1.1,1.6-1.7,3.5-2.5,5.4c-0.7,1.6-1.7,2.6-3.5,2.2
		c-1.7-0.4-1.7-1.9-1.8-3.3c0-0.1,0.1-0.3,0.1-0.5c-0.5-1.8,2.1-3.7,0.6-5.1c-1.9-1.6-4.6-1.3-7.1-1.2
		c-11.9,0.4-19.5,11.4-15.8,22.9c0.8,2.6,2.2,5,3.2,7.6c1.1,2.6,2.7,3.6,5.6,3.4c4.5-0.3,4.5,0,6.9,3.3c-5.8,2.1-10.6-0.2-14.5-3.9
		c-2.5-2.3-3.2-1-4.2,0.9c-1.6,3.1-1.7,6.5-1.1,9.9c0.6,3.6,2.9,4.4,6.1,2.6c1.7-1,3.9-3.6,5.4-1.3c1.7,2.6-1.6,3.6-3.5,4.6
		c-6.9,3.9-10,17.3-5.4,23.7c8.8,12.4,26.8,11.2,34-2.2c0.5-0.9,1.2-1.7,2-2.4c0.8-0.7,1.6-1.5,2.8-0.8c1.4,0.9,1.1,2.1,0.6,3.2
		c-1.2,2.3-2.9,4.3-4.6,6.2c-4.1,4.5-2.8,8.7,3.1,10.4c1.5,0.4,3,0.7,4.5,0.8c3.5,0.4,5.6-0.5,5.4-4.6c-0.2-2.8,0.6-5.5,2-7.9
		c0.6-1,1.4-2.7,3.2-1.6c1.3,0.8,1.2,2,0.6,3.2c-0.2,0.4-0.3,0.9-0.5,1.3c-3.7,9-1.1,16.6,7.7,21.6c0,2.5,0,4.9,0,7.4
		c-5.2-0.9-8.5-4.6-11.8-8.3c-2.1-2.4-4.2-3.9-7.7-3.9c-4.7,0-8.9-2.2-12.3-5.5c-1.7-1.6-3.2-1.8-5.3-1.4
		c-16.6,3.2-32.5-7.7-32.9-24.4c-0.2-8.8,1.3-17.6-0.3-26.5c-0.7-3.7,0.6-8.3,4-11.3c1.4-1.2,0.6-2.6,0.2-3.8
		c-5.1-15.1,9.7-34.4,30.2-29.2c1.6,0.4,3.2,1.2,4.7-0.3c8.8-8.3,19.6-12.2,31.2-14.1C1078.7,187.3,1078.7,189.7,1078.7,192.2z"/>
	<path class="st1" d="M1078.7,265.7c-16-2.4-37.4-17.1-34.6-33.7c4.8,7,5.6,15.8,12.7,20.4c6.8,4.4,13.6,8.7,21.8,9.6
		C1078.7,263.3,1078.7,264.5,1078.7,265.7z"/>
</g>
<g>
	<path class="st0" d="M121.9,5.4c13.5,0,27,0,40.4,0c-5.1,8.7-12.6,11.4-21.6,7.7c-0.4-0.2-0.9-0.3-1.3-0.5
		c-1.2-0.6-2.4-0.8-3.2,0.6c-1.1,1.8,0.5,2.6,1.6,3.2c2.4,1.4,5.1,2.2,7.9,2c4.1-0.3,5.1,1.9,4.6,5.4c-0.2,1.5-0.4,3-0.8,4.5
		c-1.6,5.9-5.9,7.2-10.4,3.1c-1.9-1.8-3.9-3.5-6.2-4.6c-1.1-0.6-2.4-0.8-3.2,0.6c-0.8,1.2,0.1,2.1,0.8,2.8c0.7,0.8,1.5,1.5,2.4,2
		c13.4,7.2,14.6,25.2,2.2,34c-6.4,4.6-19.9,1.5-23.7-5.4c-1-1.9-2-5.1-4.6-3.5c-2.3,1.5,0.4,3.7,1.3,5.4c1.8,3.2,0.9,5.5-2.6,6.1
		c-3.4,0.6-6.7,0.5-9.9-1.1c-2-1-3.3-1.7-0.9-4.2c3.7-4,6.1-8.7,3.9-14.5c-3.3,2.4-3.6,2.4-3.3,6.9c0.2,2.9-0.8,4.6-3.4,5.6
		c-2.5,1-5,2.4-7.6,3.2c-11.5,3.7-22.5-3.9-22.9-15.8c-0.1-2.4-0.5-5.2,1.2-7.1c1.4-1.5,3.3,1.1,5.1,0.6c0.1,0,0.3,0.1,0.5,0.1
		c1.4-0.1,2.9-0.1,3.3-1.8c0.4-1.8-0.6-2.8-2.2-3.5c-1.8-0.8-3.7-1.4-5.4-2.5c-10.3-7-14.4-17.3-15.5-29.2c23.3,0,46.6,0,69.9,0
		c-0.9,8.3-5.2,15.1-9.6,21.8c-4.7,7.1-13.5,7.9-20.4,12.7C104.8,42.9,119.4,21.4,121.9,5.4z"/>
	<path class="st1" d="M48.3,5.4c1,11.9,5.1,22.2,15.5,29.2c1.6,1.1,3.5,1.7,5.4,2.5c1.6,0.7,2.6,1.7,2.2,3.5
		c-0.4,1.7-1.9,1.7-3.3,1.8c-0.1,0-0.3-0.1-0.5-0.1c-1.8,0.5-3.7-2.1-5.1-0.6c-1.6,1.9-1.3,4.6-1.2,7.1
		c0.4,11.9,11.4,19.5,22.9,15.8c2.6-0.8,5-2.2,7.6-3.2c2.6-1.1,3.6-2.7,3.4-5.6c-0.3-4.5,0-4.5,3.3-6.9c2.1,5.8-0.2,10.6-3.9,14.5
		c-2.3,2.5-1,3.2,0.9,4.2c3.1,1.6,6.5,1.7,9.9,1.1c3.6-0.6,4.4-2.9,2.6-6.1c-1-1.7-3.6-3.9-1.3-5.4c2.6-1.7,3.6,1.6,4.6,3.5
		c3.9,6.9,17.3,10,23.7,5.4c12.4-8.8,11.2-26.8-2.2-34c-0.9-0.5-1.7-1.2-2.4-2c-0.7-0.8-1.5-1.6-0.8-2.8c0.9-1.4,2.1-1.1,3.2-0.6
		c2.3,1.2,4.3,2.9,6.2,4.6c4.5,4.1,8.7,2.8,10.4-3.1c0.4-1.5,0.7-3,0.8-4.5c0.4-3.5-0.5-5.6-4.6-5.4c-2.8,0.2-5.5-0.6-7.9-2
		c-1-0.6-2.7-1.4-1.6-3.2c0.8-1.3,2-1.2,3.2-0.6c0.4,0.2,0.9,0.3,1.3,0.5c9,3.7,16.6,1.1,21.6-7.7c2.5,0,4.9,0,7.4,0
		c-0.9,5.2-4.6,8.5-8.3,11.8c-2.4,2.1-3.9,4.2-3.9,7.7c0,4.7-2.2,8.9-5.5,12.3c-1.6,1.7-1.8,3.2-1.4,5.3
		c3.2,16.6-7.7,32.5-24.4,32.9c-8.8,0.2-17.6-1.3-26.5,0.3c-3.7,0.7-8.3-0.6-11.3-4c-1.2-1.4-2.6-0.6-3.8-0.2
		c-15.1,5.1-34.4-9.7-29.2-30.2c0.4-1.6,1.2-3.2-0.3-4.7C46.8,27.9,42.9,17.1,41,5.4C43.4,5.4,45.9,5.4,48.3,5.4z"/>
	<path class="st1" d="M121.9,5.4c-2.4,16-17.1,37.4-33.7,34.6c7-4.8,15.8-5.6,20.4-12.7c4.4-6.8,8.7-13.6,9.6-21.8
		C119.4,5.4,120.6,5.4,121.9,5.4z"/>
</g>
<g>
	<path class="st1" d="M623.3,1.9c-2.4,2.3-5.6,2.6-8.5,2.5c-3.6-0.1-6.1,1.6-8.3,3.9c-4.4,4.7-9.9,5.6-15.8,4.7
		c-2.3-0.3-4-0.3-6.1,1.3c-7.5,5.7-18.1,5.2-26.3,0.6c-5.5-3.1-8.8-7.1-10.2-13c2.5,0,4.9,0,7.4,0c-0.1,2.5,1.4,4.4,2.9,5.7
		c8.1,7.7,22.9,4.6,28.4-5.7c1.5,0,3.1,0,4.6,0c0.3,1.2-2.4,2.6,0.4,3.6c3.6,1.3,9.7-0.4,12.5-3.6C610.5,1.9,616.9,1.9,623.3,1.9z"
		/>
	<path class="st0" d="M586.6,1.9c-5.5,10.4-20.3,13.5-28.4,5.7c-1.4-1.4-3-3.3-2.9-5.7C565.7,1.9,576.1,1.9,586.6,1.9z"/>
	<path class="st0" d="M604,1.9c-2.8,3.2-8.9,4.9-12.5,3.6c-2.7-1-0.1-2.4-0.4-3.6C595.4,1.9,599.7,1.9,604,1.9z"/>
</g>
<g>
	<path class="st0" d="M116.4,1080c-30.6,0-61.3,0-91.9,0c-3.1-2.2-6.3-4.2-7-8.4c-1.1-6.8-0.6-13.3,4.5-18.4
		c5.5-5.4,12.3-6.1,19.5-3.9c2.9,0.9,6.2,1.8,2.7,6c-1.2,1.5-1,3.7,0.6,5c2,1.7,2.9-0.5,3.9-1.6c2.3-2.5,4.9-4.6,7.9-6.1
		C83.6,1038.9,112,1059.6,116.4,1080z"/>
	<path class="st1" d="M116.4,1080c-4.4-20.4-32.8-41.1-59.8-27.5c-3.1,1.5-5.6,3.6-7.9,6.1c-1,1.1-1.9,3.3-3.9,1.6
		c-1.6-1.3-1.9-3.5-0.6-5c3.5-4.2,0.1-5.1-2.7-6c-7.2-2.2-14-1.5-19.5,3.9c-5.1,5.1-5.6,11.6-4.5,18.4c0.7,4.1,3.9,6.2,7,8.4
		c-2.1,0-4.3,0-6.4,0c-0.5-0.6-0.9-1.2-1.3-1.8c-3.5-5.1-4.3-5.1-7.9,0.2c-0.3,0.5-0.6,1.1-0.8,1.6c-2.5,0-4.9,0-7.4,0
		c0.9-5,3.5-9.1,7.7-12c1.3-0.9,2.3-1.7,2.3-3.6c-0.6-20.1,20.8-27.5,35.1-20.4c4.4,2.2,7.9,2.3,12.6,0.7
		c23.8-8.4,44.5-1.3,59.4,20.3c3,4.4,5,9.4,5.2,15C120.7,1080,118.6,1080,116.4,1080z"/>
	<path class="st0" d="M8,1080c0.3-0.5,0.5-1.1,0.8-1.6c3.6-5.3,4.4-5.3,7.9-0.2c0.4,0.6,0.9,1.2,1.3,1.8C14.7,1080,11.3,1080,8,1080
		z"/>
</g>
<g>
	<path class="st0" d="M258.3,1075.5c-8.6,0-17.2,0-25.7,0c0.4-1.2,1.7-2.8-0.3-3.3c-2.5-0.6-4.5,0.6-5.3,3.3c-1.2,0-2.5,0-3.7,0
		c-3.1-4.5-3.5-9.2-1-14.1c1.2-2.4,2.3-4,4.7-0.5c3,4.3,7.6,5,13,2.9c-0.4-1.5-1.4-2.5-3-2.2c-3.7,0.7-6.1-1.5-8.1-3.9
		c-4.9-6.2-6.8-13.1-3.2-20.5c3.6-7.4,9.9-10.2,18.1-9.4c3.4,0.3,6,0.4,3.7,4.8c-0.9,1.8-0.6,3.7,1.6,4.5c2.1,0.7,3-0.9,3.7-2.5
		c7-17.3,21.9-21.6,37.3-20.9c22,0.9,34.6,14.5,36.3,36.2c-0.2,0.6-0.4,1.2-0.6,1.8c-1.5,8-4.8,15.1-11,20.6c-1,0.9-2.3,1.7-2.2,3.3
		c-16.5,0-33.1,0-49.6,0c-4.8-5.6-9.7-11.2-11.2-18.9c-0.1-0.7-0.8-1.8-2-1.4c-0.8,0.3-0.8,1.2-0.9,1.9c-0.1,1.7,0.4,3.3,1.1,4.8
		C252.3,1066.8,254.6,1071.6,258.3,1075.5z"/>
	<path class="st1" d="M326.4,1049.9c-1.7-21.7-14.3-35.3-36.3-36.2c-15.4-0.6-30.3,3.7-37.3,20.9c-0.7,1.6-1.6,3.2-3.7,2.5
		c-2.2-0.8-2.5-2.7-1.6-4.5c2.3-4.4-0.3-4.5-3.7-4.8c-8.2-0.7-14.5,2-18.1,9.4c-3.6,7.4-1.6,14.3,3.2,20.5c2,2.5,4.3,4.6,8.1,3.9
		c1.5-0.3,2.5,0.7,3,2.2c-5.4,2.1-9.9,1.4-13-2.9c-2.4-3.5-3.5-1.9-4.7,0.5c-2.5,4.9-2.1,9.6,1,14.1c-2.8,0-5.5,0-8.3,0
		c-1.9-7.5-2.1-14.9,2.9-21.5c1.1-1.5,0.5-2.8,0.2-4.3c-1.5-8.2-0.5-15.8,5.9-22c7-6.7,15.3-7.7,24.2-5.8c2.3,0.5,3.7,0.4,5.6-1.3
		c8.4-7.5,18.1-12,29.5-13.3c17.1-1.8,30.8,5.5,41.9,16.9c7.9,8.1,11.3,19.3,6.1,30.7c-2.8,6.1-3.2,11.1,1.2,16.2
		c1,1.2,1.5,2.7,1,4.3c-2.1,0-4.3,0-6.4,0c-3.2-5.4-3.2-5.4-7.1-0.4c-0.1,0.1-0.1,0.3-0.2,0.4c-2.5,0-4.9,0-7.4,0
		c0-1.6,1.3-2.4,2.2-3.3c6.2-5.5,9.5-12.6,11-20.6c0.8,0.5,2,1.1,2.4,0.2c1.3-2.8,2.4-5.7,3.6-8.6
		C328.7,1044.8,329.7,1048.8,326.4,1049.9z"/>
	<path class="st1" d="M258.3,1075.5c-3.7-3.9-6-8.7-8.4-13.5c-0.8-1.5-1.3-3.1-1.1-4.8c0.1-0.8,0.1-1.6,0.9-1.9
		c1.2-0.4,1.9,0.6,2,1.4c1.5,7.6,6.4,13.2,11.2,18.9C261.4,1075.5,259.8,1075.5,258.3,1075.5z"/>
	<path class="st1" d="M227,1075.5c0.8-2.7,2.8-3.9,5.3-3.3c2,0.5,0.6,2.1,0.3,3.3C230.7,1075.5,228.9,1075.5,227,1075.5z"/>
</g>
<g>
	<path class="st0" d="M1077.6,648.3c0-8.6,0-17.2,0-25.7c-1.2,0.4-2.8,1.7-3.3-0.3c-0.6-2.5,0.6-4.5,3.3-5.3c0-1.2,0-2.5,0-3.7
		c-4.5-3.1-9.2-3.5-14.1-1c-2.4,1.2-4,2.3-0.5,4.7c4.3,3,5,7.6,2.9,13c-1.5-0.4-2.5-1.4-2.2-3c0.7-3.7-1.5-6.1-3.9-8.1
		c-6.2-4.9-13.1-6.8-20.5-3.2c-7.4,3.6-10.2,9.9-9.4,18.1c0.3,3.4,0.4,6,4.8,3.7c1.8-0.9,3.7-0.6,4.5,1.6c0.7,2.1-0.9,3-2.5,3.7
		c-17.3,7-21.6,21.9-20.9,37.3c0.9,22,14.5,34.6,36.2,36.3c0.6-0.2,1.2-0.4,1.8-0.6c8-1.5,15.1-4.8,20.6-11c0.9-1,1.7-2.3,3.3-2.2
		c0-16.5,0-33.1,0-49.6c-5.6-4.8-11.2-9.7-18.9-11.2c-0.7-0.1-1.8-0.8-1.4-2c0.3-0.8,1.2-0.8,1.9-0.9c1.7-0.1,3.3,0.4,4.8,1.1
		C1068.9,642.3,1073.7,644.7,1077.6,648.3z"/>
	<path class="st1" d="M1052,716.5c-21.7-1.7-35.3-14.3-36.2-36.3c-0.6-15.4,3.7-30.3,20.9-37.3c1.6-0.7,3.2-1.6,2.5-3.7
		c-0.8-2.2-2.7-2.5-4.5-1.6c-4.4,2.3-4.5-0.3-4.8-3.7c-0.7-8.2,2-14.5,9.4-18.1c7.4-3.6,14.3-1.6,20.5,3.2c2.5,2,4.6,4.3,3.9,8.1
		c-0.3,1.5,0.7,2.5,2.2,3c2.1-5.4,1.4-9.9-2.9-13c-3.5-2.4-1.9-3.5,0.5-4.7c4.9-2.5,9.6-2.1,14.1,1c0-2.8,0-5.5,0-8.3
		c-7.5-1.9-14.9-2.1-21.5,2.9c-1.5,1.1-2.8,0.5-4.3,0.2c-8.2-1.5-15.8-0.5-22,5.9c-6.7,7-7.7,15.3-5.8,24.2c0.5,2.3,0.4,3.7-1.3,5.6
		c-7.5,8.4-12,18.1-13.3,29.5c-1.8,17.1,5.5,30.8,16.9,41.9c8.1,7.9,19.3,11.3,30.7,6.1c6.1-2.8,11.1-3.2,16.2,1.2
		c1.2,1,2.7,1.5,4.3,1c0-2.1,0-4.3,0-6.4c-5.4-3.2-5.4-3.2-0.4-7.1c0.1-0.1,0.3-0.1,0.4-0.2c0-2.5,0-4.9,0-7.4
		c-1.6,0-2.4,1.3-3.3,2.2c-5.5,6.2-12.6,9.5-20.6,11c0.5,0.8,1.1,2,0.2,2.4c-2.8,1.3-5.7,2.4-8.6,3.6
		C1046.9,718.8,1050.9,719.8,1052,716.5z"/>
	<path class="st1" d="M1077.6,648.3c-3.9-3.7-8.7-6-13.5-8.4c-1.5-0.8-3.1-1.3-4.8-1.1c-0.8,0.1-1.6,0.1-1.9,0.9
		c-0.4,1.2,0.6,1.9,1.4,2c7.6,1.5,13.2,6.4,18.9,11.2C1077.6,651.4,1077.6,649.9,1077.6,648.3z"/>
	<path class="st1" d="M1077.6,617.1c-2.7,0.8-3.9,2.8-3.3,5.3c0.5,2,2.1,0.6,3.3,0.3C1077.6,620.8,1077.6,618.9,1077.6,617.1z"/>
</g>
<g>
	<path class="st0" d="M0,321.1c0-28.2,0-56.4,0-84.6c3.6-1.4,5.9-4.6,9-6.7c8.4-5.8,20.4-6.8,29.9-1c8.8,5.3,14.2,13.2,17.6,22.7
		c0.5,1.3,0.3,4.4,3.2,3.2c2.4-0.9,2.2-3.3,1.7-5.2c-0.7-2.7-1.9-5.4-2.9-8.1c9.5-1.7,16.1,2.8,21.7,9.1c4.7,5.3,6.7,11.8,5,18.9
		c-0.6,2.6-1.5,5.4-5.4,4.4c-1.8-0.5-4.2-0.7-4.4,1.6c-0.2,2.1,2.4,2,4,2.1c4.6,0.3,8.6,2,12,5c4.4,3.8,5.6,9,3.6,14.6
		c-1.9,5.2-7.1,8.9-12.4,9.1c-6,0.3-10.1-2.9-13.8-7c-1-1.1-2.3-2.5-3.8-1c-1.6,1.6,0.1,2.8,1.1,3.8c2,2.1,4,4.3,6.6,5.6
		c1.5,0.7,2.1,1.7,1.6,3.3c-1.3,3.9-3.2,7.2-7.7,8.4c-3.4,0.9-5.6,0.2-6.5-3.6c-0.5-2.1-1.4-4.1-2.3-5.9c-0.8-1.6-2.2-3.5-4.3-2.4
		c-2.5,1.4-0.7,3.3,0.3,4.6c4.3,5.8,4.5,12.3,3,18.8c-2.7,11.1-16.5,16.7-26.3,10.9c-5.5-3.3-8.5-7.9-8.9-14.4
		c-0.1-1.4-0.2-4.1-2.4-3.6c-2.3,0.5-1.6,2.5-1,4.4c1.1,3.4-0.5,5.3-4.1,5.3c-4.2,0-7.1-2.3-9.5-5.6c-1.4-1.9-1.4-3,1.1-3.9
		c3.7-1.2,6.9-3.2,8.8-6.7c0.7-1.3,2.5-3.2,0.7-4.4c-1.6-1.1-3.1,0.8-4,2.2C8.4,318.9,4.9,321.4,0,321.1z M20.5,304.1
		c18.1,0.4,36.5-15.5,39.9-29.4c0.5-2,2.8-5.5,0.1-6.3c-2.4-0.7-3.1,3.1-3.9,5.4C52,288.3,41.3,296,27.4,300.1
		c-4.2,1.2-8.4,0.9-12.7-0.2c-1.2-0.3-2.7-0.4-3.2,1c-0.5,1.5,1.2,1.9,2.2,2.4C15.8,304.2,18.2,304,20.5,304.1z"/>
	<path class="st1" d="M0,321.1c4.9,0.2,8.4-2.2,11.1-6.1c1-1.4,2.4-3.2,4-2.2c1.8,1.2,0,3.1-0.7,4.4c-1.9,3.5-5.1,5.5-8.8,6.7
		c-2.5,0.8-2.5,2-1.1,3.9c2.4,3.3,5.3,5.6,9.5,5.6c3.6,0,5.2-1.9,4.1-5.3c-0.6-1.9-1.3-4,1-4.4c2.2-0.5,2.3,2.2,2.4,3.6
		c0.4,6.5,3.4,11.1,8.9,14.4c9.7,5.8,23.6,0.2,26.3-10.9c1.6-6.6,1.4-13-3-18.8c-1-1.3-2.8-3.2-0.3-4.6c2.1-1.1,3.4,0.7,4.3,2.4
		c1,1.9,1.8,3.9,2.3,5.9c0.9,3.7,3.1,4.4,6.5,3.6c4.4-1.1,6.4-4.4,7.7-8.4c0.5-1.6-0.1-2.5-1.6-3.3c-2.7-1.3-4.6-3.5-6.6-5.6
		c-1-1-2.6-2.3-1.1-3.8c1.5-1.5,2.8-0.1,3.8,1c3.8,4,7.9,7.2,13.8,7c5.3-0.2,10.5-3.9,12.4-9.1c2-5.5,0.8-10.7-3.6-14.6
		c-3.4-3-7.4-4.7-12-5c-1.5-0.1-4.1,0-4-2.1c0.2-2.3,2.7-2.1,4.4-1.6c3.9,1.1,4.8-1.7,5.4-4.4c1.8-7.2-0.2-13.6-5-18.9
		c-5.6-6.3-12.2-10.8-21.7-9.1c1,2.8,2.2,5.4,2.9,8.1c0.5,1.9,0.7,4.3-1.7,5.2c-2.9,1.1-2.7-1.9-3.2-3.2
		c-3.4-9.5-8.8-17.4-17.6-22.7c-9.5-5.8-21.5-4.8-29.9,1c-3.1,2.2-5.4,5.3-9,6.7c0-3.4,0-6.7,0-10.1c1.6,0.5,2.5-0.9,3.6-1.6
		c16.3-10.5,32.9-8.8,46.4,5.1c3.3,3.4,6,4.9,11.3,4.1c13.9-2.1,29.7,12,30.8,26.2c0.1,1.8,0.5,3.8,0,5.5c-1.7,5.1,0.7,8.3,4.2,11.5
		c12.9,12.1,9.8,30.1-9.9,35.6c-3.5,1-5.9,2.2-7.7,5.5c-1.7,3.3-4.5,6.1-8.1,7.1c-3.5,1.1-5,3.2-6,6.5
		c-3.8,13.4-18.8,22.2-32.4,19.2c-5.3-1.2-9.1-4.9-12.8-8.5c-1.8-1.7-3.5-2.6-6.1-2.5c-5.2,0.2-9.4-2.3-13.3-5.3
		C0,330.3,0,325.7,0,321.1z"/>
	<path class="st1" d="M20.5,304.1c-2.3-0.1-4.6,0.1-6.8-0.9c-1-0.4-2.7-0.8-2.2-2.4c0.4-1.4,2-1.3,3.2-1c4.2,1.1,8.5,1.5,12.7,0.2
		c14-4,24.6-11.7,29.2-26.3c0.7-2.3,1.4-6.1,3.9-5.4c2.7,0.8,0.4,4.3-0.1,6.3C56.9,288.6,38.6,304.4,20.5,304.1z"/>
</g>
<g>
	<path class="st0" d="M306,2.6c18.7,0,37.4,0,56.1,0c1,1.1-1.5,2.8,0.6,3.8c2,0.9,3-0.8,4.2-1.8c0.7-0.5,1.1-1.4,1.7-2
		c5.2,0,10.4,0,15.6,0c0.5,6.7,0.5,6.7-6.3,9.1c-1.7,0.6-3.3,1.5-4.9,2.4c-1.4,0.9-2.2,2.2-1.1,3.9c1.2,1.9,2.6,0.5,3.5-0.1
		c2.7-1.7,5.4-3.3,8.7-4c11.7-2.4,22.8,4.8,24.7,16.1c1.5,8.8-6.2,17.4-17.3,19.1c-1.6,0.2-3.5,0.5-3.3,2.4c0.2,2.7,2.5,1.6,4,1.5
		c5.3-0.3,7,2,5.2,7.2c-0.9,2.7-2.8,4.7-5,6.4c-2,1.5-3.3,1.6-4.2-1.5c-1-3.8-3.2-7-7-8.6c-1.3-0.6-2.8-2.1-3.9-0.3
		c-1,1.6,0.6,2.8,1.9,3.7c7.5,4.8,7.5,12,4.5,19.5c-2.9,7.3-10.8,12.1-18.2,11.2c-4.2-0.5-7.6-2.9-10.2-5.8c-1.5-1.7,2.2-3,2.6-5
		c0.3-1.3,1.2-2.6-0.4-3.6c-1.3-0.8-2.6-0.7-3.8,0.3c-2.5,2.2-5.1,4.2-8.4,5.3c-25.8,8.8-47.8-7.2-55-28.5
		c-2.1-6.2-1.4-12.3,1.3-18.2c5-10.6,13.6-16.9,24.5-20.7c1.2-0.4,3.8-0.4,2.9-2.9c-0.7-2-2.6-2.5-4.6-2c-2.2,0.6-4.4,1.3-6.4,2.3
		c-2.1,1.1-2.6,0.4-2.8-1.6C304.9,7.7,305.9,5.2,306,2.6z M368.6,50.5c0.2-15.5-12.8-34.6-30.3-39.9c-1.9-0.6-4.5-2.6-5.5,0
		c-0.8,2.4,2.5,2.8,4.3,3.7c1.4,0.6,2.9,0.8,4.4,1.3c3.2,1.1,6,2.9,8.5,5.2c10.6,9.8,17.3,21,13.9,36.2c-0.3,1.1,0,2.4,1.3,2.6
		c1.2,0.2,2-0.9,2.2-1.9C367.9,55.4,368.2,52.9,368.6,50.5z"/>
	<path class="st1" d="M306,2.6c-0.2,2.6-1.2,5.1-0.8,7.7c0.3,2,0.7,2.7,2.8,1.6c2-1,4.2-1.7,6.4-2.3c2-0.5,3.9,0,4.6,2
		c0.8,2.5-1.7,2.4-2.9,2.9c-10.8,3.8-19.5,10-24.5,20.7c-2.7,5.9-3.4,11.9-1.3,18.2c7.2,21.3,29.1,37.3,55,28.5
		c3.3-1.1,5.9-3.1,8.4-5.3c1.2-1,2.4-1.2,3.8-0.3c1.6,1,0.7,2.3,0.4,3.6c-0.4,2-4.1,3.3-2.6,5c2.6,2.9,6,5.3,10.2,5.8
		c7.4,0.8,15.3-3.9,18.2-11.2c3-7.5,3-14.7-4.5-19.5c-1.3-0.8-2.9-2-1.9-3.7c1.1-1.8,2.7-0.2,3.9,0.3c3.8,1.7,5.9,4.9,7,8.6
		c0.8,3,2.2,2.9,4.2,1.5c2.3-1.6,4.1-3.6,5-6.4c1.7-5.2,0.1-7.4-5.2-7.2c-1.5,0.1-3.8,1.2-4-1.5c-0.1-1.8,1.7-2.1,3.3-2.4
		c11.1-1.7,18.9-10.3,17.3-19.1c-1.9-11.4-13-18.5-24.7-16.1c-3.2,0.7-5.9,2.2-8.7,4c-1,0.6-2.3,2-3.5,0.1c-1-1.7-0.3-3,1.1-3.9
		c1.5-1,3.2-1.8,4.9-2.4c6.8-2.5,6.8-2.4,6.3-9.1c2.5,0,4.9,0,7.4,0c-0.9,3.3,2,2.8,3.6,3.3c10.6,3.4,17.5,10.2,20.3,21.1
		c2.3,9-0.2,16.7-6.8,23c-2.8,2.7-4.5,5.5-4.4,9.5c0.1,6.5-3.8,10.8-9,13.9c-2.2,1.3-3.4,2.8-4,5.5c-3.3,14.1-16.3,21.1-30.8,16.7
		c-3.1-0.9-6.3-2-8.5-4.3c-2.6-2.7-5.2-2.5-8.7-1.8c-25.4,5.2-48.9-5.8-58.2-30.6c-5.4-14.1-3-28,9.7-38.1c3.3-2.6,5.2-5.3,3.4-9.8
		c-1.1-2.7,0.8-5.7-0.4-8.5C300.5,2.6,303.3,2.6,306,2.6z"/>
	<path class="st1" d="M368.5,2.6c-0.5,0.7-1,1.5-1.7,2c-1.2,1-2.1,2.7-4.2,1.8c-2.1-1,0.4-2.7-0.6-3.8
		C364.2,2.6,366.4,2.6,368.5,2.6z"/>
	<path class="st1" d="M368.6,50.5c-0.4,2.4-0.7,4.8-1.2,7.2c-0.2,1-1.1,2.1-2.2,1.9c-1.2-0.2-1.5-1.5-1.3-2.6
		c3.4-15.2-3.3-26.4-13.9-36.2c-2.5-2.3-5.3-4.1-8.5-5.2c-1.4-0.5-3-0.7-4.4-1.3c-1.8-0.8-5.1-1.3-4.3-3.7c0.9-2.7,3.6-0.6,5.5,0
		C355.7,15.9,368.8,35.1,368.6,50.5z"/>
</g>
<g>
	<path class="st0" d="M1079.9,415.5c0,18.7,0,37.4,0,56.1c-1.1,1-2.8-1.5-3.8,0.6c-0.9,2,0.8,3,1.8,4.2c0.5,0.7,1.4,1.1,2,1.7
		c0,5.2,0,10.4,0,15.6c-6.7,0.5-6.7,0.5-9.1-6.3c-0.6-1.7-1.5-3.3-2.4-4.9c-0.9-1.4-2.2-2.2-3.9-1.1c-1.9,1.2-0.5,2.6,0.1,3.5
		c1.7,2.7,3.3,5.4,4,8.7c2.4,11.7-4.8,22.8-16.1,24.7c-8.8,1.5-17.4-6.2-19.1-17.3c-0.2-1.6-0.5-3.5-2.4-3.3c-2.7,0.2-1.6,2.5-1.5,4
		c0.3,5.3-2,7-7.2,5.2c-2.7-0.9-4.7-2.8-6.4-5c-1.5-2-1.6-3.3,1.5-4.2c3.8-1,7-3.2,8.6-7c0.6-1.3,2.1-2.8,0.3-3.9
		c-1.6-1-2.8,0.6-3.7,1.9c-4.8,7.5-12,7.5-19.5,4.5c-7.3-2.9-12.1-10.8-11.2-18.2c0.5-4.2,2.9-7.6,5.8-10.2c1.7-1.5,3,2.2,5,2.6
		c1.3,0.3,2.6,1.2,3.6-0.4c0.8-1.3,0.7-2.6-0.3-3.8c-2.2-2.5-4.2-5.1-5.3-8.4c-8.8-25.8,7.2-47.8,28.5-55c6.2-2.1,12.3-1.4,18.2,1.3
		c10.6,5,16.9,13.6,20.7,24.5c0.4,1.2,0.4,3.8,2.9,2.9c2-0.7,2.5-2.6,2-4.6c-0.6-2.2-1.3-4.4-2.3-6.4c-1.1-2.1-0.4-2.6,1.6-2.8
		C1074.8,414.3,1077.3,415.3,1079.9,415.5z M1032,478c15.5,0.2,34.6-12.8,39.9-30.3c0.6-1.9,2.6-4.5,0-5.5c-2.4-0.8-2.8,2.5-3.7,4.3
		c-0.6,1.4-0.8,2.9-1.3,4.4c-1.1,3.2-2.9,6-5.2,8.5c-9.8,10.6-21,17.3-36.2,13.9c-1.1-0.3-2.4,0-2.6,1.3c-0.2,1.2,0.9,2,1.9,2.2
		C1027.1,477.4,1029.5,477.7,1032,478z"/>
	<path class="st1" d="M1079.9,415.5c-2.6-0.2-5.1-1.2-7.7-0.8c-2,0.3-2.7,0.7-1.6,2.8c1,2,1.7,4.2,2.3,6.4c0.5,2,0,3.9-2,4.6
		c-2.5,0.8-2.4-1.7-2.9-2.9c-3.8-10.8-10-19.5-20.7-24.5c-5.9-2.7-11.9-3.4-18.2-1.3c-21.3,7.2-37.3,29.1-28.5,55
		c1.1,3.3,3.1,5.9,5.3,8.4c1,1.2,1.2,2.4,0.3,3.8c-1,1.6-2.3,0.7-3.6,0.4c-2-0.4-3.3-4.1-5-2.6c-2.9,2.6-5.3,6-5.8,10.2
		c-0.8,7.4,3.9,15.3,11.2,18.2c7.5,3,14.7,3,19.5-4.5c0.8-1.3,2-2.9,3.7-1.9c1.8,1.1,0.2,2.7-0.3,3.9c-1.7,3.8-4.9,5.9-8.6,7
		c-3,0.8-2.9,2.2-1.5,4.2c1.6,2.3,3.6,4.1,6.4,5c5.2,1.7,7.4,0.1,7.2-5.2c-0.1-1.5-1.2-3.8,1.5-4c1.8-0.1,2.1,1.7,2.4,3.3
		c1.7,11.1,10.3,18.9,19.1,17.3c11.4-1.9,18.5-13,16.1-24.7c-0.7-3.2-2.2-5.9-4-8.7c-0.6-1-2-2.3-0.1-3.5c1.7-1,3-0.3,3.9,1.1
		c1,1.5,1.8,3.2,2.4,4.9c2.5,6.8,2.4,6.8,9.1,6.3c0,2.5,0,4.9,0,7.4c-3.3-0.9-2.8,2-3.3,3.6c-3.4,10.6-10.2,17.5-21.1,20.3
		c-9,2.3-16.7-0.2-23-6.8c-2.7-2.8-5.5-4.5-9.5-4.4c-6.5,0.1-10.8-3.8-13.9-9c-1.3-2.2-2.8-3.4-5.5-4c-14.1-3.3-21.1-16.3-16.7-30.8
		c0.9-3.1,2-6.3,4.3-8.5c2.7-2.6,2.5-5.2,1.8-8.7c-5.2-25.4,5.8-48.9,30.6-58.2c14.1-5.4,28-3,38.1,9.7c2.6,3.3,5.3,5.2,9.8,3.4
		c2.7-1.1,5.7,0.8,8.5-0.4C1079.9,410,1079.9,412.7,1079.9,415.5z"/>
	<path class="st1" d="M1079.9,478c-0.7-0.5-1.5-1-2-1.7c-1-1.2-2.7-2.1-1.8-4.2c1-2.1,2.7,0.4,3.8-0.6
		C1079.9,473.7,1079.9,475.8,1079.9,478z"/>
	<path class="st1" d="M1032,478c-2.4-0.4-4.8-0.7-7.2-1.2c-1-0.2-2.1-1.1-1.9-2.2c0.2-1.2,1.5-1.5,2.6-1.3
		c15.2,3.4,26.4-3.3,36.2-13.9c2.3-2.5,4.1-5.3,5.2-8.5c0.5-1.4,0.7-3,1.3-4.4c0.8-1.8,1.3-5.1,3.7-4.3c2.7,0.9,0.6,3.6,0,5.5
		C1066.6,465.2,1047.4,478.2,1032,478z"/>
</g>
<g>
	<path class="st0" d="M4.8,530.9c0-18.7,0-37.4,0-56.1c1.1-1,2.8,1.5,3.8-0.6c0.9-2-0.8-3-1.8-4.2c-0.5-0.7-1.4-1.1-2-1.7
		c0-5.2,0-10.4,0-15.6c6.7-0.5,6.7-0.5,9.1,6.3c0.6,1.7,1.5,3.3,2.4,4.9c0.9,1.4,2.2,2.2,3.9,1.1c1.9-1.2,0.5-2.6-0.1-3.5
		c-1.7-2.7-3.3-5.4-4-8.7c-2.4-11.7,4.8-22.8,16.1-24.7c8.8-1.5,17.4,6.2,19.1,17.3c0.2,1.6,0.5,3.5,2.4,3.3c2.7-0.2,1.6-2.5,1.5-4
		c-0.3-5.3,2-7,7.2-5.2c2.7,0.9,4.7,2.8,6.4,5c1.5,2,1.6,3.3-1.5,4.2c-3.8,1-7,3.2-8.6,7c-0.6,1.3-2.1,2.8-0.3,3.9
		c1.6,1,2.8-0.6,3.7-1.9c4.8-7.5,12-7.5,19.5-4.5c7.3,2.9,12.1,10.8,11.2,18.2c-0.5,4.2-2.9,7.6-5.8,10.2c-1.7,1.5-3-2.2-5-2.6
		c-1.3-0.3-2.6-1.2-3.6,0.4c-0.8,1.3-0.7,2.6,0.3,3.8c2.2,2.5,4.2,5.1,5.3,8.4c8.8,25.8-7.2,47.8-28.5,55
		c-6.2,2.1-12.3,1.4-18.2-1.3c-10.6-5-16.9-13.6-20.7-24.5c-0.4-1.2-0.4-3.8-2.9-2.9c-2,0.7-2.5,2.6-2,4.6c0.6,2.2,1.3,4.4,2.3,6.4
		c1.1,2.1,0.4,2.6-1.6,2.8C9.8,532.1,7.4,531.1,4.8,530.9z M52.7,468.4c-15.5-0.2-34.6,12.8-39.9,30.3c-0.6,1.9-2.6,4.5,0,5.5
		c2.4,0.8,2.8-2.5,3.7-4.3c0.6-1.4,0.8-2.9,1.3-4.4c1.1-3.2,2.9-6,5.2-8.5c9.8-10.6,21-17.3,36.2-13.9c1.1,0.3,2.4,0,2.6-1.3
		c0.2-1.2-0.9-2-1.9-2.2C57.5,469,55.1,468.8,52.7,468.4z"/>
	<path class="st1" d="M4.8,530.9c2.6,0.2,5.1,1.2,7.7,0.8c2-0.3,2.7-0.7,1.6-2.8c-1-2-1.7-4.2-2.3-6.4c-0.5-2,0-3.9,2-4.6
		c2.5-0.8,2.4,1.7,2.9,2.9c3.8,10.8,10,19.5,20.7,24.5c5.9,2.7,11.9,3.4,18.2,1.3c21.3-7.2,37.3-29.1,28.5-55
		c-1.1-3.3-3.1-5.9-5.3-8.4c-1-1.2-1.2-2.4-0.3-3.8c1-1.6,2.3-0.7,3.6-0.4c2,0.4,3.3,4.1,5,2.6c2.9-2.6,5.3-6,5.8-10.2
		c0.8-7.4-3.9-15.3-11.2-18.2c-7.5-3-14.7-3-19.5,4.5c-0.8,1.3-2,2.9-3.7,1.9c-1.8-1.1-0.2-2.7,0.3-3.9c1.7-3.8,4.9-5.9,8.6-7
		c3-0.8,2.9-2.2,1.5-4.2c-1.6-2.3-3.6-4.1-6.4-5c-5.2-1.7-7.4-0.1-7.2,5.2c0.1,1.5,1.2,3.8-1.5,4c-1.8,0.1-2.1-1.7-2.4-3.3
		c-1.7-11.1-10.3-18.9-19.1-17.3c-11.4,1.9-18.5,13-16.1,24.7c0.7,3.2,2.2,5.9,4,8.7c0.6,1,2,2.3,0.1,3.5c-1.7,1-3,0.3-3.9-1.1
		c-1-1.5-1.8-3.2-2.4-4.9c-2.5-6.8-2.4-6.8-9.1-6.3c0-2.5,0-4.9,0-7.4c3.3,0.9,2.8-2,3.3-3.6c3.4-10.6,10.2-17.5,21.1-20.3
		c9-2.3,16.7,0.2,23,6.8c2.7,2.8,5.5,4.5,9.5,4.4c6.5-0.1,10.8,3.8,13.9,9c1.3,2.2,2.8,3.4,5.5,4c14.1,3.3,21.1,16.3,16.7,30.8
		c-0.9,3.1-2,6.3-4.3,8.5c-2.7,2.6-2.5,5.2-1.8,8.7c5.2,25.4-5.8,48.9-30.6,58.2c-14.1,5.4-28,3-38.1-9.7c-2.6-3.3-5.3-5.2-9.8-3.4
		c-2.7,1.1-5.7-0.8-8.5,0.4C4.8,536.5,4.8,533.7,4.8,530.9z"/>
	<path class="st1" d="M4.8,468.4c0.7,0.5,1.5,1,2,1.7c1,1.2,2.7,2.1,1.8,4.2c-1,2.1-2.7-0.4-3.8,0.6C4.8,472.7,4.8,470.6,4.8,468.4z
		"/>
	<path class="st1" d="M52.7,468.4c2.4,0.4,4.8,0.7,7.2,1.2c1,0.2,2.1,1.1,1.9,2.2c-0.2,1.2-1.5,1.5-2.6,1.3
		c-15.2-3.4-26.4,3.3-36.2,13.9c-2.3,2.5-4.1,5.3-5.2,8.5c-0.5,1.4-0.7,3-1.3,4.4c-0.8,1.8-1.3,5.1-3.7,4.3c-2.7-0.9-0.6-3.6,0-5.5
		C18.1,481.2,37.3,468.2,52.7,468.4z"/>
</g>
<g>
	<path class="st0" d="M1019,0.1c19.5,0,39,0.1,58.4-0.1c2.9,0,3.4,0.8,3.2,3.4c-0.2,2.3,0,4.6,0,6.8c-2.1,1.2-4.3,2.3-6.4,3.5
		c-0.9,0.5-1.3,1.4-0.9,2.3c0.4,1,1.4,1.2,2.3,0.9c1.7-0.6,3.3-1.4,5-2.1c0,19,0,38,0,57c-1.1-1-2.1-2-3.2-3
		c-0.5-0.5-1.1-1.1-1.9-0.7c-0.8,0.4-1,1.3-0.8,1.9c1,3.4,3.1,6.1,5.9,8.3c0,0.6,0,1.2,0,1.8c-0.3-0.1-0.8-0.4-0.8,0.3
		c-0.1,0.7,0.2,0.9,0.8,0.6c0,0.6,0,1.2,0,1.8c-1.5,1-1.7,1-2.4,3.7c-2.1,7.4-6.9,11.6-14.5,12.8c-7.4,1.2-12.7-1.6-16.8-7.6
		c-1.4-2-1.7-2.8,0.7-3.9c2.1-0.9,4.6-2.2,2.9-5.1c-1.6-2.7-3.8-0.6-5.6,0.2c-4.5,2-9.1,2.7-13.9,2.2c-19-2.1-32.8-13.8-38-32.2
		c-4.5-15.5,1.7-29,16-36.1c5.9-2.9,12-3.9,18.4-4.3c1.6-0.1,3.3-0.5,3.4-2.4c0.1-2.1-1.5-2.9-3.4-2.8c-2.6,0-5.2-0.1-7.8,0.3
		c-3.2,0.5-3.6-1.5-2.8-3.4C1017.3,2.8,1017,0.7,1019,0.1z M1062.6,69.2c2.7-1.4,3.4-3.6,4.1-5.7c5.8-16.5-1.5-38.6-16.1-48.4
		c-2-1.3-5.2-4.6-6.7-2.2c-1.8,2.9,2.5,4.2,4.6,5.5c13.6,8.5,20.5,27.3,15.2,42.3C1062.8,63.4,1061.5,65.9,1062.6,69.2z"/>
	<path class="st1" d="M1019,0.1c-2,0.6-1.7,2.7-2.3,4.1c-0.8,1.9-0.4,3.9,2.8,3.4c2.6-0.4,5.2-0.2,7.8-0.3c1.9,0,3.4,0.8,3.4,2.8
		c-0.1,1.9-1.8,2.3-3.4,2.4c-6.4,0.4-12.5,1.3-18.4,4.3c-14.3,7.1-20.4,20.6-16,36.1c5.3,18.4,19.1,30.1,38,32.2
		c4.8,0.5,9.4-0.2,13.9-2.2c1.8-0.8,3.9-2.9,5.6-0.2c1.7,2.9-0.8,4.2-2.9,5.1c-2.4,1.1-2.1,1.9-0.7,3.9c4.2,6,9.5,8.8,16.8,7.6
		c7.5-1.3,12.4-5.4,14.5-12.8c0.8-2.7,0.9-2.6,2.4-3.7c0,5.2,0,10.4,0,15.6c-0.9-0.2-1.4,0.4-1.9,0.9c-11.5,10.5-26.3,9.5-36.5-2.7
		c-2.8-3.3-5.4-4.8-9.8-5c-27-1.1-47.8-23-47.6-49.7c0.1-12.3,6.4-20.7,16.1-27.1c0.8-0.5,1.5-1.1,2.4-1.4c6.5-2.2,7.7-7.4,7.5-13.3
		C1013.5,0.1,1016.3,0.1,1019,0.1z"/>
	<path class="st1" d="M1080.6,78.2c-2.8-2.2-4.9-4.8-5.9-8.3c-0.2-0.7,0-1.6,0.8-1.9c0.8-0.4,1.4,0.2,1.9,0.7c1.1,1,2.1,2,3.2,3
		C1080.6,73.9,1080.6,76.1,1080.6,78.2z"/>
	<path class="st1" d="M1080.6,14.8c-1.7,0.7-3.3,1.5-5,2.1c-0.9,0.3-1.9,0.1-2.3-0.9c-0.4-0.9,0-1.8,0.9-2.3
		c2.1-1.2,4.3-2.3,6.4-3.5C1080.6,11.7,1080.6,13.3,1080.6,14.8z"/>
	<path class="st1" d="M1080.6,81c-0.7,0.3-0.9,0-0.8-0.6c0.1-0.6,0.5-0.3,0.8-0.3C1080.6,80.4,1080.6,80.7,1080.6,81z"/>
	<path class="st1" d="M1062.6,69.2c-1.1-3.4,0.2-5.9,1.1-8.4c5.3-15-1.5-33.9-15.2-42.3c-2.1-1.3-6.5-2.6-4.6-5.5
		c1.6-2.5,4.7,0.8,6.7,2.2c14.6,9.8,21.9,31.9,16.1,48.4C1066,65.7,1065.3,67.9,1062.6,69.2z"/>
</g>
<g>
	<path class="st0" d="M1080.5,1013.3c-0.2,19.5-0.5,39-0.6,58.4c0,2.9-0.8,3.4-3.4,3.1c-2.3-0.3-4.6-0.1-6.8-0.1
		c-1.1-2.1-2.2-4.3-3.4-6.4c-0.5-0.9-1.4-1.3-2.3-0.9c-1,0.4-1.3,1.4-1,2.3c0.6,1.7,1.4,3.4,2.1,5c-19-0.2-38-0.4-57-0.6
		c1-1.1,2.1-2.1,3.1-3.2c0.5-0.5,1.1-1.1,0.7-1.9c-0.4-0.8-1.2-1-1.9-0.8c-3.4,1-6.1,3-8.3,5.8c-0.6,0-1.2,0-1.8,0
		c0.1-0.3,0.4-0.8-0.3-0.9c-0.7-0.1-0.9,0.2-0.7,0.8c-0.6,0-1.2,0-1.8,0c-1-1.5-1-1.7-3.7-2.5c-7.4-2.2-11.5-7-12.7-14.6
		c-1.1-7.4,1.7-12.7,7.8-16.8c2-1.4,2.8-1.7,3.9,0.7c0.9,2.1,2.2,4.6,5.1,2.9c2.7-1.6,0.6-3.8-0.1-5.6c-1.9-4.5-2.6-9.1-2-13.9
		c2.3-19,14.2-32.6,32.6-37.7c15.5-4.3,29,2,35.9,16.4c2.9,5.9,3.7,12,4.1,18.4c0.1,1.6,0.4,3.3,2.4,3.4c2.1,0.1,2.9-1.5,2.9-3.3
		c0-2.6,0.2-5.2-0.2-7.8c-0.4-3.2,1.6-3.6,3.4-2.7C1077.8,1011.6,1080,1011.3,1080.5,1013.3z M1010.9,1056.1
		c1.3,2.7,3.5,3.4,5.6,4.2c16.4,6,38.6-1.1,48.6-15.6c1.4-2,4.7-5.1,2.2-6.7c-2.8-1.9-4.2,2.5-5.5,4.6
		c-8.6,13.5-27.5,20.2-42.5,14.7C1016.8,1056.4,1014.3,1055.1,1010.9,1056.1z"/>
	<path class="st1" d="M1080.5,1013.3c-0.6-2-2.7-1.7-4-2.4c-1.9-0.9-3.9-0.5-3.4,2.7c0.3,2.6,0.2,5.2,0.2,7.8c0,1.9-0.8,3.4-2.9,3.3
		c-1.9-0.1-2.3-1.8-2.4-3.4c-0.3-6.4-1.2-12.5-4.1-18.4c-6.9-14.4-20.4-20.7-35.9-16.4c-18.4,5.1-30.3,18.7-32.6,37.7
		c-0.6,4.8,0.1,9.4,2,13.9c0.8,1.8,2.9,4,0.1,5.6c-2.9,1.7-4.1-0.9-5.1-2.9c-1.1-2.4-1.9-2.1-3.9-0.7c-6.1,4.1-8.9,9.4-7.8,16.8
		c1.2,7.6,5.3,12.4,12.7,14.6c2.7,0.8,2.6,0.9,3.7,2.5c-5.2-0.1-10.4-0.1-15.6-0.2c0.3-0.9-0.4-1.4-0.9-1.9
		c-10.3-11.7-9.2-26.4,3.1-36.5c3.4-2.7,4.9-5.3,5.1-9.8c1.4-27,23.5-47.5,50.2-47c12.2,0.2,20.6,6.6,26.9,16.4
		c0.5,0.8,1.1,1.5,1.4,2.4c2.1,6.5,7.3,7.8,13.2,7.7C1080.6,1007.8,1080.6,1010.5,1080.5,1013.3z"/>
	<path class="st1" d="M1001.7,1074c2.2-2.8,4.9-4.8,8.3-5.8c0.7-0.2,1.6,0,1.9,0.8c0.4,0.8-0.2,1.4-0.7,1.9c-1,1.1-2.1,2.1-3.1,3.2
		C1006,1074.1,1003.9,1074,1001.7,1074z"/>
	<path class="st1" d="M1065.2,1074.7c-0.7-1.7-1.5-3.3-2.1-5c-0.3-0.9-0.1-1.9,1-2.3c0.9-0.3,1.8,0,2.3,0.9c1.2,2.1,2.3,4.3,3.4,6.4
		C1068.2,1074.7,1066.7,1074.7,1065.2,1074.7z"/>
	<path class="st1" d="M999,1074c-0.3-0.7,0-0.9,0.7-0.8c0.6,0.1,0.3,0.5,0.3,0.9C999.6,1074,999.3,1074,999,1074z"/>
	<path class="st1" d="M1010.9,1056.1c3.4-1.1,5.9,0.2,8.4,1.2c14.9,5.5,33.9-1.2,42.5-14.7c1.3-2.1,2.7-6.4,5.5-4.6
		c2.4,1.6-0.9,4.7-2.2,6.7c-9.9,14.5-32.2,21.6-48.6,15.6C1014.5,1059.6,1012.3,1058.9,1010.9,1056.1z"/>
</g>
<g>
	<path class="st1" d="M538.3,1077.5c-2.1-3.7-4.5-6.3-9.5-6.2c-6.5,0.1-11.7-3.2-14.9-9.1c-1.1-2-2.3-3.5-4.6-4
		c-22.4-4.4-22.3-29.3-12.4-40.3c1.9-2.2,1.9-4,1.3-6.6c-4-19.8-0.1-37.1,15.9-51c10.7-9.3,22.5-12.9,36.1-9.5
		c7.5,1.9,13.1,7.3,18.5,12.7c1.6,1.6,2.8,3,5.4,2.4c12.1-2.5,25.8,4.5,31.2,15.6c3.1,6.3,4.1,12.8,2.4,19.6
		c-0.7,2.8,1.1,3.5,2.5,4.7c5.5,4.8,9.5,10.4,9.9,17.9c0.5,9.6-7,18.3-18,20.5c-3.2,0.6-5.2,1.8-6.6,4.7c-1.4,2.8-3.4,5.8-6.2,6.6
		c-5.8,1.6-8.1,5.6-9.5,10.7c-1.3,4.6-5.6,7.1-7.6,11.2C561,1077.5,549.6,1077.5,538.3,1077.5z M597.6,1037c6.8,1.2,12.3-4.3,13.9-9
		c2-6.3-0.5-12.4-6.4-16.2c-3-1.9-6.3-3-9.9-3.1c-1.4-0.1-3.5,0-3.5-2c0-2.3,2.2-1.9,3.5-1.7c4.9,0.9,6.3-1.8,6.6-5.8
		c0.1-2.1,0.2-4.3-0.1-6.3c-1.8-11.4-12.5-21-23.8-20.6c-2.7,0.1-3.7,0.7-2.1,3.5c1.2,2.1,2.1,4.4,2.2,6.9c0,1.7-0.7,3.2-2.2,3.6
		c-2,0.6-2-1.4-2.5-2.5c-3.5-7.7-7-15-14.1-20.7c-7.2-5.8-20.2-9.9-30.7-3.5c-13.5,8.1-23.9,18.7-25.2,35.7
		c-0.7,9.3,0.7,17.7,7.2,24.7c1.1,1.3,2.4,2.8,1.1,4.5c-1.5,1.9-3.7,1-4.9-0.3c-3.5-3.7-5-2.1-7.1,1.6c-4.5,8.1-2.9,17.2,4.7,22.8
		c8.3,6.2,16.6,5.3,23.3-2.6c0.2-0.2,0.4-0.5,0.6-0.7c0.8-1,2.1-1.9,3.2-1.3c1.4,0.8,0.5,2.1,0.1,3.3c-1.7,4.4-5.4,6.6-9.5,8.1
		c-1.8,0.7-2.6,1.2-1.7,3.1c1.7,3.8,7.2,6.8,11.3,6.3c2.6-0.3,3.1-1.7,3.1-4.1c0-1.7-2.8-4.2,0.1-5c3.9-1.1,2.1,3.3,3.5,4.9
		c0.3,0.4,0.2,1.2,0.3,1.8c1.4,7.6,9.8,14,17.7,13.6c8.1-0.5,16.3-8.1,17-15.4c0.6-6.5,0.5-12.7-3.9-18.1c-0.9-1.1-1.4-2.6,0.3-3.5
		c1.5-0.8,2.6-0.1,3.3,1.3c0.8,1.6,2,2.9,2.3,4.9c0.9,5.6,4.7,7.4,9.7,4.9c2.8-1.4,4.2-3.9,5.3-6.7c0.7-1.9,0.8-3.1-1.5-4.3
		c-2.6-1.4-4.8-3.7-6.9-5.8c-0.8-0.8-1.9-2.2-0.4-3.6c1.4-1.3,2.2,0.1,3.1,0.7c0.9,0.6,1.6,1.4,2.3,2.3
		C589.6,1035.9,593.2,1037.7,597.6,1037z"/>
	<path class="st0" d="M597.6,1037c-4.4,0.6-8-1.2-10.9-4.7c-0.7-0.8-1.4-1.7-2.3-2.3c-0.9-0.6-1.7-2-3.1-0.7
		c-1.5,1.4-0.4,2.8,0.4,3.6c2.1,2.2,4.3,4.4,6.9,5.8c2.3,1.2,2.2,2.4,1.5,4.3c-1,2.8-2.5,5.3-5.3,6.7c-5,2.5-8.8,0.7-9.7-4.9
		c-0.3-1.9-1.4-3.3-2.3-4.9c-0.8-1.4-1.8-2.1-3.3-1.3c-1.8,0.9-1.2,2.4-0.3,3.5c4.4,5.4,4.5,11.6,3.9,18.1c-0.7,7.4-9,15-17,15.4
		c-7.9,0.5-16.3-5.9-17.7-13.6c-0.1-0.6,0.1-1.4-0.3-1.8c-1.4-1.6,0.4-6-3.5-4.9c-2.8,0.8-0.1,3.3-0.1,5c0,2.4-0.5,3.8-3.1,4.1
		c-4.2,0.5-9.6-2.5-11.3-6.3c-0.9-1.9-0.1-2.4,1.7-3.1c4.1-1.5,7.8-3.7,9.5-8.1c0.4-1.1,1.3-2.5-0.1-3.3c-1.1-0.6-2.3,0.3-3.2,1.3
		c-0.2,0.2-0.4,0.5-0.6,0.7c-6.7,7.9-15,8.8-23.3,2.6c-7.5-5.6-9.2-14.6-4.7-22.8c2.1-3.7,3.5-5.3,7.1-1.6c1.2,1.2,3.3,2.2,4.9,0.3
		c1.3-1.6,0-3.2-1.1-4.5c-6.5-7.1-7.9-15.4-7.2-24.7c1.3-17,11.7-27.6,25.2-35.7c10.5-6.3,23.5-2.3,30.7,3.5
		c7.1,5.7,10.6,13,14.1,20.7c0.5,1.1,0.5,3.1,2.5,2.5c1.6-0.5,2.3-1.9,2.2-3.6c0-2.5-1-4.8-2.2-6.9c-1.6-2.8-0.6-3.4,2.1-3.5
		c11.3-0.4,22,9.2,23.8,20.6c0.3,2.1,0.3,4.2,0.1,6.3c-0.3,4-1.7,6.7-6.6,5.8c-1.3-0.3-3.5-0.6-3.5,1.7c0,2.1,2.1,2,3.5,2
		c3.6,0.2,6.9,1.2,9.9,3.1c5.9,3.8,8.5,9.9,6.4,16.2C610,1032.8,604.4,1038.2,597.6,1037z M536,1035.3c19.3-0.1,38.2-15.1,41.3-32.6
		c0.2-1.1,1.3-2.6-0.3-3.2c-1.6-0.6-2.4,1-3,2.2c-0.7,1.5-1.4,3.1-1.7,4.7c-0.8,4.4-3.2,7.8-6.3,10.9c-9.7,10-20.5,17-35.3,13.4
		c-1.3-0.3-2.7,0.1-3.1,1.3c-0.4,1.2,1,1.7,2,2.1C531.9,1035.2,534.1,1035.4,536,1035.3z"/>
	<path class="st1" d="M536,1035.3c-1.9,0.1-4.2-0.1-6.3-1c-1-0.4-2.3-0.9-2-2.1c0.4-1.2,1.7-1.6,3.1-1.3
		c14.8,3.6,25.6-3.4,35.3-13.4c3-3.1,5.4-6.5,6.3-10.9c0.3-1.6,1-3.2,1.7-4.7c0.6-1.3,1.4-2.8,3-2.2c1.6,0.6,0.5,2.1,0.3,3.2
		C574.2,1020.2,555.4,1035.2,536,1035.3z"/>
</g>
<g>
	<path class="st1" d="M662.9,59.9c1.2,0.1,2.6-0.2,3.6,0.3c5.5,2.8,8.8-1,12.7-3.7c21.9-15.2,45.8-13,64.8,4.1
		c11.4,10.2,13.1,23.8,7,37.9c-1.4,3.3-1.4,5.6,0.7,8.7c9,13.6,4.7,33.3-8.9,42.2c-1.4,0.9-3,2-4.6,2c-5.6,0-6.8,3.3-8,8
		c-4.7,17.9-21.8,22.6-34.7,9.5c-3.5-3.5-6.5-6.6-12.2-6.4c-3.4,0.2-6.6-2.1-9.2-4.7c-1.9-1.9-3.8-2.3-6.6-1.7
		c-19.7,3.8-39.2-15.3-30.9-35.5c0.8-1.9,1-3.5,0-5.6c-3.4-7-2.6-14,1.5-20.5c1.1-1.8,1.5-3.2,0.8-5.1
		C634.5,75.3,647.7,58.9,662.9,59.9z M642.7,132c0.1,3.1,0.3,5.7,1.8,8c7,10.8,24.7,11.8,32.6,1.6c1.3-1.7,2.1-3.7,3.3-5.4
		c0.8-1.1,1.9-2.2,3.5-1c1.5,1.1,0.4,2.2,0,3.2c-1.3,3.2-4.2,5.1-6.3,7.6c-2.5,3-0.9,5.1,1.2,6.7c2.7,2,6,3.1,9.5,2.9
		c2.4-0.1,3.9-0.7,3.9-3.7c0-2.4,0.7-4.8,1.4-7.2c0.5-1.7,1.2-4.1,3.5-3.4c2.7,0.8,1.1,3,0.5,4.6c-0.3,0.9-0.8,1.7-1,2.5
		c-2,6.2,1.3,14.8,7,18c5,2.8,13,1.3,17.1-3.7c4.2-5.1,3.4-11.1,1.8-17c-0.5-1.9-2.9-4.4,0.1-5.5c2.5-0.9,2.9,2.2,3.4,3.9
		c0.8,2.4,2.1,2.9,4.4,2.8c4.4-0.2,8-1.9,10.9-5.2c4.9-5.6,7.8-12,8.1-19.5c0.1-3.5-0.6-7-2.5-10.1c-1.1-1.9-2.2-2.4-3.6-0.3
		c-1.6,2.3-3.5,4.3-6,5.5c-1.5,0.7-2.9,1.1-4.1-0.4c-1.2-1.6,0.2-2.6,1-3.5c1.3-1.5,2.9-2.7,4.2-4.2c9.7-11.3,13.6-28.6,3.6-41
		c-5.9-7.3-14.1-11.1-23.3-13.4c-18.7-4.8-36.4,2.6-45,19.8c-0.8,1.5-1.7,2.8-3.5,2c-1.8-0.8-2-2.3-1-4.2c0.8-1.7,1.7-3.9-0.9-5.1
		c-7.1-3.2-21.1,3.4-23,10.8c-2.5,9.6,3.6,19.9,13.4,22.6c0.3,0.1,0.6,0.1,0.9,0.2c1,0.6,2.6,0.9,2.3,2.4c-0.2,1.2-1.7,1.1-2.7,1.2
		c-3.7,0.3-6.9-1.1-9.8-3.3c-4.9-3.6-6-3.2-7,2.9c-0.2,1.5-0.3,3.1-0.2,4.6c0.4,5.4,2.9,6.6,7.6,3.8c1.4-0.8,3-2.6,4.3-0.6
		c1.5,2.3-0.9,3.4-2.4,4.1C644.6,119.5,643.4,125.8,642.7,132z"/>
	<path class="st0" d="M642.7,132c0.6-6.2,1.8-12.5,8.9-15.8c1.5-0.7,3.9-1.8,2.4-4.1c-1.3-2.1-2.9-0.2-4.3,0.6
		c-4.7,2.8-7.1,1.6-7.6-3.8c-0.1-1.5-0.1-3.1,0.2-4.6c1-6.1,2.2-6.5,7-2.9c2.9,2.1,6.1,3.6,9.8,3.3c1-0.1,2.5,0,2.7-1.2
		c0.3-1.5-1.3-1.8-2.3-2.4c-0.3-0.1-0.6-0.2-0.9-0.2c-9.8-2.7-15.9-13-13.4-22.6c2-7.4,16-14.1,23-10.8c2.6,1.2,1.7,3.4,0.9,5.1
		c-0.9,1.9-0.8,3.4,1,4.2c1.8,0.8,2.7-0.5,3.5-2c8.7-17.1,26.3-24.6,45-19.8c9.2,2.3,17.3,6.1,23.3,13.4c10,12.4,6.1,29.7-3.6,41
		c-1.3,1.5-2.9,2.7-4.2,4.2c-0.9,1-2.2,2-1,3.5c1.2,1.6,2.7,1.2,4.1,0.4c2.5-1.2,4.4-3.2,6-5.5c1.4-2,2.5-1.6,3.6,0.3
		c1.8,3.1,2.6,6.6,2.5,10.1c-0.2,7.5-3.1,13.9-8.1,19.5c-2.9,3.2-6.5,4.9-10.9,5.2c-2.4,0.1-3.7-0.4-4.4-2.8
		c-0.5-1.7-0.9-4.8-3.4-3.9c-3,1.1-0.6,3.6-0.1,5.5c1.6,5.9,2.4,11.9-1.8,17c-4.1,5-12.1,6.5-17.1,3.7c-5.6-3.2-9-11.8-7-18
		c0.3-0.9,0.7-1.7,1-2.5c0.6-1.6,2.2-3.7-0.5-4.6c-2.3-0.7-3,1.7-3.5,3.4c-0.7,2.3-1.4,4.8-1.4,7.2c0,3-1.5,3.6-3.9,3.7
		c-3.5,0.2-6.7-0.9-9.5-2.9c-2.2-1.6-3.7-3.7-1.2-6.7c2.1-2.5,5-4.5,6.3-7.6c0.4-1,1.5-2.1,0-3.2c-1.6-1.2-2.7-0.1-3.5,1
		c-1.2,1.7-2,3.8-3.3,5.4c-7.9,10.1-25.6,9.2-32.6-1.6C643,137.7,642.8,135.1,642.7,132z M709.5,127.6c3.2-0.4,6.4-0.7,9.5-1.3
		c1.2-0.2,3.2-0.4,3.2-2c-0.1-2.1-2.2-1.7-3.6-1.7c-2,0.1-4,0.3-5.9,0.7c-3.2,0.6-6.4,1-9.5,0c-13.1-4-24.9-9.6-29.2-24.2
		c-0.5-1.6-0.8-4.9-3.1-4.2c-2.1,0.7-0.5,3.6-0.1,5.3C674.4,114.3,693.4,127.6,709.5,127.6z"/>
	<path class="st1" d="M709.5,127.6c-16.1,0-35.1-13.3-38.7-27.4c-0.4-1.7-2.1-4.6,0.1-5.3c2.2-0.7,2.6,2.6,3.1,4.2
		c4.4,14.7,16.2,20.2,29.2,24.2c3.1,0.9,6.3,0.6,9.5,0c1.9-0.4,3.9-0.6,5.9-0.7c1.4-0.1,3.5-0.4,3.6,1.7c0.1,1.7-1.9,1.8-3.2,2
		C715.9,126.8,712.7,127.2,709.5,127.6z"/>
</g>
<g>
	<path class="st1" d="M483.7,250.2c-7.5,0-14.2-2.3-19.7-7.3c-3.8-3.5-7.3-4.9-13-3.5c-13.9,3.5-36.1-6.5-35.4-28.5
		c0.1-3.7-1.3-5.3-4.2-6.9c-10.7-6.2-14.7-18.9-9.4-28.8c2.6-4.7,6.7-7.5,11.5-9.3c3.4-1.3,6-2.8,7.1-6.8c1-3.5,3.7-6.4,6.9-8.3
		c2.6-1.6,3.4-3.4,3.9-6.5c2.2-14.4,18.5-27.6,33.5-24.2c4.6,1,7.7,5.1,12.2,6.6c1.1,0.4,2,1.2,3.3,1c5.7-1.2,10.8,0.2,15.7,3.5
		c1.3,0.9,2.3,1.7,3.1,3c1.2,2.1,3,2.8,5.6,3.1c15.3,1.9,27.7,18.3,19.8,33.2c-3.1,5.9-3.2,10.4-0.9,16.4c4.1,10.7,4.5,22,0.2,32.8
		C517.9,234.4,502.5,250.7,483.7,250.2z M452.7,231.9c-1.5-2.4-2.9-4.2-3.8-6.3c-1.1-2.3-2.5-5.5,0.5-6.9c2.9-1.4,3.3,2.2,4.5,4
		c0.6,0.9,1,1.9,1.5,2.9c3.6,7.5,9.8,12.5,17.2,15.4c10.9,4.3,20.8,2.6,30.1-5.3c21-17.8,23.3-40.8,5.5-60.8
		c-0.9-1.1-1.7-2.1-0.8-3.7c0.9-1.6,2.3-1.2,3.6-0.9c1,0.3,2.1,0.8,2.8,1.5c2,1.8,3,0.9,4.1-1.1c2.3-4.5,2.5-9.1,1.5-13.9
		c-1.4-6.8-6.6-11.3-13.7-12.4c-9.2-1.4-12.9,0.1-17.3,7.4c-0.4,0.6-0.9,1.2-1.4,1.8c-0.7,0.9-1.8,1.5-2.8,1
		c-0.8-0.5-0.4-1.7-0.2-2.6c0.9-4.1,3.5-7.2,7.1-9c4.1-2,2.8-3.9,0.3-6c-1.9-1.6-4.1-2.6-6.6-2.8c-6.1-0.4-6.8,0.4-5.4,6.2
		c0.4,1.7,1.2,3.7-1,4.3c-2.2,0.6-2.3-1.8-2.9-3.2c-0.2-0.4-0.1-0.9-0.2-1.3c-1.9-7.6-8.9-12.9-17.2-13c-6.7-0.1-14.7,5.9-16.5,12.7
		c-2.2,8.2-1.2,15.7,5.1,22c1.1,1.1,2.8,2.6,0.8,4.2c-1.7,1.4-3.1,0-4.4-1.2c-1.8-1.8-2.6-4.1-3.8-6.3c-0.6-1-0.9-2.3-2.1-2.9
		c-3-1.4-7.8,1.4-9.7,5.6c-2.1,4.7-1.6,6.2,2.5,8.2c1.7,0.8,3.4,1.6,4.7,2.8c1.3,1.2,4,2.5,2.5,4.6c-1.7,2.2-3.5-0.1-5-1.2
		c-0.9-0.6-1.5-1.5-2.4-2.1c-4.6-2.9-9.5-3.3-14.3-0.7c-5.2,2.9-8,7.4-7.8,13.5c0.3,5.5,3.1,9.1,8.2,11c3.4,1.3,6.9,2.5,10.7,2.1
		c1.6-0.2,3.8-0.5,3.9,1.9c0,2.1-2.1,2.1-3.5,1.9c-4.4-0.6-5.1,2.3-5.4,5.5c-0.9,9.2,4.5,15.2,11.1,20.2
		C438.3,233.2,445,234.3,452.7,231.9z"/>
	<path class="st0" d="M452.7,231.9c-7.7,2.4-14.4,1.4-20.2-3c-6.5-5-12-10.9-11.1-20.2c0.3-3.2,1-6.1,5.4-5.5
		c1.4,0.2,3.6,0.2,3.5-1.9c0-2.5-2.3-2.1-3.9-1.9c-3.8,0.4-7.3-0.7-10.7-2.1c-5.1-2-8-5.6-8.2-11c-0.3-6.1,2.5-10.6,7.8-13.5
		c4.8-2.7,9.7-2.3,14.3,0.7c0.9,0.6,1.6,1.5,2.4,2.1c1.5,1.1,3.4,3.4,5,1.2c1.5-2.1-1.2-3.4-2.5-4.6c-1.3-1.2-3.1-2-4.7-2.8
		c-4.1-1.9-4.6-3.4-2.5-8.2c1.9-4.2,6.7-7,9.7-5.6c1.2,0.6,1.5,1.8,2.1,2.9c1.2,2.1,2,4.5,3.8,6.3c1.2,1.2,2.7,2.6,4.4,1.2
		c2-1.6,0.3-3.1-0.8-4.2c-6.3-6.3-7.3-13.8-5.1-22c1.8-6.8,9.8-12.8,16.5-12.7c8.3,0.2,15.3,5.5,17.2,13c0.1,0.4,0.1,0.9,0.2,1.3
		c0.6,1.4,0.8,3.8,2.9,3.2c2.2-0.6,1.4-2.6,1-4.3c-1.4-5.8-0.7-6.6,5.4-6.2c2.6,0.1,4.7,1.2,6.6,2.8c2.5,2.1,3.8,4-0.3,6
		c-3.7,1.8-6.2,4.9-7.1,9c-0.2,0.9-0.6,2.1,0.2,2.6c1,0.6,2.1,0,2.8-1c0.5-0.6,1-1.2,1.4-1.8c4.4-7.2,8-8.8,17.3-7.4
		c7.1,1.1,12.3,5.6,13.7,12.4c1,4.7,0.8,9.4-1.5,13.9c-1.1,2-2,2.9-4.1,1.1c-0.8-0.7-1.8-1.2-2.8-1.5c-1.3-0.4-2.7-0.8-3.6,0.9
		c-0.9,1.6-0.1,2.6,0.8,3.7c17.8,20.1,15.5,43.1-5.5,60.8c-9.3,7.9-19.3,9.6-30.1,5.3c-7.4-2.9-13.6-7.9-17.2-15.4
		c-0.5-1-0.9-2-1.5-2.9c-1.2-1.7-1.5-5.4-4.5-4c-3,1.4-1.5,4.6-0.5,6.9C449.8,227.7,451.2,229.5,452.7,231.9z M445.2,205.9
		c3.4-1,4.2-3.3,4.3-5.5c0.6-11.4,7.7-18.9,15.6-25.9c5.2-4.7,11.5-6.7,18.4-6.9c2.3-0.1,6.2,1.2,6.2-1.6c-0.1-2.8-4.1-1.9-6.6-2
		c-0.5,0-0.9,0.1-1.4,0.2c-13.6,2-23.5,9.6-31.1,20.5C446.3,190.9,445.1,198,445.2,205.9z"/>
	<path class="st1" d="M445.2,205.9c-0.1-7.9,1.1-15,5.4-21.3c7.6-10.9,17.5-18.6,31.1-20.5c0.5-0.1,0.9-0.2,1.4-0.2
		c2.5,0.1,6.5-0.8,6.6,2c0.1,2.8-3.9,1.5-6.2,1.6c-6.9,0.2-13.2,2.3-18.4,6.9c-7.8,7-14.9,14.5-15.6,25.9
		C449.4,202.6,448.6,204.9,445.2,205.9z"/>
</g>
<g>
	<path class="st1" d="M859.8,409.5c-7.5,0-14.2-2.3-19.7-7.3c-3.8-3.5-7.3-4.9-13-3.5c-13.9,3.5-36.1-6.5-35.4-28.5
		c0.1-3.7-1.3-5.3-4.2-6.9c-10.7-6.2-14.7-18.9-9.4-28.8c2.6-4.7,6.7-7.5,11.5-9.3c3.4-1.3,6-2.8,7.1-6.8c1-3.5,3.7-6.4,6.9-8.3
		c2.6-1.6,3.4-3.4,3.9-6.5c2.2-14.4,18.5-27.6,33.5-24.2c4.6,1,7.7,5.1,12.2,6.6c1.1,0.4,2,1.2,3.3,1c5.7-1.2,10.8,0.2,15.7,3.5
		c1.3,0.9,2.3,1.7,3.1,3c1.2,2.1,3,2.8,5.6,3.1c15.3,1.9,27.7,18.3,19.8,33.2c-3.1,5.9-3.2,10.4-0.9,16.4c4.1,10.8,4.5,22,0.2,32.8
		C894,393.8,878.6,410.1,859.8,409.5z M828.7,391.2c-1.5-2.4-2.9-4.2-3.8-6.3c-1.1-2.3-2.5-5.5,0.5-6.9c2.9-1.4,3.3,2.2,4.5,4
		c0.6,0.9,1,1.9,1.5,2.9c3.6,7.5,9.8,12.5,17.2,15.4c10.9,4.3,20.8,2.6,30.1-5.3c21-17.8,23.3-40.8,5.5-60.8
		c-0.9-1.1-1.7-2.1-0.8-3.7c0.9-1.6,2.3-1.2,3.6-0.9c1,0.3,2.1,0.8,2.8,1.5c2,1.8,3,0.9,4.1-1.1c2.3-4.5,2.5-9.1,1.5-13.9
		c-1.4-6.8-6.6-11.3-13.7-12.4c-9.2-1.4-12.9,0.1-17.3,7.4c-0.4,0.6-0.9,1.2-1.4,1.8c-0.7,0.9-1.8,1.5-2.8,1
		c-0.8-0.5-0.4-1.7-0.2-2.6c0.9-4.1,3.5-7.2,7.1-9c4.1-2,2.8-3.9,0.3-6c-1.9-1.6-4.1-2.6-6.6-2.8c-6.1-0.4-6.8,0.4-5.4,6.2
		c0.4,1.7,1.2,3.7-1,4.3c-2.2,0.6-2.3-1.8-2.9-3.2c-0.2-0.4-0.1-0.9-0.2-1.3c-1.9-7.6-8.9-12.9-17.2-13c-6.7-0.1-14.7,5.9-16.5,12.7
		c-2.2,8.2-1.2,15.7,5.1,22c1.1,1.1,2.8,2.6,0.8,4.2c-1.7,1.4-3.1,0-4.4-1.2c-1.8-1.8-2.6-4.1-3.8-6.3c-0.6-1-0.9-2.3-2.1-2.9
		c-3-1.4-7.8,1.4-9.7,5.6c-2.1,4.7-1.6,6.2,2.5,8.2c1.7,0.8,3.4,1.6,4.7,2.8c1.3,1.2,4,2.5,2.5,4.6c-1.7,2.2-3.5-0.1-5-1.2
		c-0.9-0.6-1.5-1.5-2.4-2.1c-4.6-2.9-9.5-3.3-14.3-0.7c-5.2,2.9-8,7.4-7.8,13.5c0.3,5.5,3.1,9.1,8.2,11c3.4,1.3,6.9,2.5,10.7,2.1
		c1.6-0.2,3.8-0.5,3.9,1.9c0,2.1-2.1,2.1-3.5,1.9c-4.4-0.6-5.1,2.3-5.4,5.5c-0.9,9.2,4.5,15.2,11.1,20.2
		C814.3,392.6,821.1,393.6,828.7,391.2z"/>
	<path class="st0" d="M828.7,391.2c-7.7,2.4-14.4,1.4-20.2-3c-6.5-5-12-10.9-11.1-20.2c0.3-3.2,1-6.1,5.4-5.5
		c1.4,0.2,3.6,0.2,3.5-1.9c0-2.5-2.3-2.1-3.9-1.9c-3.8,0.4-7.3-0.7-10.7-2.1c-5.1-2-8-5.6-8.2-11c-0.3-6.1,2.5-10.6,7.8-13.5
		c4.8-2.7,9.7-2.3,14.3,0.7c0.9,0.6,1.6,1.5,2.4,2.1c1.5,1.1,3.4,3.4,5,1.2c1.5-2.1-1.2-3.4-2.5-4.6c-1.3-1.2-3.1-2-4.7-2.8
		c-4.1-1.9-4.6-3.4-2.5-8.2c1.9-4.2,6.7-7,9.7-5.6c1.2,0.6,1.5,1.8,2.1,2.9c1.2,2.1,2,4.5,3.8,6.3c1.2,1.2,2.7,2.6,4.4,1.2
		c2-1.6,0.3-3.1-0.8-4.2c-6.3-6.3-7.3-13.8-5.1-22c1.8-6.8,9.8-12.8,16.5-12.7c8.3,0.2,15.3,5.5,17.2,13c0.1,0.4,0.1,0.9,0.2,1.3
		c0.6,1.4,0.8,3.8,2.9,3.2c2.2-0.6,1.4-2.6,1-4.3c-1.4-5.8-0.7-6.6,5.4-6.2c2.6,0.1,4.7,1.2,6.6,2.8c2.5,2.1,3.8,4-0.3,6
		c-3.7,1.8-6.2,4.9-7.1,9c-0.2,0.9-0.6,2.1,0.2,2.6c1,0.6,2.1,0,2.8-1c0.5-0.6,1-1.2,1.4-1.8c4.4-7.2,8-8.8,17.3-7.4
		c7.1,1.1,12.3,5.6,13.7,12.4c1,4.7,0.8,9.4-1.5,13.9c-1.1,2-2,2.9-4.1,1.1c-0.8-0.7-1.8-1.2-2.8-1.5c-1.3-0.4-2.7-0.8-3.6,0.9
		c-0.9,1.6-0.1,2.6,0.8,3.7c17.8,20.1,15.5,43.1-5.5,60.8c-9.3,7.9-19.3,9.6-30.1,5.3c-7.4-2.9-13.6-7.9-17.2-15.4
		c-0.5-1-0.9-2-1.5-2.9c-1.2-1.7-1.5-5.4-4.5-4c-3,1.4-1.5,4.6-0.5,6.9C825.9,387,827.3,388.9,828.7,391.2z M821.3,365.3
		c3.4-1,4.2-3.3,4.3-5.5c0.6-11.4,7.7-18.9,15.6-25.9c5.2-4.7,11.5-6.7,18.4-6.9c2.3-0.1,6.2,1.2,6.2-1.6c-0.1-2.8-4.1-1.9-6.6-2
		c-0.5,0-0.9,0.1-1.4,0.2c-13.6,2-23.5,9.6-31.1,20.5C822.3,350.3,821.2,357.4,821.3,365.3z"/>
	<path class="st1" d="M821.3,365.3c-0.1-7.9,1.1-15,5.4-21.3c7.6-10.9,17.5-18.6,31.1-20.5c0.5-0.1,0.9-0.2,1.4-0.2
		c2.5,0.1,6.5-0.8,6.6,2c0.1,2.8-3.9,1.5-6.2,1.6c-6.9,0.2-13.2,2.3-18.4,6.9c-7.8,7-14.9,14.5-15.6,25.9
		C825.4,362,824.6,364.3,821.3,365.3z"/>
</g>
<g>
	<path class="st1" d="M112.3,961c-7.5,0-14.2-2.3-19.7-7.3c-3.8-3.5-7.3-4.9-13-3.5c-13.9,3.5-36.1-6.5-35.4-28.5
		c0.1-3.7-1.3-5.3-4.2-6.9c-10.7-6.2-14.7-18.9-9.4-28.8c2.6-4.7,6.7-7.5,11.5-9.3c3.4-1.3,6-2.8,7.1-6.8c1-3.5,3.7-6.4,6.9-8.3
		c2.6-1.6,3.4-3.4,3.9-6.5c2.2-14.4,18.5-27.6,33.5-24.2c4.6,1,7.7,5.1,12.2,6.6c1.1,0.4,2,1.2,3.3,1c5.7-1.2,10.8,0.2,15.7,3.5
		c1.3,0.9,2.3,1.7,3.1,3c1.2,2.1,3,2.8,5.6,3.1c15.3,1.9,27.7,18.3,19.8,33.2c-3.1,5.9-3.2,10.4-0.9,16.4c4.1,10.8,4.5,22,0.2,32.8
		C146.5,945.2,131.1,961.6,112.3,961z M81.2,942.7c-1.5-2.4-2.9-4.2-3.8-6.3c-1.1-2.3-2.5-5.5,0.5-6.9c2.9-1.4,3.3,2.2,4.5,4
		c0.6,0.9,1,1.9,1.5,2.9c3.6,7.5,9.8,12.5,17.2,15.4c10.9,4.3,20.8,2.6,30.1-5.3c21-17.8,23.3-40.8,5.5-60.8
		c-0.9-1.1-1.7-2.1-0.8-3.7c0.9-1.6,2.3-1.2,3.6-0.9c1,0.3,2.1,0.8,2.8,1.5c2,1.8,3,0.9,4.1-1.1c2.3-4.5,2.5-9.1,1.5-13.9
		c-1.4-6.8-6.6-11.3-13.7-12.4c-9.2-1.4-12.9,0.1-17.3,7.4c-0.4,0.6-0.9,1.2-1.4,1.8c-0.7,0.9-1.8,1.5-2.8,1
		c-0.8-0.5-0.4-1.7-0.2-2.6c0.9-4.1,3.5-7.2,7.1-9c4.1-2,2.8-3.9,0.3-6c-1.9-1.6-4.1-2.6-6.6-2.8c-6.1-0.4-6.8,0.4-5.4,6.2
		c0.4,1.7,1.2,3.7-1,4.3c-2.2,0.6-2.3-1.8-2.9-3.2c-0.2-0.4-0.1-0.9-0.2-1.3c-1.9-7.6-8.9-12.9-17.2-13c-6.7-0.1-14.7,5.9-16.5,12.7
		c-2.2,8.2-1.2,15.7,5.1,22c1.1,1.1,2.8,2.6,0.8,4.2c-1.7,1.4-3.1,0-4.4-1.2c-1.8-1.8-2.6-4.1-3.8-6.3c-0.6-1-0.9-2.3-2.1-2.9
		c-3-1.4-7.8,1.4-9.7,5.6c-2.1,4.7-1.6,6.2,2.5,8.2c1.7,0.8,3.4,1.6,4.7,2.8c1.3,1.2,4,2.5,2.5,4.6c-1.7,2.2-3.5-0.1-5-1.2
		c-0.9-0.6-1.5-1.5-2.4-2.1c-4.6-2.9-9.5-3.3-14.3-0.7c-5.2,2.9-8,7.4-7.8,13.5c0.3,5.5,3.1,9.1,8.2,11c3.4,1.3,6.9,2.5,10.7,2.1
		c1.6-0.2,3.8-0.5,3.9,1.9c0,2.1-2.1,2.1-3.5,1.9c-4.4-0.6-5.1,2.3-5.4,5.5c-0.9,9.2,4.5,15.2,11.1,20.2
		C66.8,944.1,73.6,945.1,81.2,942.7z"/>
	<path class="st0" d="M81.2,942.7c-7.7,2.4-14.4,1.4-20.2-3c-6.5-5-12-10.9-11.1-20.2c0.3-3.2,1-6.1,5.4-5.5
		c1.4,0.2,3.6,0.2,3.5-1.9c0-2.5-2.3-2.1-3.9-1.9c-3.8,0.4-7.3-0.7-10.7-2.1c-5.1-2-8-5.6-8.2-11c-0.3-6.1,2.5-10.6,7.8-13.5
		c4.8-2.7,9.7-2.3,14.3,0.7c0.9,0.6,1.6,1.5,2.4,2.1c1.5,1.1,3.4,3.4,5,1.2c1.5-2.1-1.2-3.4-2.5-4.6c-1.3-1.2-3.1-2-4.7-2.8
		c-4.1-1.9-4.6-3.4-2.5-8.2c1.9-4.2,6.7-7,9.7-5.6c1.2,0.6,1.5,1.8,2.1,2.9c1.2,2.1,2,4.5,3.8,6.3c1.2,1.2,2.7,2.6,4.4,1.2
		c2-1.6,0.3-3.1-0.8-4.2c-6.3-6.3-7.3-13.8-5.1-22c1.8-6.8,9.8-12.8,16.5-12.7c8.3,0.2,15.3,5.5,17.2,13c0.1,0.4,0.1,0.9,0.2,1.3
		c0.6,1.4,0.8,3.8,2.9,3.2c2.2-0.6,1.4-2.6,1-4.3c-1.4-5.8-0.7-6.6,5.4-6.2c2.6,0.1,4.7,1.2,6.6,2.8c2.5,2.1,3.8,4-0.3,6
		c-3.7,1.8-6.2,4.9-7.1,9c-0.2,0.9-0.6,2.1,0.2,2.6c1,0.6,2.1,0,2.8-1c0.5-0.6,1-1.2,1.4-1.8c4.4-7.2,8-8.8,17.3-7.4
		c7.1,1.1,12.3,5.6,13.7,12.4c1,4.7,0.8,9.4-1.5,13.9c-1.1,2-2,2.9-4.1,1.1c-0.8-0.7-1.8-1.2-2.8-1.5c-1.3-0.4-2.7-0.8-3.6,0.9
		c-0.9,1.6-0.1,2.6,0.8,3.7c17.8,20.1,15.5,43.1-5.5,60.8c-9.3,7.9-19.3,9.6-30.1,5.3c-7.4-2.9-13.6-7.9-17.2-15.4
		c-0.5-1-0.9-2-1.5-2.9c-1.2-1.7-1.5-5.4-4.5-4c-3,1.4-1.5,4.6-0.5,6.9C78.4,938.5,79.8,940.3,81.2,942.7z M73.8,916.8
		c3.4-1,4.2-3.3,4.3-5.5c0.6-11.4,7.7-18.9,15.6-25.9c5.2-4.7,11.5-6.7,18.4-6.9c2.3-0.1,6.2,1.2,6.2-1.6c-0.1-2.8-4.1-1.9-6.6-2
		c-0.5,0-0.9,0.1-1.4,0.2c-13.6,2-23.5,9.6-31.1,20.5C74.8,901.8,73.7,908.9,73.8,916.8z"/>
	<path class="st1" d="M73.8,916.8c-0.1-7.9,1.1-15,5.4-21.3c7.6-10.9,17.5-18.6,31.1-20.5c0.5-0.1,0.9-0.2,1.4-0.2
		c2.5,0.1,6.5-0.8,6.6,2c0.1,2.8-3.9,1.5-6.2,1.6c-6.9,0.2-13.2,2.3-18.4,6.9c-7.8,7-14.9,14.5-15.6,25.9
		C77.9,913.4,77.1,915.7,73.8,916.8z"/>
</g>
<g>
	<path class="st1" d="M240.8,271.4c-7.7,0.3-14.6-2.8-20.6-8.3c-3-2.7-5.9-3.8-10.3-2.7c-15.4,3.8-31.7-5.9-36.4-21.1
		c-0.2-0.6-0.6-1.2-0.4-1.8c1.8-7.5-2.6-11-7.9-15.3c-13.2-10.7-9.8-29.1,6-35.2c3.6-1.4,6.1-3.1,7.1-6.9c0.2-1,0.9-1.9,1.5-2.8
		c2.3-3.8,7.3-5.2,9.2-8.7c1.7-3.3,0.9-8,3.1-11.7c4.6-7.9,11.2-13.3,20-15.6c7.4-2,13.9,0.2,19.8,4.8c2.7,2.1,5.4,3.2,9.2,2.5
		c6.4-1.1,11.5,2,15.7,6.7c1.6,1.7,2.9,3.2,5.6,3.5c19,2.2,28.2,21,18.3,37.3c-1.6,2.7-1.7,4.6-0.6,7.4c5.2,13.1,6.8,26.7,0.6,39.7
		C272.5,259.6,258.5,271.6,240.8,271.4z M239.9,264.7c11.3-0.2,18.5-5.2,24.9-12c16.5-17.3,17-37.9,1.5-56c-0.8-1-1.7-2.3-1.2-3.5
		c0.7-1.5,2.4-1,3.7-0.8c1,0.2,2.2,0.3,2.9,0.9c1.6,1.3,2.3,0.6,3.2-0.8c4.7-7.5,2.4-19.7-4.8-24.2c-9.1-5.8-19-3.8-24.3,4.8
		c-0.2,0.3-0.3,0.5-0.5,0.8c-0.8,1.2-2,2.4-3.4,1.7c-1.1-0.6-0.7-2.3-0.3-3.4c1.3-4.2,4.4-6.9,8.2-8.8c1.8-0.9,2.3-1.6,0.9-3.3
		c-2.8-3.4-6.3-5.4-10.8-4.7c-3.1,0.4-6.6,0.7-3.4,5.4c0.9,1.3,1.8,4-0.4,4.8c-2.4,0.9-2.6-1.8-3.2-3.3c-0.2-0.4-0.3-0.9-0.4-1.3
		c-0.6-4.8-3.7-7.7-7.6-10.3c-8.2-5.3-22.1-1.7-25.5,8.2c-2.9,8.7-2.2,16.4,4.1,23.4c1.2,1.3,3.7,2.9,1.2,4.8c-2,1.5-3.8-0.3-4.9-2
		c-1.3-1.9-2.5-3.9-3.3-6c-1-2.6-3-2.8-5.2-2.4c-3.5,0.5-6.8,4.8-7.7,9.2c-0.9,4.3,2.9,3.8,4.8,5.2c0.5,0.3,1.1,0.5,1.6,0.8
		c2.2,1.2,4.1,2.8,4.8,5.3c0.1,0.3-0.6,1.1-1.1,1.2c-2.8,0.7-4-1.7-5.7-3.1c-5.4-4.6-13.6-4.2-18.8,0.9c-5.3,5.2-6.2,13.2-1.6,18.6
		c4.2,4.8,9.9,6.1,16.1,5.8c1.6-0.1,4-0.3,4,1.8c0,2.2-2.3,2.1-3.9,1.9c-3.8-0.5-4.6,1.7-5.1,4.8c-1.9,13.9,14.2,28.3,27.8,24.9
		c2.3-0.6,3.4-1.1,1.7-3.5c-1.2-1.8-2.2-3.9-2.9-5.9c-0.6-1.5-0.8-3.1,1.4-4.1c2.3-1.1,2.6,0.6,3.3,1.8c1,1.7,1.8,3.6,2.7,5.3
		C219.5,258.5,229.4,263.4,239.9,264.7z"/>
	<path class="st0" d="M239.9,264.7c-10.5-1.3-20.4-6.2-26.6-17.1c-1-1.7-1.7-3.6-2.7-5.3c-0.7-1.2-1-2.9-3.3-1.8
		c-2.3,1-2,2.6-1.4,4.1c0.8,2.1,1.7,4.1,2.9,5.9c1.6,2.5,0.6,2.9-1.7,3.5c-13.6,3.4-29.7-11-27.8-24.9c0.4-3.1,1.3-5.2,5.1-4.8
		c1.6,0.2,4,0.3,3.9-1.9c0-2.1-2.3-1.9-4-1.8c-6.2,0.3-12-1-16.1-5.8c-4.7-5.3-3.8-13.4,1.6-18.6c5.2-5.1,13.4-5.4,18.8-0.9
		c1.7,1.4,2.9,3.8,5.7,3.1c0.5-0.1,1.2-0.9,1.1-1.2c-0.7-2.5-2.6-4.1-4.8-5.3c-0.5-0.3-1.1-0.5-1.6-0.8c-2-1.4-5.7-0.9-4.8-5.2
		c0.9-4.5,4.1-8.7,7.7-9.2c2.2-0.3,4.2-0.1,5.2,2.4c0.8,2.1,2,4.1,3.3,6c1.1,1.7,2.9,3.5,4.9,2c2.5-1.9,0-3.5-1.2-4.8
		c-6.4-6.9-7.1-14.7-4.1-23.4c3.3-9.9,17.3-13.6,25.5-8.2c3.9,2.5,6.9,5.5,7.6,10.3c0.1,0.5,0.2,0.9,0.4,1.3
		c0.7,1.6,0.8,4.3,3.2,3.3c2.2-0.8,1.3-3.5,0.4-4.8c-3.2-4.7,0.3-5,3.4-5.4c4.5-0.6,8,1.3,10.8,4.7c1.4,1.7,0.9,2.4-0.9,3.3
		c-3.8,1.9-6.9,4.6-8.2,8.8c-0.3,1.1-0.8,2.8,0.3,3.4c1.3,0.7,2.5-0.5,3.4-1.7c0.2-0.3,0.3-0.5,0.5-0.8c5.3-8.7,15.2-10.6,24.3-4.8
		c7.1,4.6,9.5,16.8,4.8,24.2c-0.9,1.4-1.6,2.1-3.2,0.8c-0.7-0.6-1.9-0.7-2.9-0.9c-1.3-0.3-3-0.8-3.7,0.8c-0.5,1.2,0.3,2.5,1.2,3.5
		c15.5,18.1,15,38.7-1.5,56C258.5,259.5,251.2,264.5,239.9,264.7z M203.2,227.2c3.3-2.1,3.6-2.1,3.6-5.4
		c0.1-16.9,21.5-35.7,36.6-32.8c1.6,0.3,4.1,0.1,4.2-1.7c0.1-1.9-2.5-1.7-4-2.1c-0.4-0.1-0.9-0.1-1.4-0.1
		C223.7,185.6,200.3,205.2,203.2,227.2z"/>
	<path class="st1" d="M203.2,227.2c-2.9-22.1,20.4-41.6,39-42.2c0.5,0,0.9-0.1,1.4,0.1c1.5,0.5,4.1,0.2,4,2.1
		c-0.1,1.9-2.5,2.1-4.2,1.7c-15.1-2.9-36.5,16-36.6,32.8C206.8,225.1,206.6,225.1,203.2,227.2z"/>
</g>
<g>
	<path class="st1" d="M631.1,242.8c4.9,0.2,9.9,0.3,13.7,4.1c1.1,1.2,1.2,0.3,1.9-0.3c3.1-2.7,6.5-5.1,10.5-6.4
		c14.7-4.9,27.5,6,26.4,22.6c-0.2,2.9,0.1,5,2.5,6.8c2.7,2,4.6,5,5,8c0.7,5.5,3.6,8.4,7.9,11.6c9.6,7.3,13,22.8,8.1,33.8
		c-2.3,5.1-6.3,8.6-11.2,11c-2.8,1.3-4.4,3.2-5.1,6.4c-1.6,6.5-6.2,10.4-12.7,11.8c-2.3,0.5-3.7,1.5-4.8,3.6
		c-10.1,19.5-32.9,15.4-42.1,1.5c-1.7-2.6-3.5-3.1-6.3-3.2c-16.8-0.6-31.1-6.5-40.8-20.8c-5.1-7.5-8.5-16-9-25.2
		c-0.8-15.8,7.3-26.3,20.6-33.3c3.3-1.8,5.1-3.5,5.1-7.5C600.8,256.6,614.9,241.7,631.1,242.8z M582.3,298.5
		c-1.3,4.6-1.2,9.5-0.1,14.2c1.7,7.7,5.4,14.5,10.5,20.6c7,8.4,16.6,12.5,27.1,14c6,0.9,12.2,0.3,17.7-2.9c1-0.6,2-0.9,2.9,0.1
		c1,1,1.1,2.1,0.7,3.4c-0.5,1.5-1.9,1.9-3.2,2.4c-2,0.8-2.4,1.5-1,3.6c5.3,7.5,11,9.7,19.7,7.4c11.1-3,16-16.1,9.6-25.7
		c-0.5-0.8-1.1-1.6-1.2-2.4c-0.1-0.8-0.1-2.1,0.4-2.6c0.8-0.8,1.7,0.2,2.4,0.7c3.2,2.5,4.7,6,5.4,9.8c1,4.9,1.2,5.1,5.8,2.8
		c3.7-1.8,6.1-4.8,6-9c-0.1-4.1-3.9-2.2-6-3.2c-1.1-0.5-2.7-0.6-2.4-2.2c0.2-1.3,1.6-1.9,2.9-1.8c1,0,2.1,0.3,3.1,0.5
		c7.1,1.1,14.7-2.7,18.1-9.1c3.1-5.9,1.8-14.1-3.1-20c-4.8-5.8-13.9-8.6-20.8-6.5c-0.9,0.3-1.7,0.6-2.6,1c-1.7,0.7-3.7,0.8-4.3-1.1
		c-0.6-1.8,1.3-2.7,2.6-3.1c2.3-0.7,4.7-1.3,7.1-1.3c4.3,0,5.1-2.3,4.8-5.9c-0.2-3.1-1.7-5.5-3.9-7.5c-2.2-1.9-4.2-2.7-6.5,0.2
		c-1.8,2.3-4.4,3.7-7.3,4.7c-1.2,0.4-2.5,0.5-3.2-0.9c-0.6-1.3,0.5-2,1.4-2.5c1.4-0.9,2.9-1.6,4.4-2.5c5.4-3.1,7-8.3,7.2-14
		c0.2-5.6-3.2-9.1-8-11.2c-5.4-2.3-10.5-1.6-14.9,2.5c-2.8,2.6-5.4,5.4-6.1,9.4c-0.2,1.5-1.3,3.1-3.2,2.5c-1.7-0.6-1.2-2.1-0.8-3.5
		c1.4-4.7-0.2-7.5-5.2-9.1c-9.9-3.1-26.4,2.9-30.7,15.1c-1.4,3.8-0.4,5.1,3.6,4.8c1.4-0.1,2.8-0.4,4.1-0.3c2.2,0.1,5.3-0.4,5.6,2.6
		c0.3,3.4-3,2.8-5.1,2.9c-7.7,0.4-14.8,2.7-21.1,7C588.5,286.5,584.2,291.9,582.3,298.5z"/>
	<path class="st0" d="M582.2,312.7c-1-4.7-1.2-9.6,0.1-14.2c1.9-6.7,6.1-12.1,12.4-16.3c6.3-4.3,13.4-6.6,21.1-7
		c2.1-0.1,5.4,0.5,5.1-2.9c-0.2-3-3.4-2.5-5.6-2.6c-1.4-0.1-2.7,0.2-4.1,0.3c-4,0.3-5-0.9-3.6-4.8c4.4-12.2,20.8-18.2,30.7-15.1
		c5,1.6,6.6,4.4,5.2,9.1c-0.4,1.4-0.9,3,0.8,3.5c1.9,0.6,2.9-1,3.2-2.5c0.7-4.1,3.3-6.8,6.1-9.4c4.4-4.1,9.5-4.8,14.9-2.5
		c4.8,2.1,8.2,5.6,8,11.2c-0.2,5.7-1.8,10.9-7.2,14c-1.5,0.8-3,1.5-4.4,2.5c-0.8,0.5-2,1.2-1.4,2.5c0.7,1.4,2,1.3,3.2,0.9
		c2.8-0.9,5.4-2.4,7.3-4.7c2.3-2.9,4.4-2.1,6.5-0.2c2.2,2,3.7,4.4,3.9,7.5c0.3,3.6-0.5,5.9-4.8,5.9c-2.4,0-4.8,0.6-7.1,1.3
		c-1.4,0.4-3.3,1.3-2.6,3.1c0.7,1.9,2.6,1.8,4.3,1.1c0.9-0.3,1.7-0.7,2.6-1c6.9-2.1,16,0.7,20.8,6.5c4.9,6,6.2,14.1,3.1,20
		c-3.4,6.4-11,10.3-18.1,9.1c-1-0.2-2.1-0.5-3.1-0.5c-1.3,0-2.6,0.5-2.9,1.8c-0.3,1.6,1.4,1.7,2.4,2.2c2.1,1,5.9-0.9,6,3.2
		c0.1,4.2-2.3,7.2-6,9c-4.6,2.3-4.8,2.1-5.8-2.8c-0.8-3.8-2.2-7.3-5.4-9.8c-0.7-0.5-1.6-1.5-2.4-0.7c-0.5,0.5-0.6,1.7-0.4,2.6
		c0.1,0.9,0.7,1.7,1.2,2.4c6.4,9.6,1.5,22.8-9.6,25.7c-8.7,2.3-14.4,0.1-19.7-7.4c-1.5-2.1-1.1-2.8,1-3.6c1.3-0.5,2.7-0.9,3.2-2.4
		c0.4-1.2,0.3-2.4-0.7-3.4c-1-1-2-0.7-2.9-0.1c-5.5,3.2-11.6,3.8-17.7,2.9c-10.6-1.5-20.2-5.7-27.1-14
		C587.6,327.2,583.9,320.5,582.2,312.7z M659.3,315.6c0.1-1.7,0.1-3.4-0.1-5.1c-0.1-1.1-0.3-2.4-0.6-3.7c-3-13.2-9-24.3-21.2-31.2
		c-1-0.5-2.4-2.2-3.5-0.3c-0.8,1.4,0.2,2.6,1.4,3.5c0.6,0.5,1.2,1,1.8,1.4c12.4,6.3,16.4,17.8,18.9,30.2c1.2,6.1-1.9,11.3-3.3,16.9
		c-0.3,1.3-1.6,3.3,0.4,3.9c1.6,0.5,2.5-1.5,3.1-2.9C657.8,324.3,658.9,320.3,659.3,315.6z"/>
	<path class="st1" d="M659.2,310.5c0.2,1.7,0.2,3.4,0.1,5.1c-0.4,4.7-1.5,8.7-3.1,12.7c-0.5,1.4-1.4,3.4-3.1,2.9
		c-2-0.6-0.7-2.6-0.4-3.9c1.4-5.6,4.5-10.8,3.3-16.9c-2.5-12.4-6.5-23.9-18.9-30.2c-0.7-0.3-1.2-0.9-1.8-1.4
		c-1.1-0.9-2.2-2.1-1.4-3.5c1.1-1.9,2.5-0.3,3.5,0.3c12.2,6.9,18.2,18,21.2,31.2C658.9,308,659.1,309.3,659.2,310.5z"/>
</g>
<g>
	<path class="st1" d="M948.2,753.1c4.9,0.2,9.9,0.3,13.7,4.1c1.1,1.2,1.2,0.3,1.9-0.3c3.1-2.7,6.5-5.1,10.5-6.4
		c14.7-4.9,27.5,6,26.4,22.6c-0.2,2.9,0.1,5,2.5,6.8c2.7,2,4.6,5,5,8c0.7,5.5,3.6,8.4,7.9,11.6c9.6,7.3,13,22.8,8.1,33.8
		c-2.3,5.1-6.3,8.6-11.2,11c-2.8,1.3-4.4,3.2-5.1,6.4c-1.6,6.5-6.2,10.4-12.7,11.8c-2.3,0.5-3.7,1.5-4.8,3.6
		c-10.1,19.5-32.9,15.4-42.1,1.5c-1.7-2.6-3.5-3.1-6.3-3.2c-16.8-0.6-31.1-6.5-40.8-20.8c-5.1-7.5-8.5-16-9-25.2
		c-0.8-15.8,7.3-26.3,20.6-33.3c3.3-1.8,5.1-3.5,5.1-7.5C917.9,766.9,932,751.9,948.2,753.1z M899.4,808.8
		c-1.3,4.6-1.2,9.5-0.1,14.2c1.7,7.7,5.4,14.5,10.5,20.6c7,8.4,16.6,12.5,27.1,14c6,0.9,12.2,0.3,17.7-2.9c1-0.6,2-0.9,2.9,0.1
		c1,1,1.1,2.1,0.7,3.4c-0.5,1.5-1.9,1.9-3.2,2.4c-2,0.8-2.4,1.5-1,3.6c5.3,7.5,11,9.7,19.7,7.4c11.1-3,16-16.1,9.6-25.7
		c-0.5-0.8-1.1-1.6-1.2-2.4c-0.1-0.8-0.1-2.1,0.4-2.6c0.8-0.8,1.7,0.2,2.4,0.7c3.2,2.5,4.7,6,5.4,9.8c1,4.9,1.2,5.1,5.8,2.8
		c3.7-1.8,6.1-4.8,6-9c-0.1-4.1-3.9-2.2-6-3.2c-1.1-0.5-2.7-0.6-2.4-2.2c0.2-1.3,1.6-1.9,2.9-1.8c1,0,2.1,0.3,3.1,0.5
		c7.1,1.1,14.7-2.7,18.1-9.1c3.1-5.9,1.8-14.1-3.1-20c-4.8-5.8-13.9-8.6-20.8-6.5c-0.9,0.3-1.7,0.6-2.6,1c-1.7,0.7-3.7,0.8-4.3-1.1
		c-0.6-1.8,1.3-2.7,2.6-3.1c2.3-0.7,4.7-1.3,7.1-1.3c4.3,0,5.1-2.3,4.8-5.9c-0.2-3.1-1.7-5.5-3.9-7.5c-2.2-1.9-4.2-2.7-6.5,0.2
		c-1.8,2.3-4.4,3.7-7.3,4.7c-1.2,0.4-2.5,0.5-3.2-0.9c-0.6-1.3,0.5-2,1.4-2.5c1.4-0.9,2.9-1.6,4.4-2.5c5.4-3.1,7-8.3,7.2-14
		c0.2-5.6-3.2-9.1-8-11.2c-5.4-2.3-10.5-1.6-14.9,2.5c-2.8,2.6-5.4,5.4-6.1,9.4c-0.2,1.5-1.3,3.1-3.2,2.5c-1.7-0.6-1.2-2.1-0.8-3.5
		c1.4-4.7-0.2-7.5-5.2-9.1c-9.9-3.1-26.4,2.9-30.7,15.1c-1.4,3.8-0.4,5.1,3.6,4.8c1.4-0.1,2.8-0.4,4.1-0.3c2.2,0.1,5.3-0.4,5.6,2.6
		c0.3,3.4-3,2.8-5.1,2.9c-7.7,0.4-14.8,2.7-21.1,7C905.6,796.7,901.3,802.1,899.4,808.8z"/>
	<path class="st0" d="M899.3,823c-1-4.7-1.2-9.6,0.1-14.2c1.9-6.7,6.1-12.1,12.4-16.3c6.3-4.3,13.4-6.6,21.1-7
		c2.1-0.1,5.4,0.5,5.1-2.9c-0.2-3-3.4-2.5-5.6-2.6c-1.4-0.1-2.7,0.2-4.1,0.3c-4,0.3-5-0.9-3.6-4.8c4.4-12.2,20.8-18.2,30.7-15.1
		c5,1.6,6.6,4.4,5.2,9.1c-0.4,1.4-0.9,3,0.8,3.5c1.9,0.6,2.9-1,3.2-2.5c0.7-4.1,3.3-6.8,6.1-9.4c4.4-4.1,9.5-4.8,14.9-2.5
		c4.8,2.1,8.2,5.6,8,11.2c-0.2,5.7-1.8,10.9-7.2,14c-1.5,0.8-3,1.5-4.4,2.5c-0.8,0.5-2,1.2-1.4,2.5c0.7,1.4,2,1.3,3.2,0.9
		c2.8-0.9,5.4-2.4,7.3-4.7c2.3-2.9,4.4-2.1,6.5-0.2c2.2,2,3.7,4.4,3.9,7.5c0.3,3.6-0.5,5.9-4.8,5.9c-2.4,0-4.8,0.6-7.1,1.3
		c-1.4,0.4-3.3,1.3-2.6,3.1c0.7,1.9,2.6,1.8,4.3,1.1c0.9-0.3,1.7-0.7,2.6-1c6.9-2.1,16,0.7,20.8,6.5c4.9,6,6.2,14.1,3.1,20
		c-3.4,6.4-11,10.3-18.1,9.1c-1-0.2-2.1-0.5-3.1-0.5c-1.3,0-2.6,0.5-2.9,1.8c-0.3,1.6,1.4,1.7,2.4,2.2c2.1,1,5.9-0.9,6,3.2
		c0.1,4.2-2.3,7.2-6,9c-4.6,2.3-4.8,2.1-5.8-2.8c-0.8-3.8-2.2-7.3-5.4-9.8c-0.7-0.5-1.6-1.5-2.4-0.7c-0.5,0.5-0.6,1.7-0.4,2.6
		c0.1,0.9,0.7,1.7,1.2,2.4c6.4,9.6,1.5,22.8-9.6,25.7c-8.7,2.3-14.4,0.1-19.7-7.4c-1.5-2.1-1.1-2.8,1-3.6c1.3-0.5,2.7-0.9,3.2-2.4
		c0.4-1.2,0.3-2.4-0.7-3.4c-1-1-2-0.7-2.9-0.1c-5.5,3.2-11.6,3.8-17.7,2.9c-10.6-1.5-20.2-5.7-27.1-14
		C904.7,837.5,901,830.7,899.3,823z M976.4,825.9c0.1-1.7,0.1-3.4-0.1-5.1c-0.1-1.1-0.3-2.4-0.6-3.7c-3-13.2-9-24.3-21.2-31.2
		c-1-0.5-2.4-2.2-3.5-0.3c-0.8,1.4,0.2,2.6,1.4,3.5c0.6,0.5,1.2,1,1.8,1.4c12.4,6.3,16.4,17.8,18.9,30.2c1.2,6.1-1.9,11.3-3.3,16.9
		c-0.3,1.3-1.6,3.3,0.4,3.9c1.6,0.5,2.5-1.5,3.1-2.9C974.9,834.6,976.1,830.6,976.4,825.9z"/>
	<path class="st1" d="M976.3,820.8c0.2,1.7,0.2,3.4,0.1,5.1c-0.4,4.7-1.5,8.7-3.1,12.7c-0.5,1.4-1.4,3.4-3.1,2.9
		c-2-0.6-0.7-2.6-0.4-3.9c1.4-5.6,4.5-10.8,3.3-16.9c-2.5-12.4-6.5-23.9-18.9-30.2c-0.7-0.3-1.2-0.9-1.8-1.4
		c-1.1-0.9-2.2-2.1-1.4-3.5c1.1-1.9,2.5-0.3,3.5,0.3c12.2,6.9,18.2,18,21.2,31.2C976,818.3,976.2,819.6,976.3,820.8z"/>
</g>
<g>
	<path class="st1" d="M684.7,437.1c4.9,0.2,9.9,0.3,13.7,4.1c1.1,1.2,1.2,0.3,1.9-0.3c3.1-2.7,6.5-5.1,10.5-6.4
		c14.7-4.9,27.5,6,26.4,22.6c-0.2,2.9,0.1,5,2.5,6.8c2.7,2,4.6,5,5,8c0.7,5.5,3.6,8.4,7.9,11.6c9.6,7.3,13,22.8,8.1,33.8
		c-2.3,5.1-6.3,8.6-11.2,11c-2.8,1.3-4.4,3.2-5.1,6.4c-1.6,6.5-6.2,10.4-12.7,11.8c-2.3,0.5-3.7,1.5-4.8,3.6
		c-10.1,19.5-32.9,15.4-42.1,1.5c-1.7-2.6-3.5-3.1-6.3-3.2c-16.8-0.6-31.1-6.5-40.8-20.8c-5.1-7.5-8.5-16-9-25.2
		c-0.8-15.8,7.3-26.3,20.6-33.3c3.3-1.8,5.1-3.5,5.1-7.5C654.5,450.9,668.5,436,684.7,437.1z M634.9,499.9
		c0.5,10.8,4.9,19.8,11.4,27.7c7,8.4,16.6,12.5,27.1,14c6,0.9,12.2,0.3,17.7-2.9c1-0.6,2-0.9,2.9,0.1c1,1,1.1,2.1,0.7,3.4
		c-0.5,1.5-1.9,1.9-3.2,2.4c-2,0.8-2.4,1.5-1,3.6c5.3,7.5,11,9.7,19.7,7.4c11.1-3,16-16.1,9.6-25.7c-0.5-0.8-1.1-1.6-1.2-2.4
		c-0.1-0.8-0.1-2.1,0.4-2.6c0.8-0.8,1.7,0.2,2.4,0.7c3.2,2.5,4.7,6,5.4,9.8c1,4.9,1.2,5.1,5.8,2.8c3.7-1.8,6.1-4.8,6-9
		c-0.1-4.1-3.9-2.2-6-3.2c-1.1-0.5-2.7-0.6-2.4-2.2c0.2-1.3,1.6-1.9,2.9-1.8c1,0,2.1,0.3,3.1,0.5c7.1,1.1,14.7-2.7,18.1-9.1
		c3.1-5.9,1.8-14.1-3.1-20c-4.8-5.8-13.9-8.6-20.8-6.5c-0.9,0.3-1.7,0.6-2.6,1c-1.7,0.7-3.7,0.8-4.3-1.1c-0.6-1.8,1.3-2.7,2.6-3.1
		c2.3-0.7,4.7-1.3,7.1-1.3c4.3,0,5.1-2.3,4.8-5.9c-0.2-3.1-1.7-5.5-3.9-7.5c-2.2-1.9-4.2-2.7-6.5,0.2c-1.8,2.3-4.4,3.7-7.3,4.7
		c-1.2,0.4-2.5,0.5-3.2-0.9c-0.6-1.3,0.5-2,1.4-2.5c1.4-0.9,2.9-1.6,4.4-2.5c5.4-3.1,7-8.3,7.2-14c0.2-5.6-3.2-9.1-8-11.2
		c-5.4-2.3-10.5-1.6-14.9,2.5c-2.8,2.6-5.4,5.4-6.1,9.4c-0.2,1.5-1.3,3.1-3.2,2.5c-1.7-0.6-1.2-2.1-0.8-3.5c1.4-4.7-0.2-7.5-5.2-9.1
		c-9.9-3.1-26.4,2.9-30.7,15.1c-1.4,3.8-0.4,5.1,3.6,4.8c1.4-0.1,2.8-0.4,4.1-0.3c2.2,0.1,5.3-0.4,5.6,2.6c0.3,3.4-3,2.8-5.1,2.9
		c-7.7,0.4-14.8,2.7-21.1,7C640,482.1,635.2,489.9,634.9,499.9z"/>
	<path class="st0" d="M634.9,499.9c0.3-10,5.2-17.7,13.4-23.4c6.3-4.3,13.4-6.6,21.1-7c2.1-0.1,5.4,0.5,5.1-2.9
		c-0.2-3-3.4-2.5-5.6-2.6c-1.4-0.1-2.7,0.2-4.1,0.3c-4,0.3-5-0.9-3.6-4.8c4.4-12.2,20.8-18.2,30.7-15.1c5,1.6,6.6,4.4,5.2,9.1
		c-0.4,1.4-0.9,3,0.8,3.5c1.9,0.6,2.9-1,3.2-2.5c0.7-4.1,3.3-6.8,6.1-9.4c4.4-4.1,9.5-4.8,14.9-2.5c4.8,2.1,8.2,5.6,8,11.2
		c-0.2,5.7-1.8,10.9-7.2,14c-1.5,0.8-3,1.5-4.4,2.5c-0.8,0.5-2,1.2-1.4,2.5c0.7,1.4,2,1.3,3.2,0.9c2.8-0.9,5.4-2.4,7.3-4.7
		c2.3-2.9,4.4-2.1,6.5-0.2c2.2,2,3.7,4.4,3.9,7.5c0.3,3.6-0.5,5.9-4.8,5.9c-2.4,0-4.8,0.6-7.1,1.3c-1.4,0.4-3.3,1.3-2.6,3.1
		c0.7,1.9,2.6,1.8,4.3,1.1c0.9-0.3,1.7-0.7,2.6-1c6.9-2.1,16,0.7,20.8,6.5c4.9,6,6.2,14.1,3.1,20c-3.4,6.4-11,10.3-18.1,9.1
		c-1-0.2-2.1-0.5-3.1-0.5c-1.3,0-2.6,0.5-2.9,1.8c-0.3,1.6,1.4,1.7,2.4,2.2c2.1,1,5.9-0.9,6,3.2c0.1,4.2-2.3,7.2-6,9
		c-4.6,2.3-4.8,2.1-5.8-2.8c-0.7-3.8-2.2-7.3-5.4-9.8c-0.7-0.5-1.6-1.5-2.4-0.7c-0.5,0.5-0.6,1.7-0.4,2.6c0.1,0.9,0.7,1.7,1.2,2.4
		c6.4,9.6,1.5,22.8-9.6,25.7c-8.7,2.3-14.4,0.1-19.7-7.4c-1.5-2.1-1.1-2.8,1-3.6c1.3-0.5,2.7-0.9,3.2-2.4c0.4-1.2,0.3-2.4-0.7-3.4
		c-1-1-2-0.7-2.9-0.1c-5.5,3.2-11.6,3.8-17.7,2.9c-10.6-1.5-20.2-5.7-27.1-14C639.8,519.7,635.4,510.7,634.9,499.9z M713.1,507
		C713.1,507,713.1,507,713.1,507c-0.2-1.4-0.3-3.7-0.8-5.9c-3-13.2-9-24.3-21.2-31.2c-1-0.5-2.4-2.2-3.5-0.3
		c-0.8,1.4,0.2,2.6,1.4,3.5c0.6,0.5,1.2,1,1.8,1.4c12.4,6.3,16.4,17.8,18.9,30.2c1.2,6.1-1.9,11.3-3.3,16.9
		c-0.3,1.3-1.6,3.3,0.4,3.9c1.6,0.5,2.5-1.5,3.1-2.9C711.7,517.8,713,513,713.1,507z"/>
	<path class="st1" d="M713.1,507C713.1,507,713.1,507,713.1,507c-0.1,6-1.4,10.8-3.2,15.6c-0.5,1.4-1.4,3.4-3.1,2.9
		c-2-0.6-0.7-2.6-0.4-3.9c1.4-5.6,4.5-10.8,3.3-16.9c-2.5-12.4-6.5-23.9-18.9-30.2c-0.7-0.3-1.2-0.9-1.8-1.4
		c-1.1-0.9-2.2-2.1-1.4-3.5c1.1-1.9,2.5-0.3,3.5,0.3c12.2,6.9,18.2,18,21.2,31.2C712.8,503.3,712.9,505.6,713.1,507z"/>
</g>
<g>
	<path class="st1" d="M513.9,754.3c4.9,0.2,9.9,0.3,13.7,4.1c1.1,1.2,1.2,0.3,1.9-0.3c3.1-2.7,6.5-5.1,10.5-6.4
		c14.7-4.9,27.5,6,26.4,22.6c-0.2,2.9,0.1,5,2.5,6.8c2.7,2,4.6,5,5,8c0.7,5.5,3.6,8.4,7.9,11.6c9.6,7.3,13,22.8,8.1,33.8
		c-2.3,5.1-6.3,8.6-11.2,11c-2.8,1.3-4.4,3.2-5.1,6.4c-1.6,6.5-6.2,10.4-12.7,11.8c-2.3,0.5-3.7,1.5-4.8,3.6
		c-10.1,19.5-32.9,15.4-42.1,1.5c-1.7-2.6-3.5-3.1-6.3-3.2c-16.8-0.6-31.1-6.5-40.8-20.8c-5.1-7.5-8.5-16-9-25.2
		c-0.8-15.8,7.3-26.3,20.6-33.3c3.3-1.8,5.1-3.5,5.1-7.5C483.7,768.1,497.7,753.2,513.9,754.3z M464.1,817.1
		c0.5,10.8,4.9,19.8,11.4,27.7c7,8.4,16.6,12.5,27.1,14c6,0.9,12.2,0.3,17.7-2.9c1-0.6,2-0.9,2.9,0.1c1,1,1.1,2.1,0.7,3.4
		c-0.5,1.5-1.9,1.9-3.2,2.4c-2,0.8-2.4,1.5-1,3.6c5.3,7.5,11,9.7,19.7,7.4c11.1-3,16-16.1,9.6-25.7c-0.5-0.8-1.1-1.6-1.2-2.4
		c-0.1-0.8-0.1-2.1,0.4-2.6c0.8-0.8,1.7,0.2,2.4,0.7c3.2,2.5,4.7,6,5.4,9.8c1,4.9,1.2,5.1,5.8,2.8c3.7-1.8,6.1-4.8,6-9
		c-0.1-4.1-3.9-2.2-6-3.2c-1.1-0.5-2.7-0.6-2.4-2.2c0.2-1.3,1.6-1.9,2.9-1.8c1,0,2.1,0.3,3.1,0.5c7.1,1.1,14.7-2.7,18.1-9.1
		c3.1-5.9,1.8-14.1-3.1-20c-4.8-5.8-13.9-8.6-20.8-6.5c-0.9,0.3-1.7,0.6-2.6,1c-1.7,0.7-3.7,0.8-4.3-1.1c-0.6-1.8,1.3-2.7,2.6-3.1
		c2.3-0.7,4.7-1.3,7.1-1.3c4.3,0,5.1-2.3,4.8-5.9c-0.2-3.1-1.7-5.5-3.9-7.5c-2.2-1.9-4.2-2.7-6.5,0.2c-1.8,2.3-4.4,3.7-7.3,4.7
		c-1.2,0.4-2.5,0.5-3.2-0.9c-0.6-1.3,0.5-2,1.4-2.5c1.4-0.9,2.9-1.6,4.4-2.5c5.4-3.1,7-8.3,7.2-14c0.2-5.6-3.2-9.1-8-11.2
		c-5.4-2.3-10.5-1.6-14.9,2.5c-2.8,2.6-5.4,5.4-6.1,9.4c-0.2,1.5-1.3,3.1-3.2,2.5c-1.7-0.6-1.2-2.1-0.8-3.5c1.4-4.7-0.2-7.5-5.2-9.1
		c-9.9-3.1-26.4,2.9-30.7,15.1c-1.4,3.8-0.4,5.1,3.6,4.8c1.4-0.1,2.8-0.4,4.1-0.3c2.2,0.1,5.3-0.4,5.6,2.6c0.3,3.4-3,2.8-5.1,2.9
		c-7.7,0.4-14.8,2.7-21.1,7C469.3,799.4,464.5,807.1,464.1,817.1z"/>
	<path class="st0" d="M464.1,817.1c0.3-10,5.2-17.7,13.4-23.4c6.3-4.3,13.4-6.6,21.1-7c2.1-0.1,5.4,0.5,5.1-2.9
		c-0.2-3-3.4-2.5-5.6-2.6c-1.4-0.1-2.7,0.2-4.1,0.3c-4,0.3-5-0.9-3.6-4.8c4.4-12.2,20.8-18.2,30.7-15.1c5,1.6,6.6,4.4,5.2,9.1
		c-0.4,1.4-0.9,3,0.8,3.5c1.9,0.6,2.9-1,3.2-2.5c0.7-4.1,3.3-6.8,6.1-9.4c4.4-4.1,9.5-4.8,14.9-2.5c4.8,2.1,8.2,5.6,8,11.2
		c-0.2,5.7-1.8,10.9-7.2,14c-1.5,0.8-3,1.5-4.4,2.5c-0.8,0.5-2,1.2-1.4,2.5c0.7,1.4,2,1.3,3.2,0.9c2.8-0.9,5.4-2.4,7.3-4.7
		c2.3-2.9,4.4-2.1,6.5-0.2c2.2,2,3.7,4.4,3.9,7.5c0.3,3.6-0.5,5.9-4.8,5.9c-2.4,0-4.8,0.6-7.1,1.3c-1.4,0.4-3.3,1.3-2.6,3.1
		c0.7,1.9,2.6,1.8,4.3,1.1c0.9-0.3,1.7-0.7,2.6-1c6.9-2.1,16,0.7,20.8,6.5c4.9,6,6.2,14.1,3.1,20c-3.4,6.4-11,10.3-18.1,9.1
		c-1-0.2-2.1-0.5-3.1-0.5c-1.3,0-2.6,0.5-2.9,1.8c-0.3,1.6,1.4,1.7,2.4,2.2c2.1,1,5.9-0.9,6,3.2c0.1,4.2-2.3,7.2-6,9
		c-4.6,2.3-4.8,2.1-5.8-2.8c-0.8-3.8-2.2-7.3-5.4-9.8c-0.7-0.5-1.6-1.5-2.4-0.7c-0.5,0.5-0.6,1.7-0.4,2.6c0.1,0.9,0.7,1.7,1.2,2.4
		c6.4,9.6,1.5,22.8-9.6,25.7c-8.7,2.3-14.4,0.1-19.7-7.4c-1.5-2.1-1.1-2.8,1-3.6c1.3-0.5,2.7-0.9,3.2-2.4c0.4-1.2,0.3-2.4-0.7-3.4
		c-1-1-2-0.7-2.9-0.1c-5.5,3.2-11.6,3.8-17.7,2.9c-10.6-1.5-20.2-5.7-27.1-14C469,837,464.6,827.9,464.1,817.1z M542.3,824.3
		C542.3,824.3,542.3,824.3,542.3,824.3c-0.2-1.4-0.3-3.7-0.8-5.9c-3-13.2-9-24.3-21.2-31.2c-1-0.5-2.4-2.2-3.5-0.3
		c-0.8,1.4,0.2,2.6,1.4,3.5c0.6,0.5,1.2,1,1.8,1.4c12.4,6.3,16.4,17.8,18.9,30.2c1.2,6.1-1.9,11.3-3.3,16.9
		c-0.3,1.3-1.6,3.3,0.4,3.9c1.6,0.5,2.5-1.5,3.1-2.9C541,835.1,542.3,830.2,542.3,824.3z"/>
	<path class="st1" d="M542.3,824.3C542.3,824.3,542.3,824.3,542.3,824.3c-0.1,6-1.4,10.8-3.2,15.6c-0.5,1.4-1.4,3.4-3.1,2.9
		c-2-0.6-0.7-2.6-0.4-3.9c1.4-5.6,4.5-10.8,3.3-16.9c-2.5-12.4-6.5-23.9-18.9-30.2c-0.7-0.3-1.2-0.9-1.8-1.4
		c-1.1-0.9-2.2-2.1-1.4-3.5c1.1-1.9,2.5-0.3,3.5,0.3c12.2,6.9,18.2,18,21.2,31.2C542,820.5,542.1,822.8,542.3,824.3z"/>
</g>
<g>
	<path class="st1" d="M192,392.1c4.9,0.2,9.9,0.3,13.7,4.1c1.1,1.2,1.2,0.3,1.9-0.3c3.1-2.7,6.5-5.1,10.5-6.4
		c14.7-4.9,27.5,6,26.4,22.6c-0.2,2.9,0.1,5,2.5,6.8c2.7,2,4.6,5,5,8c0.7,5.5,3.6,8.4,7.9,11.6c9.6,7.3,13,22.8,8.1,33.8
		c-2.3,5.1-6.3,8.6-11.2,11c-2.8,1.3-4.4,3.2-5.1,6.4c-1.6,6.5-6.2,10.4-12.7,11.8c-2.3,0.5-3.7,1.5-4.8,3.6
		c-10.1,19.5-32.9,15.4-42.1,1.5c-1.7-2.6-3.5-3.1-6.3-3.2c-16.8-0.6-31.1-6.5-40.8-20.8c-5.1-7.5-8.5-16-9-25.2
		c-0.8-15.8,7.3-26.3,20.6-33.3c3.3-1.8,5.1-3.5,5.1-7.5C161.8,405.8,175.8,390.9,192,392.1z M142.2,454.9
		c0.5,10.8,4.9,19.8,11.4,27.7c7,8.4,16.6,12.5,27.1,14c6,0.9,12.2,0.3,17.7-2.9c1-0.6,2-0.9,2.9,0.1c1,1,1.1,2.1,0.7,3.4
		c-0.5,1.5-1.9,1.9-3.2,2.4c-2,0.8-2.4,1.5-1,3.6c5.3,7.5,11,9.7,19.7,7.4c11.1-3,16-16.1,9.6-25.7c-0.5-0.8-1.1-1.6-1.2-2.4
		c-0.1-0.8-0.1-2.1,0.4-2.6c0.8-0.8,1.7,0.2,2.4,0.7c3.2,2.5,4.7,6,5.4,9.8c1,4.9,1.2,5.1,5.8,2.8c3.7-1.8,6.1-4.8,6-9
		c-0.1-4.1-3.9-2.2-6-3.2c-1.1-0.5-2.7-0.6-2.4-2.2c0.2-1.3,1.6-1.9,2.9-1.8c1,0,2.1,0.3,3.1,0.5c7.1,1.1,14.7-2.7,18.1-9.1
		c3.1-5.9,1.8-14.1-3.1-20c-4.8-5.8-13.9-8.6-20.8-6.5c-0.9,0.3-1.7,0.6-2.6,1c-1.7,0.7-3.7,0.8-4.3-1.1c-0.6-1.8,1.3-2.7,2.6-3.1
		c2.3-0.7,4.7-1.3,7.1-1.3c4.3,0,5.1-2.3,4.8-5.9c-0.2-3.1-1.7-5.5-3.9-7.5c-2.2-1.9-4.2-2.7-6.5,0.2c-1.8,2.3-4.4,3.7-7.3,4.7
		c-1.2,0.4-2.5,0.5-3.2-0.9c-0.6-1.3,0.5-2,1.4-2.5c1.4-0.9,2.9-1.6,4.4-2.5c5.4-3.1,7-8.3,7.2-14c0.2-5.6-3.2-9.1-8-11.2
		c-5.4-2.3-10.5-1.6-14.9,2.5c-2.8,2.6-5.4,5.4-6.1,9.4c-0.2,1.5-1.3,3.1-3.2,2.5c-1.7-0.6-1.2-2.1-0.8-3.5c1.4-4.7-0.2-7.5-5.2-9.1
		c-9.9-3.1-26.4,2.9-30.7,15.1c-1.4,3.8-0.4,5.1,3.6,4.8c1.4-0.1,2.8-0.4,4.1-0.3c2.2,0.1,5.3-0.4,5.6,2.6c0.3,3.4-3,2.8-5.1,2.9
		c-7.7,0.4-14.8,2.7-21.1,7C147.3,437.1,142.5,444.8,142.2,454.9z"/>
	<path class="st0" d="M142.2,454.9c0.3-10,5.2-17.7,13.4-23.4c6.3-4.3,13.4-6.6,21.1-7c2.1-0.1,5.4,0.5,5.1-2.9
		c-0.2-3-3.4-2.5-5.6-2.6c-1.4-0.1-2.7,0.2-4.1,0.3c-4,0.3-5-0.9-3.6-4.8c4.4-12.2,20.8-18.2,30.7-15.1c5,1.6,6.6,4.4,5.2,9.1
		c-0.4,1.4-0.9,3,0.8,3.5c1.9,0.6,2.9-1,3.2-2.5c0.7-4.1,3.3-6.8,6.1-9.4c4.4-4.1,9.5-4.8,14.9-2.5c4.8,2.1,8.2,5.6,8,11.2
		c-0.2,5.7-1.8,10.9-7.2,14c-1.5,0.8-3,1.5-4.4,2.5c-0.8,0.5-2,1.2-1.4,2.5c0.7,1.4,2,1.3,3.2,0.9c2.8-0.9,5.4-2.4,7.3-4.7
		c2.3-2.9,4.4-2.1,6.5-0.2c2.2,2,3.7,4.4,3.9,7.5c0.3,3.6-0.5,5.9-4.8,5.9c-2.4,0-4.8,0.6-7.1,1.3c-1.4,0.4-3.3,1.3-2.6,3.1
		c0.7,1.9,2.6,1.8,4.3,1.1c0.9-0.3,1.7-0.7,2.6-1c6.9-2.1,16,0.7,20.8,6.5c4.9,6,6.2,14.1,3.1,20c-3.4,6.4-11,10.3-18.1,9.1
		c-1-0.2-2.1-0.5-3.1-0.5c-1.3,0-2.6,0.5-2.9,1.8c-0.3,1.6,1.4,1.7,2.4,2.2c2.1,1,5.9-0.9,6,3.2c0.1,4.2-2.3,7.2-6,9
		c-4.6,2.3-4.8,2.1-5.8-2.8c-0.7-3.8-2.2-7.3-5.4-9.8c-0.7-0.5-1.6-1.5-2.4-0.7c-0.5,0.5-0.6,1.7-0.4,2.6c0.1,0.9,0.7,1.7,1.2,2.4
		c6.4,9.6,1.5,22.8-9.6,25.7c-8.7,2.3-14.4,0.1-19.7-7.4c-1.5-2.1-1.1-2.8,1-3.6c1.3-0.5,2.7-0.9,3.2-2.4c0.4-1.2,0.3-2.4-0.7-3.4
		c-1-1-2-0.7-2.9-0.1c-5.5,3.2-11.6,3.8-17.7,2.9c-10.6-1.5-20.2-5.7-27.1-14C147.1,474.7,142.7,465.6,142.2,454.9z M220.4,462
		C220.4,462,220.4,462,220.4,462c-0.2-1.4-0.3-3.7-0.8-5.9c-3-13.2-9-24.3-21.2-31.2c-1-0.5-2.4-2.2-3.5-0.3
		c-0.8,1.4,0.2,2.6,1.4,3.5c0.6,0.5,1.2,1,1.8,1.4c12.4,6.3,16.4,17.8,18.9,30.2c1.2,6.1-1.9,11.3-3.3,16.9
		c-0.3,1.3-1.6,3.3,0.4,3.9c1.6,0.5,2.5-1.5,3.1-2.9C219,472.8,220.3,468,220.4,462z"/>
	<path class="st1" d="M220.4,462C220.4,462,220.4,462,220.4,462c-0.1,6-1.4,10.8-3.2,15.6c-0.5,1.4-1.4,3.4-3.1,2.9
		c-2-0.6-0.7-2.6-0.4-3.9c1.4-5.6,4.5-10.8,3.3-16.9c-2.5-12.4-6.5-23.9-18.9-30.2c-0.7-0.3-1.2-0.9-1.8-1.4
		c-1.1-0.9-2.2-2.1-1.4-3.5c1.1-1.9,2.5-0.3,3.5,0.3c12.2,6.9,18.2,18,21.2,31.2C220.1,458.2,220.2,460.6,220.4,462z"/>
</g>
<g>
	<path class="st1" d="M436.5,551c0.2-4.9,0.3-9.9,4.1-13.7c1.2-1.1,0.3-1.2-0.3-1.9c-2.7-3.1-5.1-6.5-6.4-10.5
		c-4.9-14.7,6-27.5,22.6-26.4c2.9,0.2,5-0.1,6.8-2.5c2-2.7,5-4.6,8-5c5.5-0.7,8.4-3.6,11.6-7.9c7.3-9.6,22.8-13,33.8-8.1
		c5.1,2.3,8.6,6.3,11,11.2c1.3,2.8,3.2,4.4,6.4,5.1c6.5,1.6,10.4,6.2,11.8,12.7c0.5,2.3,1.5,3.7,3.6,4.8
		c19.5,10.1,15.4,32.9,1.5,42.1c-2.6,1.7-3.1,3.5-3.2,6.3c-0.6,16.8-6.5,31.1-20.8,40.8c-7.5,5.1-16,8.5-25.2,9
		c-15.8,0.8-26.3-7.3-33.3-20.6c-1.8-3.3-3.5-5.1-7.5-5.1C450.3,581.2,435.4,567.2,436.5,551z M499.3,600.8
		c10.8-0.5,19.8-4.9,27.7-11.4c8.4-7,12.5-16.6,14-27.1c0.9-6,0.3-12.2-2.9-17.7c-0.6-1-0.9-2,0.1-2.9c1-1,2.1-1.1,3.4-0.7
		c1.5,0.5,1.9,1.9,2.4,3.2c0.8,2,1.5,2.4,3.6,1c7.5-5.3,9.7-11,7.4-19.7c-3-11.1-16.1-16-25.7-9.6c-0.8,0.5-1.6,1.1-2.4,1.2
		c-0.8,0.1-2.1,0.1-2.6-0.4c-0.8-0.8,0.2-1.7,0.7-2.4c2.5-3.2,6-4.7,9.8-5.4c4.9-1,5.1-1.2,2.8-5.8c-1.8-3.7-4.8-6.1-9-6
		c-4.1,0.1-2.2,3.9-3.2,6c-0.5,1.1-0.6,2.7-2.2,2.4c-1.3-0.2-1.9-1.6-1.8-2.9c0-1,0.3-2.1,0.5-3.1c1.1-7.1-2.7-14.7-9.1-18.1
		c-5.9-3.1-14.1-1.8-20,3.1c-5.8,4.8-8.6,13.9-6.5,20.8c0.3,0.9,0.6,1.7,1,2.6c0.7,1.7,0.8,3.7-1.1,4.3c-1.8,0.6-2.7-1.3-3.1-2.6
		c-0.7-2.3-1.3-4.7-1.3-7.1c0-4.3-2.3-5.1-5.9-4.8c-3.1,0.2-5.5,1.7-7.5,3.9c-1.9,2.2-2.7,4.2,0.2,6.5c2.3,1.8,3.7,4.4,4.7,7.3
		c0.4,1.2,0.5,2.5-0.9,3.2c-1.3,0.6-2-0.5-2.5-1.4c-0.9-1.4-1.6-2.9-2.5-4.4c-3.1-5.4-8.3-7-14-7.2c-5.6-0.2-9.1,3.2-11.2,8
		c-2.3,5.4-1.6,10.5,2.5,14.9c2.6,2.8,5.4,5.4,9.4,6.1c1.5,0.2,3.1,1.3,2.5,3.2c-0.6,1.7-2.1,1.2-3.5,0.8c-4.7-1.4-7.5,0.2-9.1,5.2
		c-3.1,9.9,2.9,26.4,15.1,30.7c3.8,1.4,5.1,0.4,4.8-3.6c-0.1-1.4-0.4-2.8-0.3-4.1c0.1-2.2-0.4-5.3,2.6-5.6c3.4-0.3,2.8,3,2.9,5.1
		c0.4,7.7,2.7,14.8,7,21.1C481.6,595.7,489.3,600.5,499.3,600.8z"/>
	<path class="st0" d="M499.3,600.8c-10-0.3-17.7-5.2-23.4-13.4c-4.3-6.3-6.6-13.4-7-21.1c-0.1-2.1,0.5-5.4-2.9-5.1
		c-3,0.2-2.5,3.4-2.6,5.6c-0.1,1.4,0.2,2.7,0.3,4.1c0.3,4-0.9,5-4.8,3.6c-12.2-4.4-18.2-20.8-15.1-30.7c1.6-5,4.4-6.6,9.1-5.2
		c1.4,0.4,3,0.9,3.5-0.8c0.6-1.9-1-2.9-2.5-3.2c-4.1-0.7-6.8-3.3-9.4-6.1c-4.1-4.4-4.8-9.5-2.5-14.9c2.1-4.8,5.6-8.2,11.2-8
		c5.7,0.2,10.9,1.8,14,7.2c0.8,1.5,1.5,3,2.5,4.4c0.5,0.8,1.2,2,2.5,1.4c1.4-0.7,1.3-2,0.9-3.2c-0.9-2.8-2.4-5.4-4.7-7.3
		c-2.9-2.3-2.1-4.4-0.2-6.5c2-2.2,4.4-3.7,7.5-3.9c3.6-0.3,5.9,0.5,5.9,4.8c0,2.4,0.6,4.8,1.3,7.1c0.4,1.4,1.3,3.3,3.1,2.6
		c1.9-0.7,1.8-2.6,1.1-4.3c-0.3-0.9-0.7-1.7-1-2.6c-2.1-6.9,0.7-16,6.5-20.8c6-4.9,14.1-6.2,20-3.1c6.4,3.4,10.3,11,9.1,18.1
		c-0.2,1-0.5,2.1-0.5,3.1c0,1.3,0.5,2.6,1.8,2.9c1.6,0.3,1.7-1.4,2.2-2.4c1-2.1-0.9-5.9,3.2-6c4.2-0.1,7.2,2.3,9,6
		c2.3,4.6,2.1,4.8-2.8,5.8c-3.8,0.7-7.3,2.2-9.8,5.4c-0.5,0.7-1.5,1.6-0.7,2.4c0.5,0.5,1.7,0.6,2.6,0.4c0.9-0.1,1.7-0.7,2.4-1.2
		c9.6-6.4,22.8-1.5,25.7,9.6c2.3,8.7,0.1,14.4-7.4,19.7c-2.1,1.5-2.8,1.1-3.6-1c-0.5-1.3-0.9-2.7-2.4-3.2c-1.2-0.4-2.4-0.3-3.4,0.7
		c-1,1-0.7,2-0.1,2.9c3.2,5.5,3.8,11.6,2.9,17.7c-1.5,10.6-5.7,20.2-14,27.1C519.1,595.9,510.1,600.3,499.3,600.8z M506.4,522.6
		C506.4,522.6,506.4,522.6,506.4,522.6c-1.4,0.2-3.7,0.3-5.9,0.8c-13.2,3-24.3,9-31.2,21.2c-0.5,1-2.2,2.4-0.3,3.5
		c1.4,0.8,2.6-0.2,3.5-1.4c0.5-0.6,1-1.2,1.4-1.8c6.3-12.4,17.8-16.4,30.2-18.9c6.1-1.2,11.3,1.9,16.9,3.3c1.3,0.3,3.3,1.6,3.9-0.4
		c0.5-1.6-1.5-2.5-2.9-3.1C517.3,524,512.4,522.7,506.4,522.6z"/>
	<path class="st1" d="M506.4,522.6C506.4,522.6,506.4,522.6,506.4,522.6c6,0.1,10.8,1.4,15.6,3.2c1.4,0.5,3.4,1.4,2.9,3.1
		c-0.6,2-2.6,0.7-3.9,0.4c-5.6-1.4-10.8-4.5-16.9-3.3c-12.4,2.5-23.9,6.5-30.2,18.9c-0.3,0.7-0.9,1.2-1.4,1.8
		c-0.9,1.1-2.1,2.2-3.5,1.4c-1.9-1.1-0.3-2.5,0.3-3.5c6.9-12.2,18-18.2,31.2-21.2C502.7,522.9,505,522.8,506.4,522.6z"/>
</g>
<g>
	<path class="st1" d="M634.8,723.7c0.2-4.9,0.3-9.9,4.1-13.7c1.2-1.1,0.3-1.2-0.3-1.9c-2.7-3.1-5.1-6.5-6.4-10.5
		c-4.9-14.7,6-27.5,22.6-26.4c2.9,0.2,5-0.1,6.8-2.5c2-2.7,5-4.6,8-5c5.5-0.7,8.4-3.6,11.6-7.9c7.3-9.6,22.8-13,33.8-8.1
		c5.1,2.3,8.6,6.3,11,11.2c1.3,2.8,3.2,4.4,6.4,5.1c6.5,1.6,10.4,6.2,11.8,12.7c0.5,2.3,1.5,3.7,3.6,4.8
		c19.5,10.1,15.4,32.9,1.5,42.1c-2.6,1.7-3.1,3.5-3.2,6.3c-0.6,16.8-6.5,31.1-20.8,40.8c-7.5,5.1-16,8.5-25.2,9
		c-15.8,0.8-26.3-7.3-33.3-20.6c-1.8-3.3-3.5-5.1-7.5-5.1C648.6,754,633.7,739.9,634.8,723.7z M697.6,773.6
		c10.8-0.5,19.8-4.9,27.7-11.4c8.4-7,12.5-16.6,14-27.1c0.9-6,0.3-12.2-2.9-17.7c-0.6-1-0.9-2,0.1-2.9c1-1,2.1-1.1,3.4-0.7
		c1.5,0.5,1.9,1.9,2.4,3.2c0.8,2,1.5,2.4,3.6,1c7.5-5.3,9.7-11,7.4-19.7c-3-11.1-16.1-16-25.7-9.6c-0.8,0.5-1.6,1.1-2.4,1.2
		c-0.8,0.1-2.1,0.1-2.6-0.4c-0.8-0.8,0.2-1.7,0.7-2.4c2.5-3.2,6-4.7,9.8-5.4c4.9-1,5.1-1.2,2.8-5.8c-1.8-3.7-4.8-6.1-9-6
		c-4.1,0.1-2.2,3.9-3.2,6c-0.5,1.1-0.6,2.7-2.2,2.4c-1.3-0.2-1.9-1.6-1.8-2.9c0-1,0.3-2.1,0.5-3.1c1.1-7.1-2.7-14.7-9.1-18.1
		c-5.9-3.1-14.1-1.8-20,3.1c-5.8,4.8-8.6,13.9-6.5,20.8c0.3,0.9,0.6,1.7,1,2.6c0.7,1.7,0.8,3.7-1.1,4.3c-1.8,0.6-2.7-1.3-3.1-2.6
		c-0.7-2.3-1.3-4.7-1.3-7.1c0-4.3-2.3-5.1-5.9-4.8c-3.1,0.2-5.5,1.7-7.5,3.9c-1.9,2.2-2.7,4.2,0.2,6.5c2.3,1.8,3.7,4.4,4.7,7.3
		c0.4,1.2,0.5,2.5-0.9,3.2c-1.3,0.6-2-0.5-2.5-1.4c-0.9-1.4-1.6-2.9-2.5-4.4c-3.1-5.4-8.3-7-14-7.2c-5.6-0.2-9.1,3.2-11.2,8
		c-2.3,5.4-1.6,10.5,2.5,14.9c2.6,2.8,5.4,5.4,9.4,6.1c1.5,0.2,3.1,1.3,2.5,3.2c-0.6,1.7-2.1,1.2-3.5,0.8c-4.7-1.4-7.5,0.2-9.1,5.2
		c-3.1,9.9,2.9,26.4,15.1,30.7c3.8,1.4,5.1,0.4,4.8-3.6c-0.1-1.4-0.4-2.8-0.3-4.1c0.1-2.2-0.4-5.3,2.6-5.6c3.4-0.3,2.8,3,2.9,5.1
		c0.4,7.7,2.7,14.8,7,21.1C679.9,768.4,687.6,773.2,697.6,773.6z"/>
	<path class="st0" d="M697.6,773.6c-10-0.3-17.7-5.2-23.4-13.4c-4.3-6.3-6.6-13.4-7-21.1c-0.1-2.1,0.5-5.4-2.9-5.1
		c-3,0.2-2.5,3.4-2.6,5.6c-0.1,1.4,0.2,2.7,0.3,4.1c0.3,4-0.9,5-4.8,3.6c-12.2-4.4-18.2-20.8-15.1-30.7c1.6-5,4.4-6.6,9.1-5.2
		c1.4,0.4,3,0.9,3.5-0.8c0.6-1.9-1-2.9-2.5-3.2c-4.1-0.7-6.8-3.3-9.4-6.1c-4.1-4.4-4.8-9.5-2.5-14.9c2.1-4.8,5.6-8.2,11.2-8
		c5.7,0.2,10.9,1.8,14,7.2c0.8,1.5,1.5,3,2.5,4.4c0.5,0.8,1.2,2,2.5,1.4c1.4-0.7,1.3-2,0.9-3.2c-0.9-2.8-2.4-5.4-4.7-7.3
		c-2.9-2.3-2.1-4.4-0.2-6.5c2-2.2,4.4-3.7,7.5-3.9c3.6-0.3,5.9,0.5,5.9,4.8c0,2.4,0.6,4.8,1.3,7.1c0.4,1.4,1.3,3.3,3.1,2.6
		c1.9-0.7,1.8-2.6,1.1-4.3c-0.3-0.9-0.7-1.7-1-2.6c-2.1-6.9,0.7-16,6.5-20.8c6-4.9,14.1-6.2,20-3.1c6.4,3.4,10.3,11,9.1,18.1
		c-0.2,1-0.5,2.1-0.5,3.1c0,1.3,0.5,2.6,1.8,2.9c1.6,0.3,1.7-1.4,2.2-2.4c1-2.1-0.9-5.9,3.2-6c4.2-0.1,7.2,2.3,9,6
		c2.3,4.6,2.1,4.8-2.8,5.8c-3.8,0.8-7.3,2.2-9.8,5.4c-0.5,0.7-1.5,1.6-0.7,2.4c0.5,0.5,1.7,0.6,2.6,0.4c0.9-0.1,1.7-0.7,2.4-1.2
		c9.6-6.4,22.8-1.5,25.7,9.6c2.3,8.7,0.1,14.4-7.4,19.7c-2.1,1.5-2.8,1.1-3.6-1c-0.5-1.3-0.9-2.7-2.4-3.2c-1.2-0.4-2.4-0.3-3.4,0.7
		c-1,1-0.7,2-0.1,2.9c3.2,5.5,3.8,11.6,2.9,17.7c-1.5,10.6-5.7,20.2-14,27.1C717.5,768.7,708.4,773,697.6,773.6z M704.8,695.3
		C704.8,695.3,704.8,695.3,704.8,695.3c-1.4,0.2-3.7,0.3-5.9,0.8c-13.2,3-24.3,9-31.2,21.2c-0.5,1-2.2,2.4-0.3,3.5
		c1.4,0.8,2.6-0.2,3.5-1.4c0.5-0.6,1-1.2,1.4-1.8c6.3-12.4,17.8-16.4,30.2-18.9c6.1-1.2,11.3,1.9,16.9,3.3c1.3,0.3,3.3,1.6,3.9-0.4
		c0.5-1.6-1.5-2.5-2.9-3.1C715.6,696.7,710.7,695.4,704.8,695.3z"/>
	<path class="st1" d="M704.8,695.3C704.8,695.3,704.8,695.3,704.8,695.3c6,0.1,10.8,1.4,15.6,3.2c1.4,0.5,3.4,1.4,2.9,3.1
		c-0.6,2-2.6,0.7-3.9,0.4c-5.6-1.4-10.8-4.5-16.9-3.3c-12.4,2.5-23.9,6.5-30.2,18.9c-0.3,0.7-0.9,1.2-1.4,1.8
		c-0.9,1.1-2.1,2.2-3.5,1.4c-1.9-1.1-0.3-2.5,0.3-3.5c6.9-12.2,18-18.2,31.2-21.2C701,695.6,703.3,695.5,704.8,695.3z"/>
</g>
<g>
	<path class="st1" d="M863.1,502.1c4.9,0.2,9.9,0.3,13.7,4.1c1.1,1.2,1.2,0.3,1.9-0.3c3.1-2.7,6.5-5.1,10.5-6.4
		c14.7-4.9,27.5,6,26.4,22.6c-0.2,2.9,0.1,5,2.5,6.8c2.7,2,4.6,5,5,8c0.7,5.5,3.6,8.4,7.9,11.6c9.6,7.3,13,22.8,8.1,33.8
		c-2.3,5.1-6.3,8.6-11.2,11c-2.8,1.3-4.4,3.2-5.1,6.4c-1.6,6.5-6.2,10.4-12.7,11.8c-2.3,0.5-3.7,1.5-4.8,3.6
		c-10.1,19.5-32.9,15.4-42.1,1.5c-1.7-2.6-3.5-3.1-6.3-3.2c-16.8-0.6-31.1-6.5-40.8-20.8c-5.1-7.5-8.5-16-9-25.2
		c-0.8-15.8,7.3-26.3,20.6-33.3c3.3-1.8,5.1-3.5,5.1-7.5C832.9,515.9,846.9,501,863.1,502.1z M813.3,564.9
		c0.5,10.8,4.9,19.8,11.4,27.7c7,8.4,16.6,12.5,27.1,14c6,0.9,12.2,0.3,17.7-2.9c1-0.6,2-0.9,2.9,0.1c1,1,1.1,2.1,0.7,3.4
		c-0.5,1.5-1.9,1.9-3.2,2.4c-2,0.8-2.4,1.5-1,3.6c5.3,7.5,11,9.7,19.7,7.4c11.1-3,16-16.1,9.6-25.7c-0.5-0.8-1.1-1.6-1.2-2.4
		c-0.1-0.8-0.1-2.1,0.4-2.6c0.8-0.8,1.7,0.2,2.4,0.7c3.2,2.5,4.7,6,5.4,9.8c1,4.9,1.2,5.1,5.8,2.8c3.7-1.8,6.1-4.8,6-9
		c-0.1-4.1-3.9-2.2-6-3.2c-1.1-0.5-2.7-0.6-2.4-2.2c0.2-1.3,1.6-1.9,2.9-1.8c1,0,2.1,0.3,3.1,0.5c7.1,1.1,14.7-2.7,18.1-9.1
		c3.1-5.9,1.8-14.1-3.1-20c-4.8-5.8-13.9-8.6-20.8-6.5c-0.9,0.3-1.7,0.6-2.6,1c-1.7,0.7-3.7,0.8-4.3-1.1c-0.6-1.8,1.3-2.7,2.6-3.1
		c2.3-0.7,4.7-1.3,7.1-1.3c4.3,0,5.1-2.3,4.8-5.9c-0.2-3.1-1.7-5.5-3.9-7.5c-2.2-1.9-4.2-2.7-6.5,0.2c-1.8,2.3-4.4,3.7-7.3,4.7
		c-1.2,0.4-2.5,0.5-3.2-0.9c-0.6-1.3,0.5-2,1.4-2.5c1.4-0.9,2.9-1.6,4.4-2.5c5.4-3.1,7-8.3,7.2-14c0.2-5.6-3.2-9.1-8-11.2
		c-5.4-2.3-10.5-1.6-14.9,2.5c-2.8,2.6-5.4,5.4-6.1,9.4c-0.2,1.5-1.3,3.1-3.2,2.5c-1.7-0.6-1.2-2.1-0.8-3.5c1.4-4.7-0.2-7.5-5.2-9.1
		c-9.9-3.1-26.4,2.9-30.7,15.1c-1.4,3.8-0.4,5.1,3.6,4.8c1.4-0.1,2.8-0.4,4.1-0.3c2.2,0.1,5.3-0.4,5.6,2.6c0.3,3.4-3,2.8-5.1,2.9
		c-7.7,0.4-14.8,2.7-21.1,7C818.5,547.2,813.7,554.9,813.3,564.9z"/>
	<path class="st0" d="M813.3,564.9c0.3-10,5.2-17.7,13.4-23.4c6.3-4.3,13.4-6.6,21.1-7c2.1-0.1,5.4,0.5,5.1-2.9
		c-0.2-3-3.4-2.5-5.6-2.6c-1.4-0.1-2.7,0.2-4.1,0.3c-4,0.3-5-0.9-3.6-4.8c4.4-12.2,20.8-18.2,30.7-15.1c5,1.6,6.6,4.4,5.2,9.1
		c-0.4,1.4-0.9,3,0.8,3.5c1.9,0.6,2.9-1,3.2-2.5c0.7-4.1,3.3-6.8,6.1-9.4c4.4-4.1,9.5-4.8,14.9-2.5c4.8,2.1,8.2,5.6,8,11.2
		c-0.2,5.7-1.8,10.9-7.2,14c-1.5,0.8-3,1.5-4.4,2.5c-0.8,0.5-2,1.2-1.4,2.5c0.7,1.4,2,1.3,3.2,0.9c2.8-0.9,5.4-2.4,7.3-4.7
		c2.3-2.9,4.4-2.1,6.5-0.2c2.2,2,3.7,4.4,3.9,7.5c0.3,3.6-0.5,5.9-4.8,5.9c-2.4,0-4.8,0.6-7.1,1.3c-1.4,0.4-3.3,1.3-2.6,3.1
		c0.7,1.9,2.6,1.8,4.3,1.1c0.9-0.3,1.7-0.7,2.6-1c6.9-2.1,16,0.7,20.8,6.5c4.9,6,6.2,14.1,3.1,20c-3.4,6.4-11,10.3-18.1,9.1
		c-1-0.2-2.1-0.5-3.1-0.5c-1.3,0-2.6,0.5-2.9,1.8c-0.3,1.6,1.4,1.7,2.4,2.2c2.1,1,5.9-0.9,6,3.2c0.1,4.2-2.3,7.2-6,9
		c-4.6,2.3-4.8,2.1-5.8-2.8c-0.7-3.8-2.2-7.3-5.4-9.8c-0.7-0.5-1.6-1.5-2.4-0.7c-0.5,0.5-0.6,1.7-0.4,2.6c0.1,0.9,0.7,1.7,1.2,2.4
		c6.4,9.6,1.5,22.8-9.6,25.7c-8.7,2.3-14.4,0.1-19.7-7.4c-1.5-2.1-1.1-2.8,1-3.6c1.3-0.5,2.7-0.9,3.2-2.4c0.4-1.2,0.3-2.4-0.7-3.4
		c-1-1-2-0.7-2.9-0.1c-5.5,3.2-11.6,3.8-17.7,2.9c-10.6-1.5-20.2-5.7-27.1-14C818.2,584.7,813.8,575.7,813.3,564.9z M891.6,572
		C891.6,572,891.6,572,891.6,572c-0.2-1.4-0.3-3.7-0.8-5.9c-3-13.2-9-24.3-21.2-31.2c-1-0.5-2.4-2.2-3.5-0.3
		c-0.8,1.4,0.2,2.6,1.4,3.5c0.6,0.5,1.2,1,1.8,1.4c12.4,6.3,16.4,17.8,18.9,30.2c1.2,6.1-1.9,11.3-3.3,16.9
		c-0.3,1.3-1.6,3.3,0.4,3.9c1.6,0.5,2.5-1.5,3.1-2.9C890.2,582.9,891.5,578,891.6,572z"/>
	<path class="st1" d="M891.6,572C891.6,572,891.6,572,891.6,572c-0.1,6-1.4,10.8-3.2,15.6c-0.5,1.4-1.4,3.4-3.1,2.9
		c-2-0.6-0.7-2.6-0.4-3.9c1.4-5.6,4.5-10.8,3.3-16.9c-2.5-12.4-6.5-23.9-18.9-30.2c-0.7-0.3-1.2-0.9-1.8-1.4
		c-1.1-0.9-2.2-2.1-1.4-3.5c1.1-1.9,2.5-0.3,3.5,0.3c12.2,6.9,18.2,18,21.2,31.2C891.2,568.3,891.4,570.6,891.6,572z"/>
</g>
<g>
	<path class="st1" d="M763.6,832.9c4.9,0.2,9.9,0.3,13.7,4.1c1.1,1.2,1.2,0.3,1.9-0.3c3.1-2.7,6.5-5.1,10.5-6.4
		c14.7-4.9,27.5,6,26.4,22.6c-0.2,2.9,0.1,5,2.5,6.8c2.7,2,4.6,5,5,8c0.7,5.5,3.6,8.4,7.9,11.6c9.6,7.3,13,22.8,8.1,33.8
		c-2.3,5.1-6.3,8.6-11.2,11c-2.8,1.3-4.4,3.2-5.1,6.4c-1.6,6.5-6.2,10.4-12.7,11.8c-2.3,0.5-3.7,1.5-4.8,3.6
		c-10.1,19.5-32.9,15.4-42.1,1.5c-1.7-2.6-3.5-3.1-6.3-3.2c-16.8-0.6-31.1-6.5-40.8-20.8c-5.1-7.5-8.5-16-9-25.2
		c-0.8-15.8,7.3-26.3,20.6-33.3c3.3-1.8,5.1-3.5,5.1-7.5C733.4,846.6,747.4,831.7,763.6,832.9z M713.8,895.7
		c0.5,10.8,4.9,19.8,11.4,27.7c7,8.4,16.6,12.5,27.1,14c6,0.9,12.2,0.3,17.7-2.9c1-0.6,2-0.9,2.9,0.1c1,1,1.1,2.1,0.7,3.4
		c-0.5,1.5-1.9,1.9-3.2,2.4c-2,0.8-2.4,1.5-1,3.6c5.3,7.5,11,9.7,19.7,7.4c11.1-3,16-16.1,9.6-25.7c-0.5-0.8-1.1-1.6-1.2-2.4
		c-0.1-0.8-0.1-2.1,0.4-2.6c0.8-0.8,1.7,0.2,2.4,0.7c3.2,2.5,4.7,6,5.4,9.8c1,4.9,1.2,5.1,5.8,2.8c3.7-1.8,6.1-4.8,6-9
		c-0.1-4.1-3.9-2.2-6-3.2c-1.1-0.5-2.7-0.6-2.4-2.2c0.2-1.3,1.6-1.9,2.9-1.8c1,0,2.1,0.3,3.1,0.5c7.1,1.1,14.7-2.7,18.1-9.1
		c3.1-5.9,1.8-14.1-3.1-20c-4.8-5.8-13.9-8.6-20.8-6.5c-0.9,0.3-1.7,0.6-2.6,1c-1.7,0.7-3.7,0.8-4.3-1.1c-0.6-1.8,1.3-2.7,2.6-3.1
		c2.3-0.7,4.7-1.3,7.1-1.3c4.3,0,5.1-2.3,4.8-5.9c-0.2-3.1-1.7-5.5-3.9-7.5c-2.2-1.9-4.2-2.7-6.5,0.2c-1.8,2.3-4.4,3.7-7.3,4.7
		c-1.2,0.4-2.5,0.5-3.2-0.9c-0.6-1.3,0.5-2,1.4-2.5c1.4-0.9,2.9-1.6,4.4-2.5c5.4-3.1,7-8.3,7.2-14c0.2-5.6-3.2-9.1-8-11.2
		c-5.4-2.3-10.5-1.6-14.9,2.5c-2.8,2.6-5.4,5.4-6.1,9.4c-0.2,1.5-1.3,3.1-3.2,2.5c-1.7-0.6-1.2-2.1-0.8-3.5c1.4-4.7-0.2-7.5-5.2-9.1
		c-9.9-3.1-26.4,2.9-30.7,15.1c-1.4,3.8-0.4,5.1,3.6,4.8c1.4-0.1,2.8-0.4,4.1-0.3c2.2,0.1,5.3-0.4,5.6,2.6c0.3,3.4-3,2.8-5.1,2.9
		c-7.7,0.4-14.8,2.7-21.1,7C718.9,877.9,714.1,885.7,713.8,895.7z"/>
	<path class="st0" d="M713.8,895.7c0.3-10,5.2-17.7,13.4-23.4c6.3-4.3,13.4-6.6,21.1-7c2.1-0.1,5.4,0.5,5.1-2.9
		c-0.2-3-3.4-2.5-5.6-2.6c-1.4-0.1-2.7,0.2-4.1,0.3c-4,0.3-5-0.9-3.6-4.8c4.4-12.2,20.8-18.2,30.7-15.1c5,1.6,6.6,4.4,5.2,9.1
		c-0.4,1.4-0.9,3,0.8,3.5c1.9,0.6,2.9-1,3.2-2.5c0.7-4.1,3.3-6.8,6.1-9.4c4.4-4.1,9.5-4.8,14.9-2.5c4.8,2.1,8.2,5.6,8,11.2
		c-0.2,5.7-1.8,10.9-7.2,14c-1.5,0.8-3,1.5-4.4,2.5c-0.8,0.5-2,1.2-1.4,2.5c0.7,1.4,2,1.3,3.2,0.9c2.8-0.9,5.4-2.4,7.3-4.7
		c2.3-2.9,4.4-2.1,6.5-0.2c2.2,2,3.7,4.4,3.9,7.5c0.3,3.6-0.5,5.9-4.8,5.9c-2.4,0-4.8,0.6-7.1,1.3c-1.4,0.4-3.3,1.3-2.6,3.1
		c0.7,1.9,2.6,1.8,4.3,1.1c0.9-0.3,1.7-0.7,2.6-1c6.9-2.1,16,0.7,20.8,6.5c4.9,6,6.2,14.1,3.1,20c-3.4,6.4-11,10.3-18.1,9.1
		c-1-0.2-2.1-0.5-3.1-0.5c-1.3,0-2.6,0.5-2.9,1.8c-0.3,1.6,1.4,1.7,2.4,2.2c2.1,1,5.9-0.9,6,3.2c0.1,4.2-2.3,7.2-6,9
		c-4.6,2.3-4.8,2.1-5.8-2.8c-0.8-3.8-2.2-7.3-5.4-9.8c-0.7-0.5-1.6-1.5-2.4-0.7c-0.5,0.5-0.6,1.7-0.4,2.6c0.1,0.9,0.7,1.7,1.2,2.4
		c6.4,9.6,1.5,22.8-9.6,25.7c-8.7,2.3-14.4,0.1-19.7-7.4c-1.5-2.1-1.1-2.8,1-3.6c1.3-0.5,2.7-0.9,3.2-2.4c0.4-1.2,0.3-2.4-0.7-3.4
		c-1-1-2-0.7-2.9-0.1c-5.5,3.2-11.6,3.8-17.7,2.9c-10.6-1.5-20.2-5.7-27.1-14C718.7,915.5,714.3,906.4,713.8,895.7z M792,902.8
		C792,902.8,792,902.8,792,902.8c-0.2-1.4-0.3-3.7-0.8-5.9c-3-13.2-9-24.3-21.2-31.2c-1-0.5-2.4-2.2-3.5-0.3
		c-0.8,1.4,0.2,2.6,1.4,3.5c0.6,0.5,1.2,1,1.8,1.4c12.4,6.3,16.4,17.8,18.9,30.2c1.2,6.1-1.9,11.3-3.3,16.9
		c-0.3,1.3-1.6,3.3,0.4,3.9c1.6,0.5,2.5-1.5,3.1-2.9C790.6,913.6,791.9,908.8,792,902.8z"/>
	<path class="st1" d="M792,902.8C792,902.8,792,902.8,792,902.8c-0.1,6-1.4,10.8-3.2,15.6c-0.5,1.4-1.4,3.4-3.1,2.9
		c-2-0.6-0.7-2.6-0.4-3.9c1.4-5.6,4.5-10.8,3.3-16.9c-2.5-12.4-6.5-23.9-18.9-30.2c-0.7-0.3-1.2-0.9-1.8-1.4
		c-1.1-0.9-2.2-2.1-1.4-3.5c1.1-1.9,2.5-0.3,3.5,0.3c12.2,6.9,18.2,18,21.2,31.2C791.7,899.1,791.8,901.4,792,902.8z"/>
</g>
<g>
	<path class="st1" d="M68.1,603.6c4.9,0.2,9.9,0.3,13.7,4.1c1.1,1.2,1.2,0.3,1.9-0.3c3.1-2.7,6.5-5.1,10.5-6.4
		c14.7-4.9,27.5,6,26.4,22.6c-0.2,2.9,0.1,5,2.5,6.8c2.7,2,4.6,5,5,8c0.7,5.5,3.6,8.4,7.9,11.6c9.6,7.3,13,22.8,8.1,33.8
		c-2.3,5.1-6.3,8.6-11.2,11c-2.8,1.3-4.4,3.2-5.1,6.4c-1.6,6.5-6.2,10.4-12.7,11.8c-2.3,0.5-3.7,1.5-4.8,3.6
		c-10.1,19.5-32.9,15.4-42.1,1.5c-1.7-2.6-3.5-3.1-6.3-3.2c-16.8-0.6-31.1-6.5-40.8-20.8c-5.1-7.5-8.5-16-9-25.2
		c-0.8-15.8,7.3-26.3,20.6-33.3c3.3-1.8,5.1-3.5,5.1-7.5C37.8,617.4,51.9,602.5,68.1,603.6z M18.3,666.4
		c0.5,10.8,4.9,19.8,11.4,27.7c7,8.4,16.6,12.5,27.1,14c6,0.9,12.2,0.3,17.7-2.9c1-0.6,2-0.9,2.9,0.1c1,1,1.1,2.1,0.7,3.4
		c-0.5,1.5-1.9,1.9-3.2,2.4c-2,0.8-2.4,1.5-1,3.6c5.3,7.5,11,9.7,19.7,7.4c11.1-3,16-16.1,9.6-25.7c-0.5-0.8-1.1-1.6-1.2-2.4
		c-0.1-0.8-0.1-2.1,0.4-2.6c0.8-0.8,1.7,0.2,2.4,0.7c3.2,2.5,4.7,6,5.4,9.8c1,4.9,1.2,5.1,5.8,2.8c3.7-1.8,6.1-4.8,6-9
		c-0.1-4.1-3.9-2.2-6-3.2c-1.1-0.5-2.7-0.6-2.4-2.2c0.2-1.3,1.6-1.9,2.9-1.8c1,0,2.1,0.3,3.1,0.5c7.1,1.1,14.7-2.7,18.1-9.1
		c3.1-5.9,1.8-14.1-3.1-20c-4.8-5.8-13.9-8.6-20.8-6.5c-0.9,0.3-1.7,0.6-2.6,1c-1.7,0.7-3.7,0.8-4.3-1.1c-0.6-1.8,1.3-2.7,2.6-3.1
		c2.3-0.7,4.7-1.3,7.1-1.3c4.3,0,5.1-2.3,4.8-5.9c-0.2-3.1-1.7-5.5-3.9-7.5c-2.2-1.9-4.2-2.7-6.5,0.2c-1.8,2.3-4.4,3.7-7.3,4.7
		c-1.2,0.4-2.5,0.5-3.2-0.9c-0.6-1.3,0.5-2,1.4-2.5c1.4-0.9,2.9-1.6,4.4-2.5c5.4-3.1,7-8.3,7.2-14c0.2-5.6-3.2-9.1-8-11.2
		c-5.4-2.3-10.5-1.6-14.9,2.5c-2.8,2.6-5.4,5.4-6.1,9.4c-0.2,1.5-1.3,3.1-3.2,2.5c-1.7-0.6-1.2-2.1-0.8-3.5c1.4-4.7-0.2-7.5-5.2-9.1
		c-9.9-3.1-26.4,2.9-30.7,15.1c-1.4,3.8-0.4,5.1,3.6,4.8c1.4-0.1,2.8-0.4,4.1-0.3c2.2,0.1,5.3-0.4,5.6,2.6c0.3,3.4-3,2.8-5.1,2.9
		c-7.7,0.4-14.8,2.7-21.1,7C23.4,648.7,18.6,656.4,18.3,666.4z"/>
	<path class="st0" d="M18.3,666.4c0.3-10,5.2-17.7,13.4-23.4c6.3-4.3,13.4-6.6,21.1-7c2.1-0.1,5.4,0.5,5.1-2.9
		c-0.2-3-3.4-2.5-5.6-2.6c-1.4-0.1-2.7,0.2-4.1,0.3c-4,0.3-5-0.9-3.6-4.8c4.4-12.2,20.8-18.2,30.7-15.1c5,1.6,6.6,4.4,5.2,9.1
		c-0.4,1.4-0.9,3,0.8,3.5c1.9,0.6,2.9-1,3.2-2.5c0.7-4.1,3.3-6.8,6.1-9.4c4.4-4.1,9.5-4.8,14.9-2.5c4.8,2.1,8.2,5.6,8,11.2
		c-0.2,5.7-1.8,10.9-7.2,14c-1.5,0.8-3,1.5-4.4,2.5c-0.8,0.5-2,1.2-1.4,2.5c0.7,1.4,2,1.3,3.2,0.9c2.8-0.9,5.4-2.4,7.3-4.7
		c2.3-2.9,4.4-2.1,6.5-0.2c2.2,2,3.7,4.4,3.9,7.5c0.3,3.6-0.5,5.9-4.8,5.9c-2.4,0-4.8,0.6-7.1,1.3c-1.4,0.4-3.3,1.3-2.6,3.1
		c0.7,1.9,2.6,1.8,4.3,1.1c0.9-0.3,1.7-0.7,2.6-1c6.9-2.1,16,0.7,20.8,6.5c4.9,6,6.2,14.1,3.1,20c-3.4,6.4-11,10.3-18.1,9.1
		c-1-0.2-2.1-0.5-3.1-0.5c-1.3,0-2.6,0.5-2.9,1.8c-0.3,1.6,1.4,1.7,2.4,2.2c2.1,1,5.9-0.9,6,3.2c0.1,4.2-2.3,7.2-6,9
		c-4.6,2.3-4.8,2.1-5.8-2.8c-0.7-3.8-2.2-7.3-5.4-9.8c-0.7-0.5-1.6-1.5-2.4-0.7c-0.5,0.5-0.6,1.7-0.4,2.6c0.1,0.9,0.7,1.7,1.2,2.4
		c6.4,9.6,1.5,22.8-9.6,25.7c-8.7,2.3-14.4,0.1-19.7-7.4c-1.5-2.1-1.1-2.8,1-3.6c1.3-0.5,2.7-0.9,3.2-2.4c0.4-1.2,0.3-2.4-0.7-3.4
		c-1-1-2-0.7-2.9-0.1c-5.5,3.2-11.6,3.8-17.7,2.9c-10.6-1.5-20.2-5.7-27.1-14C23.2,686.3,18.8,677.2,18.3,666.4z M96.5,673.6
		C96.5,673.6,96.5,673.6,96.5,673.6c-0.2-1.4-0.3-3.7-0.8-5.9c-3-13.2-9-24.3-21.2-31.2c-1-0.5-2.4-2.2-3.5-0.3
		c-0.8,1.4,0.2,2.6,1.4,3.5c0.6,0.5,1.2,1,1.8,1.4c12.4,6.3,16.4,17.8,18.9,30.2c1.2,6.1-1.9,11.3-3.3,16.9
		c-0.3,1.3-1.6,3.3,0.4,3.9c1.6,0.5,2.5-1.5,3.1-2.9C95.1,684.4,96.4,679.5,96.5,673.6z"/>
	<path class="st1" d="M96.5,673.6C96.5,673.6,96.5,673.6,96.5,673.6c-0.1,6-1.4,10.8-3.2,15.6c-0.5,1.4-1.4,3.4-3.1,2.9
		c-2-0.6-0.7-2.6-0.4-3.9c1.4-5.6,4.5-10.8,3.3-16.9c-2.5-12.4-6.5-23.9-18.9-30.2c-0.7-0.3-1.2-0.9-1.8-1.4
		c-1.1-0.9-2.2-2.1-1.4-3.5c1.1-1.9,2.5-0.3,3.5,0.3c12.2,6.9,18.2,18,21.2,31.2C96.2,669.8,96.3,672.1,96.5,673.6z"/>
</g>
<g>
	<path class="st1" d="M967.1,159.8c0.8,18.5-10.6,31.6-29,35.6c-3.8,0.8-6.1,2.2-8,6c-6.5,13.4-24.6,20.1-38.5,14.8
		c-2.9-1.1-5.4-2.8-7.3-5.3c-1.9-2.5-3.9-2.9-7.1-1.6c-13.2,5.4-25.6-0.1-29.1-12.5c-1.4-5.2-0.6-10.4,1.3-15.3
		c1-2.4,0.8-4.3-0.6-6.4c-2.6-3.8-3.6-8.2-2.5-12.7c0.7-2.7,0.1-4.5-1.7-6.5c-11.1-11.9-8.6-28.6-1.9-36.7c3.8-4.5,8.5-7.4,14.3-8.5
		c2.8-0.6,4.9-1.7,6.6-4.3c4-5.8,9.6-8.9,16.8-8.5c1.9,0.1,3.5-0.1,4.9-1.7c12.4-14.6,34.7-8.1,40.3,9.3c1.2,3.6,3.1,5,6.4,6
		C954.1,118.1,967.5,138.8,967.1,159.8z M924.6,196.5c-3.7-0.2-7.1-1-10.3-2.5c-1.6-0.8-2.1-2.2-1.6-3.8c0.6-1.9,2-0.7,3-0.6
		c2.3,0.3,4.5,0.7,6.8,0.9c24.1,2.3,39-11.9,37.6-33.5c-0.7-11.4-4.4-21.4-13.3-29.3c-8.8-7.8-18.1-13.7-30.6-10.3
		c-1.3,0.3-2.4-0.5-3-1.7c-0.6-1.2,0.1-2.1,0.9-2.8c1-0.9,2.2-1.9,3.5-2.1c4.3-0.6,2.8-3.5,1.8-5.2c-1.2-2.2-3.1-4.1-5-5.8
		c-5-4.2-10.9-6.1-17.1-3.5c-6.2,2.5-11.2,6.7-12.4,14c-0.5,2.8,0.9,5,1.5,7.5c0.4,1.7,1.8,4.1-0.7,4.7c-2,0.5-2.7-1.9-3.3-3.7
		c-1.2-3.5-1.3-7.1-1-10.8c0.1-1.2,0.4-2.3-1.6-2.5c-4-0.4-9.4,2.2-11.1,5.7c-1.3,2.6-1.3,4.5,2.1,5.4c1.8,0.5,4.7,1.3,3.8,3.5
		c-1,2.5-3.6,1.1-5.6,0.2c-0.7-0.3-1.3-0.8-2-1.1c-7.3-3.3-20.5,2.3-22.1,9.6c-2.1,9.2,2,24.7,16.2,26.8c2.2,0.3,4.6,0.2,6.9,0.2
		c1.3,0,2.5,0.1,2.6,1.8c0.1,1.5-0.9,2.1-2.2,2.4c-2.8,0.6-5.5-0.1-8.2-0.5c-4.7-0.7-6.4,0.5-6.6,5.2c-0.2,2.6,0.4,5.2,1.8,7.5
		c1.4,2.3,2.8,3.8,5.8,1.7c1.7-1.2,3.9-1.7,6-2.2c1.8-0.4,4.6-1.5,5.2,0.9c0.6,2.6-2.3,2.5-4.1,2.9c-0.9,0.2-1.8,0.5-2.7,0.7
		c-6,1.2-11,7.9-10.6,14.6c0.3,6.7,5.7,12.3,11.9,13.1c7.1,0.9,11.6-2.8,15.5-7.9c1.1-1.5,2.5-4,4.5-2.4c1.7,1.3,0,3.4-1.3,4.6
		c-2.2,2.1-1.7,3.9,0,5.9c3.7,4.4,8.8,5.9,14.3,6.2C909.8,211,922.6,206,924.6,196.5z"/>
	<path class="st0" d="M924.6,196.5c-1.9,9.5-14.7,14.4-24.7,13.9c-5.5-0.3-10.5-1.8-14.3-6.2c-1.7-2-2.2-3.9,0-5.9
		c1.3-1.2,3-3.3,1.3-4.6c-2-1.6-3.4,0.9-4.5,2.4c-3.9,5.1-8.4,8.8-15.5,7.9c-6.2-0.8-11.6-6.4-11.9-13.1
		c-0.3-6.7,4.6-13.4,10.6-14.6c0.9-0.2,1.8-0.5,2.7-0.7c1.8-0.5,4.8-0.3,4.1-2.9c-0.6-2.4-3.4-1.3-5.2-0.9c-2.1,0.4-4.3,1-6,2.2
		c-2.9,2.1-4.4,0.6-5.8-1.7c-1.4-2.3-2-4.8-1.8-7.5c0.3-4.7,2-5.9,6.6-5.2c2.7,0.4,5.4,1.1,8.2,0.5c1.4-0.3,2.3-0.8,2.2-2.4
		c-0.1-1.7-1.4-1.8-2.6-1.8c-2.3-0.1-4.6,0.1-6.9-0.2c-14.3-2.1-18.3-17.6-16.2-26.8c1.7-7.3,14.9-12.9,22.1-9.6
		c0.7,0.3,1.3,0.8,2,1.1c1.9,1,4.6,2.4,5.6-0.2c0.9-2.2-2.1-3-3.8-3.5c-3.5-0.9-3.5-2.8-2.1-5.4c1.8-3.5,7.1-6.1,11.1-5.7
		c2,0.2,1.7,1.3,1.6,2.5c-0.3,3.7-0.2,7.3,1,10.8c0.6,1.8,1.3,4.2,3.3,3.7c2.5-0.6,1.1-3,0.7-4.7c-0.6-2.5-1.9-4.8-1.5-7.5
		c1.2-7.3,6.2-11.4,12.4-14c6.2-2.5,12.1-0.7,17.1,3.5c1.9,1.6,3.9,3.6,5,5.8c0.9,1.8,2.4,4.7-1.8,5.2c-1.2,0.2-2.4,1.3-3.5,2.1
		c-0.8,0.7-1.5,1.6-0.9,2.8c0.6,1.2,1.7,2,3,1.7c12.5-3.4,21.8,2.5,30.6,10.3c8.9,7.8,12.5,17.9,13.3,29.3
		c1.4,21.6-13.5,35.9-37.6,33.5c-2.3-0.2-4.5-0.6-6.8-0.9c-1.1-0.1-2.4-1.4-3,0.6c-0.5,1.7,0,3.1,1.6,3.8
		C917.5,195.5,920.8,196.3,924.6,196.5z M897.2,124.8c-1.9,1-3.3,2.7-4.6,4.3c-7.9,10.3-8.6,21.8-6,34c1.7,7.9,4.8,15.1,11.2,20.4
		c0.7,0.6,1.5,2,2.6,0.9c0.8-0.8,0.7-2.2,0.1-3c-1.4-2-3-3.8-4.6-5.7c-9.5-11.5-10.2-31-1.4-43c1.3-1.8,2.5-3.8,3.8-5.7
		C899.1,125.7,898.8,125,897.2,124.8z"/>
	<path class="st1" d="M897.2,124.8c1.6,0.2,1.9,0.9,1.1,2.1c-1.2,1.9-2.4,3.9-3.8,5.7c-8.7,12-8.1,31.5,1.4,43
		c1.6,1.9,3.2,3.7,4.6,5.7c0.6,0.8,0.8,2.2-0.1,3c-1.2,1.1-1.9-0.3-2.6-0.9c-6.5-5.3-9.6-12.5-11.2-20.4c-2.6-12.1-1.8-23.7,6-34
		C893.9,127.5,895.3,125.8,897.2,124.8z"/>
</g>
<g>
	<path class="st1" d="M481.2,368.2c0.8,18.5-10.6,31.6-29,35.6c-3.8,0.8-6.1,2.2-8,6c-6.5,13.4-24.6,20.1-38.5,14.8
		c-2.9-1.1-5.4-2.8-7.3-5.3c-1.9-2.5-3.9-2.9-7.1-1.6c-13.2,5.4-25.6-0.1-29.1-12.5c-1.4-5.2-0.6-10.4,1.3-15.3
		c1-2.4,0.8-4.3-0.6-6.4c-2.6-3.8-3.6-8.2-2.5-12.7c0.7-2.7,0.1-4.5-1.7-6.5c-11.1-11.9-8.6-28.6-1.9-36.7c3.8-4.5,8.5-7.4,14.3-8.5
		c2.8-0.6,4.9-1.7,6.6-4.3c4-5.8,9.6-8.9,16.8-8.5c1.9,0.1,3.5-0.1,4.9-1.7c12.4-14.6,34.7-8.1,40.3,9.3c1.2,3.6,3.1,5,6.4,6
		C468.2,326.6,481.6,347.2,481.2,368.2z M438.7,404.9c-3.7-0.2-7.1-1-10.3-2.5c-1.6-0.8-2.1-2.2-1.6-3.8c0.6-1.9,2-0.7,3-0.6
		c2.3,0.3,4.5,0.7,6.8,0.9c24.1,2.3,39-11.9,37.6-33.5c-0.7-11.4-4.4-21.4-13.3-29.3c-8.8-7.8-18.1-13.7-30.6-10.3
		c-1.3,0.3-2.4-0.5-3-1.7c-0.6-1.2,0.1-2.1,0.9-2.8c1-0.9,2.2-1.9,3.5-2.1c4.3-0.6,2.8-3.5,1.8-5.2c-1.2-2.2-3.1-4.1-5-5.8
		c-5-4.2-10.9-6.1-17.1-3.5c-6.2,2.5-11.2,6.7-12.4,14c-0.5,2.8,0.9,5,1.5,7.5c0.4,1.7,1.8,4.1-0.7,4.7c-2,0.5-2.7-1.9-3.3-3.7
		c-1.2-3.5-1.3-7.1-1-10.8c0.1-1.2,0.4-2.3-1.6-2.5c-4-0.4-9.4,2.2-11.1,5.7c-1.3,2.6-1.3,4.5,2.1,5.4c1.8,0.5,4.7,1.3,3.8,3.5
		c-1,2.5-3.6,1.1-5.6,0.2c-0.7-0.3-1.3-0.8-2-1.1c-7.3-3.3-20.5,2.3-22.1,9.6c-2.1,9.2,2,24.7,16.2,26.8c2.2,0.3,4.6,0.2,6.9,0.2
		c1.3,0,2.5,0.1,2.6,1.8c0.1,1.5-0.9,2.1-2.2,2.4c-2.8,0.6-5.5-0.1-8.2-0.5c-4.7-0.7-6.4,0.5-6.6,5.2c-0.2,2.6,0.4,5.2,1.8,7.5
		c1.4,2.3,2.8,3.8,5.8,1.7c1.7-1.2,3.9-1.7,6-2.2c1.8-0.4,4.6-1.5,5.2,0.9c0.6,2.6-2.3,2.5-4.1,2.9c-0.9,0.2-1.8,0.5-2.7,0.7
		c-6,1.2-11,7.9-10.6,14.6c0.3,6.7,5.7,12.3,11.9,13.1c7.1,0.9,11.6-2.8,15.5-7.9c1.1-1.5,2.5-4,4.5-2.4c1.7,1.3,0,3.4-1.3,4.6
		c-2.2,2.1-1.7,3.9,0,5.9c3.7,4.4,8.8,5.9,14.3,6.2C423.9,419.4,436.7,414.4,438.7,404.9z"/>
	<path class="st0" d="M438.7,404.9c-1.9,9.5-14.7,14.4-24.7,13.9c-5.5-0.3-10.5-1.8-14.3-6.2c-1.7-2-2.2-3.9,0-5.9
		c1.3-1.2,3-3.3,1.3-4.6c-2-1.6-3.4,0.9-4.5,2.4c-3.9,5.1-8.4,8.8-15.5,7.9c-6.2-0.8-11.6-6.4-11.9-13.1
		c-0.3-6.7,4.6-13.4,10.6-14.6c0.9-0.2,1.8-0.5,2.7-0.7c1.8-0.5,4.8-0.3,4.1-2.9c-0.6-2.4-3.4-1.3-5.2-0.9c-2.1,0.4-4.3,1-6,2.2
		c-2.9,2.1-4.4,0.6-5.8-1.7c-1.4-2.3-2-4.8-1.8-7.5c0.3-4.7,2-5.9,6.6-5.2c2.7,0.4,5.4,1.1,8.2,0.5c1.4-0.3,2.3-0.8,2.2-2.4
		c-0.1-1.7-1.4-1.8-2.6-1.8c-2.3-0.1-4.6,0.1-6.9-0.2c-14.3-2.1-18.3-17.6-16.2-26.8c1.7-7.3,14.9-12.9,22.1-9.6
		c0.7,0.3,1.3,0.8,2,1.1c1.9,1,4.6,2.4,5.6-0.2c0.9-2.2-2.1-3-3.8-3.5c-3.5-0.9-3.5-2.8-2.1-5.4c1.8-3.5,7.1-6.1,11.1-5.7
		c2,0.2,1.7,1.3,1.6,2.5c-0.3,3.7-0.2,7.3,1,10.8c0.6,1.8,1.3,4.2,3.3,3.7c2.5-0.6,1.1-3,0.7-4.7c-0.6-2.5-1.9-4.8-1.5-7.5
		c1.2-7.3,6.2-11.4,12.4-14c6.2-2.5,12.1-0.7,17.1,3.5c1.9,1.6,3.9,3.6,5,5.8c0.9,1.8,2.4,4.7-1.8,5.2c-1.2,0.2-2.4,1.3-3.5,2.1
		c-0.8,0.7-1.5,1.6-0.9,2.8c0.6,1.2,1.7,2,3,1.7c12.5-3.4,21.8,2.5,30.6,10.3c8.9,7.8,12.5,17.9,13.3,29.3
		c1.4,21.6-13.5,35.9-37.6,33.5c-2.3-0.2-4.5-0.6-6.8-0.9c-1.1-0.1-2.4-1.4-3,0.6c-0.5,1.7,0,3.1,1.6,3.8
		C431.6,403.9,434.9,404.7,438.7,404.9z M411.3,333.2c-1.9,1-3.3,2.7-4.6,4.3c-7.9,10.3-8.6,21.8-6,34c1.7,7.9,4.8,15.1,11.2,20.4
		c0.7,0.6,1.5,2,2.6,0.9c0.8-0.8,0.7-2.2,0.1-3c-1.4-2-3-3.8-4.6-5.7c-9.5-11.5-10.2-31-1.4-43c1.3-1.8,2.5-3.8,3.8-5.7
		C413.2,334.2,412.9,333.4,411.3,333.2z"/>
	<path class="st1" d="M411.3,333.2c1.6,0.2,1.9,0.9,1.1,2.1c-1.2,1.9-2.4,3.9-3.8,5.7c-8.7,12-8.1,31.5,1.4,43
		c1.6,1.9,3.2,3.7,4.6,5.7c0.6,0.8,0.8,2.2-0.1,3c-1.2,1.1-1.9-0.3-2.6-0.9c-6.5-5.3-9.6-12.5-11.2-20.4c-2.6-12.1-1.8-23.7,6-34
		C408,335.9,409.4,334.2,411.3,333.2z"/>
</g>
<g>
	<path class="st1" d="M356.9,872.9c0.8,18.5-10.6,31.6-29,35.6c-3.8,0.8-6.1,2.2-8,6c-6.5,13.4-24.6,20.1-38.5,14.8
		c-2.9-1.1-5.4-2.8-7.3-5.3c-1.9-2.5-3.9-2.9-7.1-1.6c-13.2,5.4-25.6-0.1-29.1-12.5c-1.4-5.2-0.6-10.4,1.3-15.3
		c1-2.4,0.8-4.3-0.6-6.4c-2.6-3.8-3.6-8.2-2.5-12.7c0.7-2.7,0.1-4.5-1.7-6.5c-11.1-11.9-8.6-28.6-1.9-36.7c3.8-4.5,8.5-7.4,14.3-8.5
		c2.8-0.6,4.9-1.7,6.6-4.3c4-5.8,9.6-8.9,16.8-8.5c1.9,0.1,3.5-0.1,4.9-1.7c12.4-14.6,34.7-8.1,40.3,9.3c1.2,3.6,3.1,5,6.4,6
		C343.9,831.3,357.3,851.9,356.9,872.9z M314.3,909.6c-3.7-0.2-7.1-1-10.3-2.5c-1.6-0.8-2.1-2.2-1.6-3.8c0.6-1.9,2-0.7,3-0.6
		c2.3,0.3,4.5,0.7,6.8,0.9c24.1,2.3,39-11.9,37.6-33.5c-0.7-11.4-4.4-21.4-13.3-29.3c-8.8-7.8-18.1-13.7-30.6-10.3
		c-1.3,0.3-2.4-0.5-3-1.7c-0.6-1.2,0.1-2.1,0.9-2.8c1-0.9,2.2-1.9,3.5-2.1c4.3-0.6,2.8-3.5,1.8-5.2c-1.2-2.2-3.1-4.1-5-5.8
		c-5-4.2-10.9-6.1-17.1-3.5c-6.2,2.5-11.2,6.7-12.4,14c-0.5,2.8,0.9,5,1.5,7.5c0.4,1.7,1.8,4.1-0.7,4.7c-2,0.5-2.7-1.9-3.3-3.7
		c-1.2-3.5-1.3-7.1-1-10.8c0.1-1.2,0.4-2.3-1.6-2.5c-4-0.4-9.4,2.2-11.1,5.7c-1.3,2.6-1.3,4.5,2.1,5.4c1.8,0.5,4.7,1.3,3.8,3.5
		c-1,2.5-3.6,1.1-5.6,0.2c-0.7-0.3-1.3-0.8-2-1.1c-7.3-3.3-20.5,2.3-22.1,9.6c-2.1,9.2,2,24.7,16.2,26.8c2.2,0.3,4.6,0.2,6.9,0.2
		c1.3,0,2.5,0.1,2.6,1.8c0.1,1.5-0.9,2.1-2.2,2.4c-2.8,0.6-5.5-0.1-8.2-0.5c-4.7-0.7-6.4,0.5-6.6,5.2c-0.2,2.6,0.4,5.2,1.8,7.5
		c1.4,2.3,2.8,3.8,5.8,1.7c1.7-1.2,3.9-1.7,6-2.2c1.8-0.4,4.6-1.5,5.2,0.9c0.6,2.6-2.3,2.5-4.1,2.9c-0.9,0.2-1.8,0.5-2.7,0.7
		c-6,1.2-11,7.9-10.6,14.6c0.3,6.7,5.7,12.3,11.9,13.1c7.1,0.9,11.6-2.8,15.5-7.9c1.1-1.5,2.5-4,4.5-2.4c1.7,1.3,0,3.4-1.3,4.6
		c-2.2,2.1-1.7,3.9,0,5.9c3.7,4.4,8.8,5.9,14.3,6.2C299.6,924.1,312.4,919.1,314.3,909.6z"/>
	<path class="st0" d="M314.3,909.6c-1.9,9.5-14.7,14.4-24.7,13.9c-5.5-0.3-10.5-1.8-14.3-6.2c-1.7-2-2.2-3.9,0-5.9
		c1.3-1.2,3-3.3,1.3-4.6c-2-1.6-3.4,0.9-4.5,2.4c-3.9,5.1-8.4,8.8-15.5,7.9c-6.2-0.8-11.6-6.4-11.9-13.1
		c-0.3-6.7,4.6-13.4,10.6-14.6c0.9-0.2,1.8-0.5,2.7-0.7c1.8-0.5,4.8-0.3,4.1-2.9c-0.6-2.4-3.4-1.3-5.2-0.9c-2.1,0.4-4.3,1-6,2.2
		c-2.9,2.1-4.4,0.6-5.8-1.7c-1.4-2.3-2-4.8-1.8-7.5c0.3-4.7,2-5.9,6.6-5.2c2.7,0.4,5.4,1.1,8.2,0.5c1.4-0.3,2.3-0.8,2.2-2.4
		c-0.1-1.7-1.4-1.8-2.6-1.8c-2.3-0.1-4.6,0.1-6.9-0.2c-14.3-2.1-18.3-17.6-16.2-26.8c1.7-7.3,14.9-12.9,22.1-9.6
		c0.7,0.3,1.3,0.8,2,1.1c1.9,1,4.6,2.4,5.6-0.2c0.9-2.2-2.1-3-3.8-3.5c-3.5-0.9-3.5-2.8-2.1-5.4c1.8-3.5,7.1-6.1,11.1-5.7
		c2,0.2,1.7,1.3,1.6,2.5c-0.3,3.7-0.2,7.3,1,10.8c0.6,1.8,1.3,4.2,3.3,3.7c2.5-0.6,1.1-3,0.7-4.7c-0.6-2.5-1.9-4.8-1.5-7.5
		c1.2-7.3,6.2-11.4,12.4-14c6.2-2.5,12.1-0.7,17.1,3.5c1.9,1.6,3.9,3.6,5,5.8c0.9,1.8,2.4,4.7-1.8,5.2c-1.2,0.2-2.4,1.3-3.5,2.1
		c-0.8,0.7-1.5,1.6-0.9,2.8c0.6,1.2,1.7,2,3,1.7c12.5-3.4,21.8,2.5,30.6,10.3c8.9,7.8,12.5,17.9,13.3,29.3
		c1.4,21.6-13.5,35.9-37.6,33.5c-2.3-0.2-4.5-0.6-6.8-0.9c-1.1-0.1-2.4-1.4-3,0.6c-0.5,1.7,0,3.1,1.6,3.8
		C307.2,908.6,310.6,909.4,314.3,909.6z M287,837.9c-1.9,1-3.3,2.7-4.6,4.3c-7.9,10.3-8.6,21.8-6,34c1.7,7.9,4.8,15.1,11.2,20.4
		c0.7,0.6,1.5,2,2.6,0.9c0.8-0.8,0.7-2.2,0.1-3c-1.4-2-3-3.8-4.6-5.7c-9.5-11.5-10.2-31-1.4-43c1.3-1.8,2.5-3.8,3.8-5.7
		C288.9,838.8,288.6,838.1,287,837.9z"/>
	<path class="st1" d="M287,837.9c1.6,0.2,1.9,0.9,1.1,2.1c-1.2,1.9-2.4,3.9-3.8,5.7c-8.7,12-8.1,31.5,1.4,43
		c1.6,1.9,3.2,3.7,4.6,5.7c0.6,0.8,0.8,2.2-0.1,3c-1.2,1.1-1.9-0.3-2.6-0.9c-6.5-5.3-9.6-12.5-11.2-20.4c-2.6-12.1-1.8-23.7,6-34
		C283.7,840.6,285.1,838.9,287,837.9z"/>
</g>
<g>
	<path class="st1" d="M377,602.2c0,7.1-1.5,12.2-4,17c-1.2,2.3-1,4,0.6,6.2c9.9,13.9,5.8,34.4-8.5,43.7c-2.2,1.4-4.6,1.8-6.9,2.2
		c-3.1,0.5-4.2,2-4.7,5.1c-1.7,10.6-8.6,18.2-17.8,18.9c-8.6,0.7-15.3-3.6-20.7-9.9c-1.6-1.9-3-3-5.6-3.1c-5-0.2-9.6-1.9-13.2-5.6
		c-1.7-1.7-3.3-1.5-5.4-1.1c-18.5,3.6-35.9-12.2-33-29.8c0.2-1.2,0.5-2.4,1-3.5c1.3-3.3,1.4-6.3,0-9.9c-2.4-6-1.8-12.4,1.8-18
		c1.1-1.8,1.7-3.1,1.2-5.3c-3.9-18.9,11.7-33.7,30.4-28.8c2.7,0.7,4.3,0,6.1-1.6c10-8.7,21.9-13.3,35-12.7
		c16.7,0.8,30.7,7.7,39.8,22.4C375.9,593,376.9,598.3,377,602.2z M367.6,629.3c-1.5,1.7-2.9,3.6-4.6,5.1c-2,1.6-4.6,4.7-6.9,2.2
		c-2.6-2.8,1.3-4.3,2.9-6c8.9-9,13.1-19.6,10.5-32.1c-3.2-15.2-23.7-28-40.6-25.8c-14.5,1.8-27.1,6.5-32.8,21.7
		c-0.5,1.3-1.7,2.3-3.3,1.7c-1.5-0.6-2-1.8-1.7-3.4c0.2-1.1,0.4-2.1,0.8-3.1c0.8-1.9-0.1-2.7-1.8-3.2c-8.6-2.5-19.2,3.4-21.6,12
		c-2.7,9.5,3.2,19.7,12.6,21.8c0.6,0.1,1.2,0.3,1.7,0.6c0.9,0.5,2.1,1.1,1.7,2.4c-0.3,1.2-1.5,0.7-2.3,0.9c-4.8,0.6-8.5-1.8-12-4.6
		c-0.7-0.6-1.1-2.5-2.8-1c-2.4,2.2-3.5,10.3-1.5,13.5c2.7,4.3,5,1.2,7.4-0.5c0.9-0.6,2.2-1.1,3.3,0.1c1.4,1.6-0.4,2-0.9,2.9
		c-0.8,1.4-2.4,1.8-3.7,2.6c-6.6,4.3-8.7,17.3-3.9,23.4c9.4,11.8,27.9,10,33.8-2.6c0.4-1,1.1-1.8,1.8-2.7c0.9-1.1,1.9-1.5,3.2-0.5
		c1.1,0.9,0.7,1.8,0.2,2.8c-1.3,2.6-3.4,4.7-5.3,6.9c-3,3.5-2.4,6.6,1.7,8.9c2.2,1.2,4.5,1.8,7,1.9c2.9,0,4.6-0.7,4.6-4.1
		c0-2.4,0.8-4.8,1.5-7.1c0.5-1.7,1.3-4,3.7-3c2.3,0.9,0.9,2.9,0.2,4.3c-2.8,5.8-1.9,11.3,1.5,16.5c3,4.7,7.4,6.5,13.3,5.4
		c5.7-1.1,10-5.2,10.8-10.4c0.7-4.6,0.6-9.1-1.6-13.5c-0.6-1.2-1.1-2.8,0.7-3.5c1.8-0.7,2.3,0.9,3,2.1c0.2,0.4,0.3,0.9,0.5,1.3
		c1.6,4.3,5.8,5.1,9.8,2.6c7.8-4.9,11.7-12.1,13.3-20.8C372.5,639.4,372,633.9,367.6,629.3z"/>
	<path class="st0" d="M367.6,629.3c4.4,4.6,4.9,10.1,3.9,15.6c-1.6,8.6-5.5,15.9-13.3,20.8c-3.9,2.5-8.2,1.6-9.8-2.6
		c-0.2-0.4-0.3-0.9-0.5-1.3c-0.6-1.2-1.2-2.8-3-2.1c-1.8,0.7-1.3,2.3-0.7,3.5c2.1,4.3,2.2,8.9,1.6,13.5c-0.8,5.3-5.1,9.3-10.8,10.4
		c-5.9,1.1-10.2-0.6-13.3-5.4c-3.4-5.3-4.3-10.7-1.5-16.5c0.7-1.4,2.1-3.4-0.2-4.3c-2.4-1-3.1,1.3-3.7,3c-0.7,2.3-1.5,4.8-1.5,7.1
		c0,3.4-1.7,4.2-4.6,4.1c-2.5,0-4.8-0.7-7-1.9c-4.1-2.3-4.7-5.4-1.7-8.9c1.9-2.2,3.9-4.3,5.3-6.9c0.5-1,0.9-2-0.2-2.8
		c-1.2-1-2.3-0.6-3.2,0.5c-0.7,0.8-1.3,1.7-1.8,2.7c-5.9,12.6-24.4,14.4-33.8,2.6c-4.9-6.1-2.7-19.1,3.9-23.4
		c1.3-0.8,2.8-1.2,3.7-2.6c0.5-0.9,2.3-1.3,0.9-2.9c-1.1-1.2-2.4-0.7-3.3-0.1c-2.5,1.6-4.7,4.7-7.4,0.5c-2-3.2-0.9-11.3,1.5-13.5
		c1.7-1.5,2.1,0.4,2.8,1c3.6,2.8,7.2,5.2,12,4.6c0.8-0.1,2,0.3,2.3-0.9c0.3-1.3-0.8-1.8-1.7-2.4c-0.5-0.3-1.1-0.5-1.7-0.6
		c-9.3-2.1-15.2-12.3-12.6-21.8c2.4-8.5,13.1-14.4,21.6-12c1.7,0.5,2.6,1.3,1.8,3.2c-0.4,1-0.6,2.1-0.8,3.1
		c-0.2,1.5,0.3,2.8,1.7,3.4c1.6,0.6,2.8-0.4,3.3-1.7c5.7-15.2,18.4-19.8,32.8-21.7c17-2.2,37.4,10.6,40.6,25.8
		c2.6,12.5-1.5,23.2-10.5,32.1c-1.7,1.7-5.5,3.2-2.9,6c2.3,2.5,5-0.6,6.9-2.2C364.7,632.9,366.1,631,367.6,629.3z M293.1,613.8
		c0.1,9.1,3.8,16.4,10.8,21.9c3.5,2.8,7.7,4.7,11.6,6.9c7,3.9,14.3,5.1,22.2,3.6c2.5-0.5,7.1-0.1,6.6-2.8c-0.5-2.8-5-1.5-7.7-1
		c-15.6,2.8-33.5-7.1-39.2-21.9C296.4,618.1,295.6,615.5,293.1,613.8z"/>
	<path class="st1" d="M293.1,613.8c2.5,1.6,3.3,4.2,4.2,6.7c5.8,14.8,23.6,24.6,39.2,21.9c2.7-0.5,7.2-1.7,7.7,1
		c0.5,2.7-4.1,2.3-6.6,2.8c-7.8,1.6-15.2,0.4-22.2-3.6c-3.9-2.2-8.1-4.1-11.6-6.9C296.9,630.2,293.2,622.9,293.1,613.8z"/>
</g>
</svg>
